  0
SECTION
  2
HEADER
  9
$ACADVER
  1
AC1009
  9
$INSBASE
 10
0.0
 20
0.0
 30
0.0
  9
$EXTMIN
 10
2268323.5841337139718235
 20
411042.0889862835174426
 30
0.0
  9
$EXTMAX
 10
2268640.2514997469261289
 20
411488.0497370644006878
 30
0.0
  9
$LIMMIN
 10
0.0
 20
0.0
  9
$LIMMAX
 10
420.0
 20
297.0
  9
$ORTHOMODE
 70
     0
  9
$REGENMODE
 70
     1
  9
$FILLMODE
 70
     1
  9
$QTEXTMODE
 70
     0
  9
$MIRRTEXT
 70
     1
  9
$DRAGMODE
 70
     2
  9
$LTSCALE
 40
1.0
  9
$OSMODE
 70
  1024
  9
$ATTMODE
 70
     1
  9
$TEXTSIZE
 40
2.5
  9
$TRACEWID
 40
1.0
  9
$TEXTSTYLE
  7
OPENSANS
  9
$CLAYER
  8
0
  9
$CELTYPE
  6
BYLAYER
  9
$CECOLOR
 62
   256
  9
$DIMSCALE
 40
1.0
  9
$DIMASZ
 40
0.175
  9
$DIMEXO
 40
0.125
  9
$DIMDLI
 40
3.75
  9
$DIMRND
 40
0.0
  9
$DIMDLE
 40
0.0
  9
$DIMEXE
 40
0.375
  9
$DIMTP
 40
0.0
  9
$DIMTM
 40
0.0
  9
$DIMTXT
 40
0.25
  9
$DIMCEN
 40
2.5
  9
$DIMTSZ
 40
0.0
  9
$DIMTOL
 70
     0
  9
$DIMLIM
 70
     0
  9
$DIMTIH
 70
     0
  9
$DIMTOH
 70
     0
  9
$DIMSE1
 70
     0
  9
$DIMSE2
 70
     0
  9
$DIMTAD
 70
     1
  9
$DIMZIN
 70
     8
  9
$DIMBLK
  1
ARCHTICK
  9
$DIMASO
 70
     1
  9
$DIMSHO
 70
     1
  9
$DIMPOST
  1

  9
$DIMAPOST
  1

  9
$DIMALT
 70
     0
  9
$DIMALTD
 70
     3
  9
$DIMALTF
 40
0.03937007874
  9
$DIMLFAC
 40
100.0
  9
$DIMTOFL
 70
     1
  9
$DIMTVP
 40
0.0
  9
$DIMTIX
 70
     0
  9
$DIMSOXD
 70
     0
  9
$DIMSAH
 70
     0
  9
$DIMBLK1
  1

  9
$DIMBLK2
  1

  9
$DIMSTYLE
  2
EZDXF
  9
$DIMCLRD
 70
     0
  9
$DIMCLRE
 70
     0
  9
$DIMCLRT
 70
     0
  9
$DIMTFAC
 40
1.0
  9
$DIMGAP
 40
0.1
  9
$LUNITS
 70
     2
  9
$LUPREC
 70
     4
  9
$SKETCHINC
 40
1.0
  9
$FILLETRAD
 40
10.0
  9
$AUNITS
 70
     0
  9
$AUPREC
 70
     2
  9
$MENU
  1
.
  9
$ELEVATION
 40
0.0
  9
$PELEVATION
 40
0.0
  9
$THICKNESS
 40
0.0
  9
$LIMCHECK
 70
     0
  9
$BLIPMODE
 70
     0
  9
$CHAMFERA
 40
0.0
  9
$CHAMFERB
 40
0.0
  9
$SKPOLY
 70
     0
  9
$TDCREATE
 40
2458532.4456597222015262
  9
$TDUPDATE
 40
2459253.406678241211921
  9
$TDINDWG
 40
0.030150463
  9
$TDUSRTIMER
 40
0.030150463
  9
$USRTIMER
 70
     1
  9
$ANGBASE
 50
0.0
  9
$ANGDIR
 70
     0
  9
$PDMODE
 70
     0
  9
$PDSIZE
 40
0.0
  9
$PLINEWID
 40
0.0
  9
$COORDS
 70
     1
  9
$SPLFRAME
 70
     0
  9
$SPLINETYPE
 70
     6
  9
$SPLINESEGS
 70
     8
  9
$ATTDIA
 70
     1
  9
$ATTREQ
 70
     1
  9
$HANDLING
 70
     1
  9
$HANDSEED
  5
863
  9
$SURFTAB1
 70
     6
  9
$SURFTAB2
 70
     6
  9
$SURFTYPE
 70
     6
  9
$SURFU
 70
     6
  9
$SURFV
 70
     6
  9
$UCSNAME
  2

  9
$UCSORG
 10
0.0
 20
0.0
 30
0.0
  9
$UCSXDIR
 10
1.0
 20
0.0
 30
0.0
  9
$UCSYDIR
 10
0.0
 20
1.0
 30
0.0
  9
$PUCSNAME
  2

  9
$PUCSORG
 10
0.0
 20
0.0
 30
0.0
  9
$PUCSXDIR
 10
1.0
 20
0.0
 30
0.0
  9
$PUCSYDIR
 10
0.0
 20
1.0
 30
0.0
  9
$USERI1
 70
     0
  9
$USERI2
 70
     0
  9
$USERI3
 70
     0
  9
$USERI4
 70
     0
  9
$USERI5
 70
     0
  9
$USERR1
 40
0.0
  9
$USERR2
 40
0.0
  9
$USERR3
 40
0.0
  9
$USERR4
 40
0.0
  9
$USERR5
 40
0.0
  9
$WORLDVIEW
 70
     1
  9
$SHADEDGE
 70
     3
  9
$SHADEDIF
 70
    70
  9
$TILEMODE
 70
     1
  9
$MAXACTVP
 70
    64
  9
$PLIMCHECK
 70
     0
  9
$PEXTMIN
 10
1.0000000000000000E+20
 20
1.0000000000000000E+20
 30
1.0000000000000000E+20
  9
$PEXTMAX
 10
-1.0000000000000000E+20
 20
-1.0000000000000000E+20
 30
-1.0000000000000000E+20
  9
$PLIMMIN
 10
0.0
 20
0.0
  9
$PLIMMAX
 10
420.0
 20
297.0
  9
$UNITMODE
 70
     0
  9
$VISRETAIN
 70
     1
  9
$PLINEGEN
 70
     0
  9
$PSLTSCALE
 70
     1
  0
ENDSEC
  0
SECTION
  2
TABLES
  0
TABLE
  2
VPORT
 70
     1
  0
VPORT
  2
*ACTIVE
 70
     0
 10
0.0
 20
0.0
 11
1.0
 21
1.0
 12
2268549.4124954831786454
 22
411285.1664448149967939
 13
0.0
 23
0.0
 14
0.5
 24
0.5
 15
0.5
 25
0.5
 16
0.0
 26
0.0
 36
1.0
 17
0.0
 27
0.0
 37
0.0
 40
18.0960897857363889
 41
3.5965583173996172
 42
50.0
 43
0.0
 44
0.0
 50
0.0
 51
0.0
 71
     0
 72
  1000
 73
     1
 74
     3
 75
     0
 76
     0
 77
     0
 78
     0
  0
ENDTAB
  0
TABLE
  2
LTYPE
 70
    22
  0
LTYPE
  2
CONTINUOUS
 70
     0
  3

 72
    65
 73
     0
 40
0.0
  0
LTYPE
  2
CENTER
 70
     0
  3
Center ____ _ ____ _ ____ _ ____ _ ____ _ ____
 72
    65
 73
     4
 40
2.0
 49
1.25
 49
-0.25
 49
0.25
 49
-0.25
  0
LTYPE
  2
CENTERX2
 70
     0
  3
Center (2x) ________  __  ________  __  ________
 72
    65
 73
     4
 40
3.5
 49
2.5
 49
-0.25
 49
0.5
 49
-0.25
  0
LTYPE
  2
CENTER2
 70
     0
  3
Center (.5x) ____ _ ____ _ ____ _ ____ _ ____
 72
    65
 73
     4
 40
1.0
 49
0.625
 49
-0.125
 49
0.125
 49
-0.125
  0
LTYPE
  2
DASHED
 70
     0
  3
Dashed __ __ __ __ __ __ __ __ __ __ __ __ __ _
 72
    65
 73
     2
 40
0.6
 49
0.5
 49
-0.1
  0
LTYPE
  2
DASHEDX2
 70
     0
  3
Dashed (2x) ____  ____  ____  ____  ____  ____
 72
    65
 73
     2
 40
1.1999999999999991
 49
1.0
 49
-0.2
  0
LTYPE
  2
DASHED2
 70
     0
  3
Dashed (.5x) _ _ _ _ _ _ _ _ _ _ _ _ _ _
 72
    65
 73
     2
 40
0.3
 49
0.25
 49
-0.05
  0
LTYPE
  2
PHANTOM
 70
     0
  3
Phantom ______  __  __  ______  __  __  ______
 72
    65
 73
     6
 40
2.5
 49
1.25
 49
-0.25
 49
0.25
 49
-0.25
 49
0.25
 49
-0.25
  0
LTYPE
  2
PHANTOMX2
 70
     0
  3
Phantom (2x)____________    ____    ____    ____________
 72
    65
 73
     6
 40
4.25
 49
2.5
 49
-0.25
 49
0.5
 49
-0.25
 49
0.5
 49
-0.25
  0
LTYPE
  2
PHANTOM2
 70
     0
  3
Phantom (.5x) ___ _ _ ___ _ _ ___ _ _ ___ _ _ ___
 72
    65
 73
     6
 40
1.25
 49
0.625
 49
-0.125
 49
0.125
 49
-0.125
 49
0.125
 49
-0.125
  0
LTYPE
  2
DASHDOT
 70
     0
  3
Dash dot __ . __ . __ . __ . __ . __ . __ . __
 72
    65
 73
     4
 40
1.399999999999999
 49
1.0
 49
-0.2
 49
0.0
 49
-0.2
  0
LTYPE
  2
DASHDOTX2
 70
     0
  3
Dash dot (2x) ____  .  ____  .  ____  .  ____
 72
    65
 73
     4
 40
2.399999999999999
 49
2.0
 49
-0.2
 49
0.0
 49
-0.2
  0
LTYPE
  2
DASHDOT2
 70
     0
  3
Dash dot (.5x) _ . _ . _ . _ . _ . _ . _ . _
 72
    65
 73
     4
 40
0.7
 49
0.5
 49
-0.1
 49
0.0
 49
-0.1
  0
LTYPE
  2
DOT
 70
     0
  3
Dot .  .  .  .  .  .  .  .  .  .  .  .  .  .  .  .
 72
    65
 73
     2
 40
0.2
 49
0.0
 49
-0.2
  0
LTYPE
  2
DOTX2
 70
     0
  3
Dot (2x) .    .    .    .    .    .    .    . 
 72
    65
 73
     2
 40
0.4
 49
0.0
 49
-0.4
  0
LTYPE
  2
DOT2
 70
     0
  3
Dot (.5) . . . . . . . . . . . . . . . . . . . 
 72
    65
 73
     2
 40
0.1
 49
0.0
 49
-0.1
  0
LTYPE
  2
DIVIDE
 70
     0
  3
Divide __ . . __ . . __ . . __ . . __ . . __
 72
    65
 73
     6
 40
1.6000000000000001
 49
1.0
 49
-0.2
 49
0.0
 49
-0.2
 49
0.0
 49
-0.2
  0
LTYPE
  2
DIVIDEX2
 70
     0
  3
Divide (2x) ____  . .  ____  . .  ____  . .  ____
 72
    65
 73
     6
 40
2.6000000000000001
 49
2.0
 49
-0.2
 49
0.0
 49
-0.2
 49
0.0
 49
-0.2
  0
LTYPE
  2
DIVIDE2
 70
     0
  3
Divide(.5x) _ . _ . _ . _ . _ . _ . _ . _
 72
    65
 73
     6
 40
0.8
 49
0.5
 49
-0.1
 49
0.0
 49
-0.1
 49
0.0
 49
-0.1
  0
LTYPE
  2
DOTTED_LINE
 70
     0
  3
Dotted - - - - - - - - - - -
 72
    65
 73
     2
 40
0.5
 49
0.5
 49
-0.5
  0
LTYPE
  2
DASHDOT_AXIS
 70
     0
  3
ÿÚËı-ÔÛÌÍÚËÌ‡ˇ ____ _ ____ _ ____ _ ____ _
 72
    65
 73
     4
 40
24.0
 49
20.0
 49
-1.5
 49
1.0
 49
-1.5
  0
ENDTAB
  0
TABLE
  2
LAYER
 70
     5
  0
LAYER
  2
0
 70
     0
 62
     7
  6
CONTINUOUS
  0
LAYER
  2
ŒœŒ–€
 70
     0
 62
   250
  6
CONTINUOUS
  0
LAYER
  2
” Œ—€
 70
     0
 62
   250
  6
CONTINUOUS
  0
LAYER
  2
¬À-0_4 ¬_Œ“_ “œ_463_‘_27_œ
 70
     0
 62
     5
  6
CONTINUOUS
  0
LAYER
  2
œŒƒœ»—»
 70
     0
 62
   250
  6
CONTINUOUS
  0
ENDTAB
  0
TABLE
  2
STYLE
 70
    30
  0
STYLE
  2
STANDARD
 70
     0
 40
0.0
 41
1.0
 50
0.0
 71
     0
 42
2.5
  3
txt
  4

  0
STYLE
  2
OPENSANS-LIGHT
 70
     0
 40
0.0
 41
1.0
 50
0.0
 71
     0
 42
2.5
  3
txt
  4

  0
STYLE
  2
OPENSANS-LIGHT-ITALIC
 70
     0
 40
0.0
 41
1.0
 50
0.0
 71
     0
 42
2.5
  3
txt
  4

  0
STYLE
  2
OPENSANS
 70
     0
 40
0.0
 41
1.0
 50
0.0
 71
     0
 42
2.5
  3
txt
  4

  0
STYLE
  2
OPENSANS-ITALIC
 70
     0
 40
0.0
 41
1.0
 50
0.0
 71
     0
 42
2.5
  3
txt
  4

  0
STYLE
  2
OPENSANS-SEMIBOLD
 70
     0
 40
0.0
 41
1.0
 50
0.0
 71
     0
 42
2.5
  3
txt
  4

  0
STYLE
  2
OPENSANS-SEMIBOLDITALIC
 70
     0
 40
0.0
 41
1.0
 50
0.0
 71
     0
 42
2.5
  3
txt
  4

  0
STYLE
  2
OPENSANS-BOLD
 70
     0
 40
0.0
 41
1.0
 50
0.0
 71
     0
 42
2.5
  3
txt
  4

  0
STYLE
  2
OPENSANS-BOLDITALIC
 70
     0
 40
0.0
 41
1.0
 50
0.0
 71
     0
 42
2.5
  3
txt
  4

  0
STYLE
  2
OPENSANS-EXTRABOLD
 70
     0
 40
0.0
 41
1.0
 50
0.0
 71
     0
 42
2.5
  3
txt
  4

  0
STYLE
  2
OPENSANS-EXTRABOLDITALIC
 70
     0
 40
0.0
 41
1.0
 50
0.0
 71
     0
 42
2.5
  3
txt
  4

  0
STYLE
  2
OPENSANSCONDENSED-BOLD
 70
     0
 40
0.0
 41
1.0
 50
0.0
 71
     0
 42
2.5
  3
txt
  4

  0
STYLE
  2
OPENSANSCONDENSED-LIGHT
 70
     0
 40
0.0
 41
1.0
 50
0.0
 71
     0
 42
2.5
  3
txt
  4

  0
STYLE
  2
OPENSANSCONDENSED-ITALIC
 70
     0
 40
0.0
 41
1.0
 50
0.0
 71
     0
 42
2.5
  3
txt
  4

  0
STYLE
  2
LIBERATIONSANS
 70
     0
 40
0.0
 41
1.0
 50
0.0
 71
     0
 42
2.5
  3
txt
  4

  0
STYLE
  2
LIBERATIONSANS-BOLD
 70
     0
 40
0.0
 41
1.0
 50
0.0
 71
     0
 42
2.5
  3
txt
  4

  0
STYLE
  2
LIBERATIONSANS-BOLDITALIC
 70
     0
 40
0.0
 41
1.0
 50
0.0
 71
     0
 42
2.5
  3
txt
  4

  0
STYLE
  2
LIBERATIONSANS-ITALIC
 70
     0
 40
0.0
 41
1.0
 50
0.0
 71
     0
 42
2.5
  3
txt
  4

  0
STYLE
  2
LIBERATIONSERIF
 70
     0
 40
0.0
 41
1.0
 50
0.0
 71
     0
 42
2.5
  3
txt
  4

  0
STYLE
  2
LIBERATIONSERIF-BOLD
 70
     0
 40
0.0
 41
1.0
 50
0.0
 71
     0
 42
2.5
  3
txt
  4

  0
STYLE
  2
LIBERATIONSERIF-BOLDITALIC
 70
     0
 40
0.0
 41
1.0
 50
0.0
 71
     0
 42
2.5
  3
txt
  4

  0
STYLE
  2
LIBERATIONSERIF-ITALIC
 70
     0
 40
0.0
 41
1.0
 50
0.0
 71
     0
 42
2.5
  3
txt
  4

  0
STYLE
  2
LIBERATIONMONO
 70
     0
 40
0.0
 41
1.0
 50
0.0
 71
     0
 42
2.5
  3
txt
  4

  0
STYLE
  2
LIBERATIONMONO-BOLD
 70
     0
 40
0.0
 41
1.0
 50
0.0
 71
     0
 42
2.5
  3
txt
  4

  0
STYLE
  2
LIBERATIONMONO-BOLDITALIC
 70
     0
 40
0.0
 41
1.0
 50
0.0
 71
     0
 42
2.5
  3
txt
  4

  0
STYLE
  2
LIBERATIONMONO-ITALIC
 70
     0
 40
0.0
 41
1.0
 50
0.0
 71
     0
 42
2.5
  3
txt
  4

  0
STYLE
  2
ARIALCYR
 70
     0
 40
0.0
 41
1.0
 50
0.0
 71
     0
 42
2.5
  3
txt
  4

  0
STYLE
  2
GOST-2_304_TYPE-B
 70
     0
 40
0.0
 41
1.0
 50
0.0
 71
     0
 42
2.5
  3
txt
  4

  0
STYLE
  2
GOST-2_304_TYPE-B_ITALIC
 70
     0
 40
0.0
 41
1.0
 50
0.0
 71
     0
 42
2.5
  3
txt
  4

  0
STYLE
  2
GOST-2_304_TYPE-B_SHRINK
 70
     0
 40
0.0
 41
0.8
 50
0.0
 71
     0
 42
2.5
  3
txt
  4

  0
ENDTAB
  0
TABLE
  2
VIEW
 70
     1
  0
ENDTAB
  0
TABLE
  2
UCS
 70
     0
  0
ENDTAB
  0
TABLE
  2
APPID
 70
     6
  0
APPID
  2
ACAD
 70
     0
  0
APPID
  2
HATCHBACKGROUNDCOLOR
 70
     0
  0
APPID
  2
ACAD_NAV_VCDISPLAY
 70
     0
  0
APPID
  2
ACAD_EXEMPT_FROM_CAD_STANDARDS
 70
     0
  0
APPID
  2
ACAD_MLEADERVER
 70
     0
  0
APPID
  2
SPDS_NET
 70
     0
  0
ENDTAB
  0
TABLE
  2
DIMSTYLE
 70
    12
  0
DIMSTYLE
  2
STANDARD
 70
     0
  3

  4

  5

  6

  7

 40
1.0
 41
2.5
 42
0.625
 43
3.75
 44
1.25
 45
0.0
 46
0.0
 47
0.0
 48
0.0
140
2.5
141
2.5
142
0.0
143
0.03937007874
144
1.0
145
0.0
146
1.0
147
0.625
 71
     0
 72
     0
 73
     0
 74
     0
 75
     0
 76
     0
 77
     1
 78
     8
170
     0
171
     3
172
     1
173
     0
174
     0
175
     0
176
     0
177
     0
178
     0
  0
DIMSTYLE
  2
EZDXF
 70
     0
  3

  4

  5
ARCHTICK
  6

  7

 40
1.0
 41
0.175
 42
0.125
 43
3.75
 44
0.375
 45
0.0
 46
0.0
 47
0.0
 48
0.0
140
0.25
141
2.5
142
0.0
143
0.03937007874
144
100.0
145
0.0
146
1.0
147
0.1
 71
     0
 72
     0
 73
     0
 74
     0
 75
     0
 76
     0
 77
     1
 78
     8
170
     0
171
     3
172
     1
173
     0
174
     0
175
     0
176
     0
177
     0
178
     0
  0
DIMSTYLE
  2
EZ_M_100_H25_CM
 70
     0
  3

  4

  5

  6

  7

 40
1.0
 41
0.25
 42
0.125
 43
3.75
 44
0.375
 45
0.0
 46
0.0
 47
0.0
 48
0.0
140
0.25
141
2.5
142
0.125
143
0.03937007874
144
100.0
145
0.0
146
1.0
147
0.1
 71
     0
 72
     0
 73
     0
 74
     0
 75
     0
 76
     0
 77
     1
 78
     8
170
     0
171
     3
172
     1
173
     0
174
     0
175
     0
176
     0
177
     0
178
     0
  0
DIMSTYLE
  2
EZ_M_50_H25_CM
 70
     0
  3

  4

  5

  6

  7

 40
1.0
 41
0.125
 42
0.0625
 43
3.75
 44
0.1875
 45
0.0
 46
0.0
 47
0.0
 48
0.0
140
0.125
141
2.5
142
0.0625
143
0.03937007874
144
100.0
145
0.0
146
1.0
147
0.05
 71
     0
 72
     0
 73
     0
 74
     0
 75
     0
 76
     0
 77
     1
 78
     8
170
     0
171
     3
172
     1
173
     0
174
     0
175
     0
176
     0
177
     0
178
     0
  0
DIMSTYLE
  2
EZ_M_25_H25_CM
 70
     0
  3

  4

  5

  6

  7

 40
1.0
 41
0.0625
 42
0.03125
 43
3.75
 44
0.09375
 45
0.0
 46
0.0
 47
0.0
 48
0.0
140
0.0625
141
2.5
142
0.03125
143
0.03937007874
144
100.0
145
0.0
146
1.0
147
0.025
 71
     0
 72
     0
 73
     0
 74
     0
 75
     0
 76
     0
 77
     1
 78
     8
170
     0
171
     3
172
     1
173
     0
174
     0
175
     0
176
     0
177
     0
178
     0
  0
DIMSTYLE
  2
EZ_M_20_H25_CM
 70
     0
  3

  4

  5

  6

  7

 40
1.0
 41
0.05
 42
0.025
 43
3.75
 44
0.075
 45
0.0
 46
0.0
 47
0.0
 48
0.0
140
0.05
141
2.5
142
0.025
143
0.03937007874
144
100.0
145
0.0
146
1.0
147
0.02
 71
     0
 72
     0
 73
     0
 74
     0
 75
     0
 76
     0
 77
     1
 78
     8
170
     0
171
     3
172
     1
173
     0
174
     0
175
     0
176
     0
177
     0
178
     0
  0
DIMSTYLE
  2
EZ_M_10_H25_CM
 70
     0
  3

  4

  5

  6

  7

 40
1.0
 41
0.025
 42
0.0125
 43
3.75
 44
0.0375
 45
0.0
 46
0.0
 47
0.0
 48
0.0
140
0.025
141
2.5
142
0.0125
143
0.03937007874
144
100.0
145
0.0
146
1.0
147
0.01
 71
     0
 72
     0
 73
     0
 74
     0
 75
     0
 76
     0
 77
     1
 78
     8
170
     0
171
     3
172
     1
173
     0
174
     0
175
     0
176
     0
177
     0
178
     0
  0
DIMSTYLE
  2
EZ_M_5_H25_CM
 70
     0
  3

  4

  5

  6

  7

 40
1.0
 41
0.0125
 42
0.00625
 43
3.75
 44
0.01875
 45
0.0
 46
0.0
 47
0.0
 48
0.0
140
0.0125
141
2.5
142
0.00625
143
0.03937007874
144
100.0
145
0.0
146
1.0
147
0.005
 71
     0
 72
     0
 73
     0
 74
     0
 75
     0
 76
     0
 77
     1
 78
     8
170
     0
171
     3
172
     1
173
     0
174
     0
175
     0
176
     0
177
     0
178
     0
  0
DIMSTYLE
  2
EZ_M_1_H25_CM
 70
     0
  3

  4

  5

  6

  7

 40
1.0
 41
0.0025
 42
0.00125
 43
3.75
 44
0.00375
 45
0.0
 46
0.0
 47
0.0
 48
0.0
140
0.0025
141
2.5
142
0.00125
143
0.03937007874
144
100.0
145
0.0
146
1.0
147
0.001
 71
     0
 72
     0
 73
     0
 74
     0
 75
     0
 76
     0
 77
     1
 78
     8
170
     0
171
     3
172
     1
173
     0
174
     0
175
     0
176
     0
177
     0
178
     0
  0
DIMSTYLE
  2
EZ_RADIUS
 70
     0
  3

  4

  5
CLOSEDBLANK
  6

  7

 40
1.0
 41
0.25
 42
0.125
 43
3.75
 44
0.375
 45
0.0
 46
0.0
 47
0.0
 48
0.0
140
0.25
141
0.0
142
0.0
143
0.03937007874
144
100.0
145
0.0
146
1.0
147
0.1
 71
     0
 72
     0
 73
     0
 74
     0
 75
     0
 76
     0
 77
     1
 78
     8
170
     0
171
     3
172
     0
173
     0
174
     0
175
     0
176
     0
177
     0
178
     0
  0
DIMSTYLE
  2
EZ_RADIUS_INSIDE
 70
     0
  3

  4

  5
CLOSEDBLANK
  6

  7

 40
1.0
 41
0.25
 42
0.125
 43
3.75
 44
0.375
 45
0.0
 46
0.0
 47
0.0
 48
0.0
140
0.25
141
0.0
142
0.0
143
0.03937007874
144
100.0
145
0.0
146
1.0
147
0.1
 71
     0
 72
     0
 73
     0
 74
     0
 75
     0
 76
     0
 77
     0
 78
     8
170
     0
171
     3
172
     0
173
     0
174
     1
175
     0
176
     0
177
     0
178
     0
  0
ENDTAB
  0
ENDSEC
  0
SECTION
  2
BLOCKS
  0
BLOCK
  8
0
  2
$MODEL_SPACE
 70
     0
 10
0.0
 20
0.0
 30
0.0
  3
$MODEL_SPACE
  1

  0
ENDBLK
  5
19
  8
0
  0
BLOCK
 67
     1
  8
0
  2
$PAPER_SPACE
 70
     0
 10
0.0
 20
0.0
 30
0.0
  3
$PAPER_SPACE
  1

  0
ENDBLK
  5
1D
 67
     1
  8
0
  0
BLOCK
  8
0
  2
_ARCHTICK
 70
     0
 10
0.0
 20
0.0
 30
0.0
  3
_ARCHTICK
  1

  0
POLYLINE
  5
75
  8
0
  6
BYBLOCK
 62
     0
 66
     1
 10
0.0
 20
0.0
 30
0.0
 40
0.15
 41
0.15
  0
VERTEX
  5
5BF
  8
0
  6
BYBLOCK
 62
     0
 10
-0.5
 20
-0.5000000000000001
 30
0.0
  0
VERTEX
  5
5C0
  8
0
  6
BYBLOCK
 62
     0
 10
0.5000000000000001
 20
0.5000000000000001
 30
0.0
  0
SEQEND
  5
5C1
  8
0
  6
BYBLOCK
 62
     0
  0
ENDBLK
  5
74
  8
0
  0
BLOCK
  8
0
  2
_CLOSEDFILLED
 70
     0
 10
0.0
 20
0.0
 30
0.0
  3
_CLOSEDFILLED
  1

  0
SOLID
  5
79
  8
0
  6
BYBLOCK
 62
     0
 10
-1.0
 20
0.1643989837240255
 30
0.0
 11
0.0
 21
0.0
 31
0.0
 12
-1.0
 22
-0.1643989837240255
 32
0.0
 13
-1.0
 23
-0.1643989837240255
 33
0.0
  0
ENDBLK
  5
78
  8
0
  0
BLOCK
  8
0
  2
_CLOSEDBLANK
 70
     0
 10
0.0
 20
0.0
 30
0.0
  3
_CLOSEDBLANK
  1

  0
POLYLINE
  5
85
  8
0
  6
BYBLOCK
 62
     0
 66
     1
 10
0.0
 20
0.0
 30
0.0
 70
     1
  0
VERTEX
  5
5C2
  8
0
  6
BYBLOCK
 62
     0
 10
-1.0
 20
0.1643989837240255
 30
0.0
  0
VERTEX
  5
5C3
  8
0
  6
BYBLOCK
 62
     0
 10
0.0
 20
0.0
 30
0.0
  0
VERTEX
  5
5C4
  8
0
  6
BYBLOCK
 62
     0
 10
-1.0
 20
-0.1643989837240255
 30
0.0
  0
SEQEND
  5
5C5
  8
0
  6
BYBLOCK
 62
     0
  0
ENDBLK
  5
84
  8
0
  0
BLOCK
  8
0
  2
—“ŒÀ¡_∆≈À≈«Œ¡≈“ŒÕÕ€…
 70
     0
 10
0.0
 20
0.0
 30
0.0
  3
—“ŒÀ¡_∆≈À≈«Œ¡≈“ŒÕÕ€…
  1

  0
CIRCLE
  5
8B
  8
0
 10
0.0
 20
0.0
 30
0.0
 40
0.25
  0
INSERT
  5
8C
  8
0
  6
CONTINUOUS
 62
     7
  2
*U10
 10
0.0
 20
0.0
 30
0.0
1001
ACAD
1002
{
1000
R14_HATCH_DATA
1000
8C
1011
1.0
1021
0.0
1031
0.0
1021
0.0
1031
0.0
1011
0.0
1021
0.0
1031
0.0
1021
1.0
1031
0.0
1011
0.0
1021
0.0
1031
0.0
1021
0.0
1031
1.0
1040
0.0
1010
0.0
1020
0.0
1030
1.0
1000
SOLID
1070
     1
1070
     0
1071
        1
1071
        1
1071
        1
1070
     3
1040
0.0
1040
0.0
1040
0.0
1040
0.04
1040
1.0
1040
0.0
1040
6.2831853071795862
1070
     1
1071
        0
1070
     0
1070
     1
1071
        0
1002
}
  0
ENDBLK
  5
8A
  8
0
  0
BLOCK
  8
0
  2
B-VL-N
 70
     0
 10
0.0
 20
0.0
 30
0.0
  3
B-VL-N
  1

  0
LINE
  5
90
  8
0
 10
0.0
 20
0.0
 30
0.0
 11
3.5
 21
0.0
 31
0.0
  0
LINE
  5
91
  8
0
 10
3.5
 20
0.0
 30
0.0
 11
2.5
 21
0.5
 31
0.0
  0
LINE
  5
92
  8
0
 10
3.5
 20
0.0
 30
0.0
 11
2.5
 21
-0.5
 31
0.0
  0
ENDBLK
  5
8F
  8
0
  0
BLOCK
  8
0
  2
B50
 70
     0
 10
0.0
 20
0.0
 30
0.0
  3
B50
  1

  0
CIRCLE
  5
96
  8
0
 10
0.0
 20
0.0
 30
0.0
 40
1.1000000000000001
  0
CIRCLE
  5
97
  8
0
 10
0.0
 20
0.0
 30
0.0
 40
1.3
  0
INSERT
  5
98
  8
0
  6
CONTINUOUS
 62
     7
  2
*U11
 10
0.0
 20
0.0
 30
0.0
1001
ACAD
1002
{
1000
R14_HATCH_DATA
1000
98
1011
1.0
1021
0.0
1031
0.0
1021
0.0
1031
0.0
1011
0.0
1021
0.0
1031
0.0
1021
1.0
1031
0.0
1011
0.0
1021
0.0
1031
0.0
1021
0.0
1031
1.0
1040
0.0
1010
0.0
1020
0.0
1030
1.0
1000
SOLID
1070
     1
1070
     0
1071
        2
1071
        1
1071
        4
1070
     1
1040
-0.1725
1040
0.1725
1040
0.1725
1040
0.1725
1070
     1
1040
0.1725
1040
0.1725
1040
0.1725
1040
-0.1725
1070
     1
1040
0.1725
1040
-0.1725
1040
-0.1725
1040
-0.1725
1070
     1
1040
-0.1725
1040
-0.1725
1040
-0.1725
1040
0.1725
1071
        0
1071
        1
1071
        2
1070
     3
1040
0.0
1040
0.0
1040
0.0
1040
1.1000000000000001
1040
1.0
1040
0.0
1040
6.2831853071795862
1070
     1
1070
     3
1040
0.0
1040
0.0
1040
0.0
1040
1.3
1040
1.0
1040
0.0
1040
6.2831853071795862
1070
     1
1071
        0
1070
     0
1070
     1
1071
        0
1002
}
  0
ENDBLK
  5
95
  8
0
  0
BLOCK
  8
0
  2
B198
 70
     0
 10
0.0
 20
0.0
 30
0.0
  3
B198
  1

  0
CIRCLE
  5
9C
  8
0
 10
0.0
 20
0.0
 30
0.0
 40
1.639999999999999
  0
CIRCLE
  5
9D
  8
0
 10
0.0
 20
0.0
 30
0.0
 40
1.3400000000000001
  0
INSERT
  5
9E
  8
0
  6
CONTINUOUS
 62
     7
  2
*U12
 10
0.0
 20
0.0
 30
0.0
1001
ACAD
1002
{
1000
R14_HATCH_DATA
1000
9E
1011
1.0
1021
0.0
1031
0.0
1021
0.0
1031
0.0
1011
0.0
1021
0.0
1031
0.0
1021
1.0
1031
0.0
1011
0.0
1021
0.0
1031
0.0
1021
0.0
1031
1.0
1040
0.0
1010
0.0
1020
0.0
1030
1.0
1000
SOLID
1070
     1
1070
     0
1071
        2
1071
        1
1071
        4
1070
     1
1040
-0.215
1040
0.215
1040
0.215
1040
0.215
1070
     1
1040
0.215
1040
0.215
1040
0.215
1040
-0.215
1070
     1
1040
0.215
1040
-0.215
1040
-0.215
1040
-0.215
1070
     1
1040
-0.215
1040
-0.215
1040
-0.215
1040
0.215
1071
        0
1071
        1
1071
        2
1070
     3
1040
0.0
1040
0.0
1040
0.0
1040
1.3400000000000001
1040
1.0
1040
0.0
1040
6.2831853071795862
1070
     1
1070
     3
1040
0.0
1040
0.0
1040
0.0
1040
1.639999999999999
1040
1.0
1040
0.0
1040
6.2831853071795862
1070
     1
1071
        0
1070
     0
1070
     1
1071
        0
1002
}
  0
ENDBLK
  5
9B
  8
0
  0
BLOCK
  8
0
  2
BL2
 70
     0
 10
0.0
 20
0.0
 30
0.0
  3
BL2
  1

  0
POLYLINE
  5
A2
  8
0
 66
     1
 10
0.0
 20
0.0
 30
0.0
  0
VERTEX
  5
7EC
  8
0
 10
-0.09
 20
-0.12
 30
0.0
  0
VERTEX
  5
7ED
  8
0
 10
-0.09
 20
0.12
 30
0.0
  0
VERTEX
  5
7EE
  8
0
 10
0.09
 20
0.12
 30
0.0
  0
VERTEX
  5
7EF
  8
0
 10
0.09
 20
-0.12
 30
0.0
  0
VERTEX
  5
7F0
  8
0
 10
-0.09
 20
-0.12
 30
0.0
  0
SEQEND
  5
7F1
  8
0
  0
ATTDEF
  5
A3
  8
0
 10
1.5
 20
2.6000000000000001
 30
0.0
 40
2.0
  1

  3

  2
ÕŒÃ≈–
 70
     0
  0
ENDBLK
  5
A1
  8
0
  0
BLOCK
  8
0
  2
POINTER
 70
     0
 10
0.0
 20
0.0
 30
0.0
  3
POINTER
  1

  0
LINE
  5
A7
  8
0
 10
0.0
 20
0.0
 30
0.0
 11
3.5
 21
0.0
 31
0.0
  0
LINE
  5
A8
  8
0
 10
3.5
 20
0.0
 30
0.0
 11
2.5
 21
0.5
 31
0.0
  0
LINE
  5
A9
  8
0
 10
3.5
 20
0.0
 30
0.0
 11
2.5
 21
-0.5
 31
0.0
  0
ENDBLK
  5
A6
  8
0
  0
BLOCK
  8
0
  2
*U10
 70
     1
 10
0.0
 20
0.0
 30
0.0
  3
*U10
  1

  0
SOLID
  5
5C7
  8
0
  6
CONTINUOUS
 62
     7
 10
0.0
 20
0.04
 30
0.0
 11
-0.0075700497744164
 21
0.0392771478905083
 31
0.0
 12
0.0075700497744165
 22
0.0392771478905083
 32
0.0
 13
0.0075700497744165
 23
0.0392771478905083
 33
0.0
210
0.0
220
0.0
230
-1.0
  0
SOLID
  5
5C8
  8
0
  6
CONTINUOUS
 62
     7
 10
0.0075700497744164
 20
0.0392771478905083
 30
0.0
 11
-0.0148664982264131
 21
0.0371347173206429
 31
0.0
 12
0.0148664982264132
 22
0.0371347173206429
 32
0.0
 13
0.0148664982264132
 23
0.0371347173206429
 33
0.0
210
0.0
220
0.0
230
-1.0
  0
SOLID
  5
5C9
  8
0
  6
CONTINUOUS
 62
     7
 10
0.0075700497744164
 20
0.0392771478905083
 30
0.0
 11
-0.0075700497744164
 21
0.0392771478905083
 31
0.0
 12
-0.0148664982264131
 22
0.0371347173206429
 32
0.0
 13
-0.0148664982264131
 23
0.0371347173206429
 33
0.0
210
0.0
220
0.0
230
-1.0
  0
SOLID
  5
5CA
  8
0
  6
CONTINUOUS
 62
     7
 10
0.0148664982264131
 20
0.0371347173206429
 30
0.0
 11
-0.0216256326982239
 21
0.0336501413132472
 31
0.0
 12
0.0216256326982239
 22
0.0336501413132472
 32
0.0
 13
0.0216256326982239
 23
0.0336501413132472
 33
0.0
210
0.0
220
0.0
230
-1.0
  0
SOLID
  5
5CB
  8
0
  6
CONTINUOUS
 62
     7
 10
0.0148664982264131
 20
0.0371347173206429
 30
0.0
 11
-0.0148664982264131
 21
0.0371347173206429
 31
0.0
 12
-0.0216256326982239
 22
0.0336501413132472
 32
0.0
 13
-0.0216256326982239
 23
0.0336501413132472
 33
0.0
210
0.0
220
0.0
230
-1.0
  0
SOLID
  5
5CC
  8
0
  6
CONTINUOUS
 62
     7
 10
0.0216256326982239
 20
0.0336501413132472
 30
0.0
 11
-0.0276031604592845
 21
0.0289493615242028
 31
0.0
 12
0.0276031604592845
 22
0.0289493615242028
 32
0.0
 13
0.0276031604592845
 23
0.0289493615242028
 33
0.0
210
0.0
220
0.0
230
-1.0
  0
SOLID
  5
5CD
  8
0
  6
CONTINUOUS
 62
     7
 10
0.0216256326982239
 20
0.0336501413132472
 30
0.0
 11
-0.0216256326982239
 21
0.0336501413132472
 31
0.0
 12
-0.0276031604592845
 22
0.0289493615242028
 32
0.0
 13
-0.0276031604592845
 23
0.0289493615242028
 33
0.0
210
0.0
220
0.0
230
-1.0
  0
SOLID
  5
5CE
  8
0
  6
CONTINUOUS
 62
     7
 10
0.0276031604592845
 20
0.0289493615242028
 30
0.0
 11
-0.0325830380820135
 21
0.0232022763828479
 31
0.0
 12
0.0325830380820135
 22
0.0232022763828479
 32
0.0
 13
0.0325830380820135
 23
0.0232022763828479
 33
0.0
210
0.0
220
0.0
230
-1.0
  0
SOLID
  5
5CF
  8
0
  6
CONTINUOUS
 62
     7
 10
0.0276031604592845
 20
0.0289493615242028
 30
0.0
 11
-0.0276031604592845
 21
0.0289493615242028
 31
0.0
 12
-0.0325830380820135
 22
0.0232022763828479
 32
0.0
 13
-0.0325830380820135
 23
0.0232022763828479
 33
0.0
210
0.0
220
0.0
230
-1.0
  0
SOLID
  5
5D0
  8
0
  6
CONTINUOUS
 62
     7
 10
0.0325830380820135
 20
0.0232022763828479
 30
0.0
 11
-0.0363852798141808
 21
0.0166166005200754
 31
0.0
 12
0.0363852798141808
 22
0.0166166005200754
 32
0.0
 13
0.0363852798141808
 23
0.0166166005200754
 33
0.0
210
0.0
220
0.0
230
-1.0
  0
SOLID
  5
5D1
  8
0
  6
CONTINUOUS
 62
     7
 10
0.0325830380820135
 20
0.0232022763828479
 30
0.0
 11
-0.0325830380820135
 21
0.0232022763828479
 31
0.0
 12
-0.0363852798141808
 22
0.0166166005200754
 32
0.0
 13
-0.0363852798141808
 23
0.0166166005200754
 33
0.0
210
0.0
220
0.0
230
-1.0
  0
SOLID
  5
5D2
  8
0
  6
CONTINUOUS
 62
     7
 10
0.0363852798141807
 20
0.0166166005200754
 30
0.0
 11
-0.0388724627329417
 21
0.0094303574203771
 31
0.0
 12
0.0388724627329417
 22
0.0094303574203771
 32
0.0
 13
0.0388724627329417
 23
0.0094303574203771
 33
0.0
210
0.0
220
0.0
230
-1.0
  0
SOLID
  5
5D3
  8
0
  6
CONTINUOUS
 62
     7
 10
0.0363852798141807
 20
0.0166166005200754
 30
0.0
 11
-0.0363852798141808
 21
0.0166166005200754
 31
0.0
 12
-0.0388724627329417
 22
0.0094303574203771
 32
0.0
 13
-0.0388724627329417
 23
0.0094303574203771
 33
0.0
210
0.0
220
0.0
230
-1.0
  0
SOLID
  5
5D4
  8
0
  6
CONTINUOUS
 62
     7
 10
0.0388724627329417
 20
0.0094303574203771
 30
0.0
 11
-0.0399546935673203
 21
0.0019032766329497
 31
0.0
 12
0.0399546935673203
 22
0.0019032766329497
 32
0.0
 13
0.0399546935673203
 23
0.0019032766329497
 33
0.0
210
0.0
220
0.0
230
-1.0
  0
SOLID
  5
5D5
  8
0
  6
CONTINUOUS
 62
     7
 10
0.0388724627329417
 20
0.0094303574203771
 30
0.0
 11
-0.0388724627329417
 21
0.0094303574203771
 31
0.0
 12
-0.0399546935673203
 22
0.0019032766329497
 32
0.0
 13
-0.0399546935673203
 23
0.0019032766329497
 33
0.0
210
0.0
220
0.0
230
-1.0
  0
SOLID
  5
5D6
  8
0
  6
CONTINUOUS
 62
     7
 10
0.0399546935673203
 20
0.0019032766329497
 30
0.0
 11
-0.0395928576752373
 21
-0.0056925935309314
 31
0.0
 12
0.0395928576752373
 22
-0.0056925935309314
 32
0.0
 13
0.0395928576752373
 23
-0.0056925935309314
 33
0.0
210
0.0
220
0.0
230
-1.0
  0
SOLID
  5
5D7
  8
0
  6
CONTINUOUS
 62
     7
 10
0.0399546935673203
 20
0.0019032766329497
 30
0.0
 11
-0.0399546935673203
 21
0.0019032766329497
 31
0.0
 12
-0.0395928576752373
 22
-0.0056925935309314
 32
0.0
 13
-0.0395928576752373
 23
-0.0056925935309314
 33
0.0
210
0.0
220
0.0
230
-1.0
  0
SOLID
  5
5D8
  8
0
  6
CONTINUOUS
 62
     7
 10
0.0395928576752373
 20
-0.0056925935309314
 30
0.0
 11
-0.0378000327485868
 21
-0.0130827185326969
 31
0.0
 12
0.0378000327485867
 22
-0.0130827185326969
 32
0.0
 13
0.0378000327485867
 23
-0.0130827185326969
 33
0.0
210
0.0
220
0.0
230
-1.0
  0
SOLID
  5
5D9
  8
0
  6
CONTINUOUS
 62
     7
 10
0.0395928576752373
 20
-0.0056925935309314
 30
0.0
 11
-0.0395928576752373
 21
-0.0056925935309314
 31
0.0
 12
-0.0378000327485868
 22
-0.0130827185326969
 32
0.0
 13
-0.0378000327485868
 23
-0.0130827185326969
 33
0.0
210
0.0
220
0.0
230
-1.0
  0
SOLID
  5
5DA
  8
0
  6
CONTINUOUS
 62
     7
 10
0.0378000327485867
 20
-0.0130827185326969
 30
0.0
 11
-0.0346410161513776
 21
-0.02
 31
0.0
 12
0.0346410161513775
 22
-0.02
 32
0.0
 13
0.0346410161513775
 23
-0.02
 33
0.0
210
0.0
220
0.0
230
-1.0
  0
SOLID
  5
5DB
  8
0
  6
CONTINUOUS
 62
     7
 10
0.0378000327485867
 20
-0.0130827185326969
 30
0.0
 11
-0.0378000327485868
 21
-0.0130827185326969
 31
0.0
 12
-0.0346410161513776
 22
-0.02
 32
0.0
 13
-0.0346410161513776
 23
-0.02
 33
0.0
210
0.0
220
0.0
230
-1.0
  0
SOLID
  5
5DC
  8
0
  6
CONTINUOUS
 62
     7
 10
0.0346410161513775
 20
-0.02
 30
0.0
 11
-0.0302299829741703
 21
-0.0261944293578114
 31
0.0
 12
0.0302299829741703
 22
-0.0261944293578114
 32
0.0
 13
0.0302299829741703
 23
-0.0261944293578114
 33
0.0
210
0.0
220
0.0
230
-1.0
  0
SOLID
  5
5DD
  8
0
  6
CONTINUOUS
 62
     7
 10
0.0346410161513775
 20
-0.02
 30
0.0
 11
-0.0346410161513776
 21
-0.02
 31
0.0
 12
-0.0302299829741703
 22
-0.0261944293578114
 32
0.0
 13
-0.0302299829741703
 23
-0.0261944293578114
 33
0.0
210
0.0
220
0.0
230
-1.0
  0
SOLID
  5
5DE
  8
0
  6
CONTINUOUS
 62
     7
 10
0.0302299829741703
 20
-0.0261944293578114
 30
0.0
 11
-0.0247263594488242
 21
-0.0314421237897115
 31
0.0
 12
0.0247263594488242
 22
-0.0314421237897115
 32
0.0
 13
0.0247263594488242
 23
-0.0314421237897115
 33
0.0
210
0.0
220
0.0
230
-1.0
  0
SOLID
  5
5DF
  8
0
  6
CONTINUOUS
 62
     7
 10
0.0302299829741703
 20
-0.0261944293578114
 30
0.0
 11
-0.0302299829741703
 21
-0.0261944293578114
 31
0.0
 12
-0.0247263594488242
 22
-0.0314421237897115
 32
0.0
 13
-0.0247263594488242
 23
-0.0314421237897115
 33
0.0
210
0.0
220
0.0
230
-1.0
  0
SOLID
  5
5E0
  8
0
  6
CONTINUOUS
 62
     7
 10
0.0247263594488242
 20
-0.0314421237897115
 30
0.0
 11
-0.0183290608690964
 21
-0.035553417946197
 31
0.0
 12
0.0183290608690964
 22
-0.035553417946197
 32
0.0
 13
0.0183290608690964
 23
-0.035553417946197
 33
0.0
210
0.0
220
0.0
230
-1.0
  0
SOLID
  5
5E1
  8
0
  6
CONTINUOUS
 62
     7
 10
0.0247263594488242
 20
-0.0314421237897115
 30
0.0
 11
-0.0247263594488242
 21
-0.0314421237897115
 31
0.0
 12
-0.0183290608690964
 22
-0.035553417946197
 32
0.0
 13
-0.0183290608690964
 23
-0.035553417946197
 33
0.0
210
0.0
220
0.0
230
-1.0
  0
SOLID
  5
5E2
  8
0
  6
CONTINUOUS
 62
     7
 10
0.0183290608690964
 20
-0.035553417946197
 30
0.0
 11
-0.0112693022736572
 21
-0.0383797189445799
 31
0.0
 12
0.0112693022736572
 22
-0.0383797189445799
 32
0.0
 13
0.0112693022736572
 23
-0.0383797189445799
 33
0.0
210
0.0
220
0.0
230
-1.0
  0
SOLID
  5
5E3
  8
0
  6
CONTINUOUS
 62
     7
 10
0.0183290608690964
 20
-0.035553417946197
 30
0.0
 11
-0.0183290608690964
 21
-0.035553417946197
 31
0.0
 12
-0.0112693022736572
 22
-0.0383797189445799
 32
0.0
 13
-0.0112693022736572
 23
-0.0383797189445799
 33
0.0
210
0.0
220
0.0
230
-1.0
  0
SOLID
  5
5E4
  8
0
  6
CONTINUOUS
 62
     7
 10
0.0112693022736571
 20
-0.0383797189445799
 30
0.0
 11
-0.0038022417321673
 21
-0.0398188769029234
 31
0.0
 12
0.0038022417321673
 22
-0.0398188769029234
 32
0.0
 13
0.0038022417321673
 23
-0.0398188769029234
 33
0.0
210
0.0
220
0.0
230
-1.0
  0
SOLID
  5
5E5
  8
0
  6
CONTINUOUS
 62
     7
 10
0.0112693022736571
 20
-0.0383797189445799
 30
0.0
 11
-0.0112693022736572
 21
-0.0383797189445799
 31
0.0
 12
-0.0038022417321673
 22
-0.0398188769029234
 32
0.0
 13
-0.0038022417321673
 23
-0.0398188769029234
 33
0.0
210
0.0
220
0.0
230
-1.0
  0
LINE
  5
5E6
  8
0
  6
CONTINUOUS
 62
     7
 10
0.0
 20
0.04
 30
0.0
 11
0.0075700497744164
 21
0.0392771478905083
 31
0.0
  0
LINE
  5
5E7
  8
0
  6
CONTINUOUS
 62
     7
 10
-0.0075700497744165
 20
0.0392771478905083
 30
0.0
 11
0.0
 21
0.04
 31
0.0
  0
LINE
  5
5E8
  8
0
  6
CONTINUOUS
 62
     7
 10
-0.0148664982264132
 20
0.0371347173206429
 30
0.0
 11
-0.0075700497744164
 21
0.0392771478905083
 31
0.0
  0
LINE
  5
5E9
  8
0
  6
CONTINUOUS
 62
     7
 10
0.0075700497744164
 20
0.0392771478905083
 30
0.0
 11
0.0148664982264131
 21
0.0371347173206429
 31
0.0
  0
LINE
  5
5EA
  8
0
  6
CONTINUOUS
 62
     7
 10
-0.0216256326982239
 20
0.0336501413132472
 30
0.0
 11
-0.0148664982264131
 21
0.0371347173206429
 31
0.0
  0
LINE
  5
5EB
  8
0
  6
CONTINUOUS
 62
     7
 10
0.0148664982264131
 20
0.0371347173206429
 30
0.0
 11
0.0216256326982239
 21
0.0336501413132472
 31
0.0
  0
LINE
  5
5EC
  8
0
  6
CONTINUOUS
 62
     7
 10
-0.0276031604592845
 20
0.0289493615242028
 30
0.0
 11
-0.0216256326982239
 21
0.0336501413132472
 31
0.0
  0
LINE
  5
5ED
  8
0
  6
CONTINUOUS
 62
     7
 10
0.0216256326982239
 20
0.0336501413132472
 30
0.0
 11
0.0276031604592845
 21
0.0289493615242028
 31
0.0
  0
LINE
  5
5EE
  8
0
  6
CONTINUOUS
 62
     7
 10
-0.0325830380820135
 20
0.0232022763828479
 30
0.0
 11
-0.0276031604592845
 21
0.0289493615242028
 31
0.0
  0
LINE
  5
5EF
  8
0
  6
CONTINUOUS
 62
     7
 10
0.0276031604592845
 20
0.0289493615242028
 30
0.0
 11
0.0325830380820135
 21
0.0232022763828479
 31
0.0
  0
LINE
  5
5F0
  8
0
  6
CONTINUOUS
 62
     7
 10
-0.0363852798141808
 20
0.0166166005200754
 30
0.0
 11
-0.0325830380820135
 21
0.0232022763828479
 31
0.0
  0
LINE
  5
5F1
  8
0
  6
CONTINUOUS
 62
     7
 10
0.0325830380820135
 20
0.0232022763828479
 30
0.0
 11
0.0363852798141808
 21
0.0166166005200754
 31
0.0
  0
LINE
  5
5F2
  8
0
  6
CONTINUOUS
 62
     7
 10
-0.0388724627329417
 20
0.0094303574203771
 30
0.0
 11
-0.0363852798141807
 21
0.0166166005200754
 31
0.0
  0
LINE
  5
5F3
  8
0
  6
CONTINUOUS
 62
     7
 10
0.0363852798141808
 20
0.0166166005200754
 30
0.0
 11
0.0388724627329417
 21
0.0094303574203771
 31
0.0
  0
LINE
  5
5F4
  8
0
  6
CONTINUOUS
 62
     7
 10
-0.0399546935673203
 20
0.0019032766329497
 30
0.0
 11
-0.0388724627329417
 21
0.0094303574203771
 31
0.0
  0
LINE
  5
5F5
  8
0
  6
CONTINUOUS
 62
     7
 10
0.0388724627329417
 20
0.0094303574203771
 30
0.0
 11
0.0399546935673203
 21
0.0019032766329497
 31
0.0
  0
LINE
  5
5F6
  8
0
  6
CONTINUOUS
 62
     7
 10
-0.0395928576752373
 20
-0.0056925935309314
 30
0.0
 11
-0.0399546935673203
 21
0.0019032766329497
 31
0.0
  0
LINE
  5
5F7
  8
0
  6
CONTINUOUS
 62
     7
 10
0.0399546935673203
 20
0.0019032766329497
 30
0.0
 11
0.0395928576752373
 21
-0.0056925935309314
 31
0.0
  0
LINE
  5
5F8
  8
0
  6
CONTINUOUS
 62
     7
 10
-0.0378000327485867
 20
-0.0130827185326969
 30
0.0
 11
-0.0395928576752373
 21
-0.0056925935309314
 31
0.0
  0
LINE
  5
5F9
  8
0
  6
CONTINUOUS
 62
     7
 10
0.0395928576752373
 20
-0.0056925935309314
 30
0.0
 11
0.0378000327485868
 21
-0.0130827185326969
 31
0.0
  0
LINE
  5
5FA
  8
0
  6
CONTINUOUS
 62
     7
 10
-0.0346410161513775
 20
-0.02
 30
0.0
 11
-0.0378000327485867
 21
-0.0130827185326969
 31
0.0
  0
LINE
  5
5FB
  8
0
  6
CONTINUOUS
 62
     7
 10
0.0378000327485868
 20
-0.0130827185326969
 30
0.0
 11
0.0346410161513776
 21
-0.02
 31
0.0
  0
LINE
  5
5FC
  8
0
  6
CONTINUOUS
 62
     7
 10
-0.0302299829741703
 20
-0.0261944293578114
 30
0.0
 11
-0.0346410161513775
 21
-0.02
 31
0.0
  0
LINE
  5
5FD
  8
0
  6
CONTINUOUS
 62
     7
 10
0.0346410161513776
 20
-0.02
 30
0.0
 11
0.0302299829741703
 21
-0.0261944293578114
 31
0.0
  0
LINE
  5
5FE
  8
0
  6
CONTINUOUS
 62
     7
 10
-0.0247263594488242
 20
-0.0314421237897115
 30
0.0
 11
-0.0302299829741703
 21
-0.0261944293578114
 31
0.0
  0
LINE
  5
5FF
  8
0
  6
CONTINUOUS
 62
     7
 10
0.0302299829741703
 20
-0.0261944293578114
 30
0.0
 11
0.0247263594488242
 21
-0.0314421237897115
 31
0.0
  0
LINE
  5
600
  8
0
  6
CONTINUOUS
 62
     7
 10
-0.0183290608690964
 20
-0.035553417946197
 30
0.0
 11
-0.0247263594488242
 21
-0.0314421237897115
 31
0.0
  0
LINE
  5
601
  8
0
  6
CONTINUOUS
 62
     7
 10
0.0247263594488242
 20
-0.0314421237897115
 30
0.0
 11
0.0183290608690964
 21
-0.035553417946197
 31
0.0
  0
LINE
  5
602
  8
0
  6
CONTINUOUS
 62
     7
 10
-0.0112693022736572
 20
-0.0383797189445799
 30
0.0
 11
-0.0183290608690964
 21
-0.035553417946197
 31
0.0
  0
LINE
  5
603
  8
0
  6
CONTINUOUS
 62
     7
 10
0.0183290608690964
 20
-0.035553417946197
 30
0.0
 11
0.0112693022736572
 21
-0.0383797189445799
 31
0.0
  0
LINE
  5
604
  8
0
  6
CONTINUOUS
 62
     7
 10
-0.0038022417321673
 20
-0.0398188769029234
 30
0.0
 11
-0.0112693022736571
 21
-0.0383797189445799
 31
0.0
  0
LINE
  5
605
  8
0
  6
CONTINUOUS
 62
     7
 10
0.0112693022736572
 20
-0.0383797189445799
 30
0.0
 11
0.0038022417321673
 21
-0.0398188769029234
 31
0.0
  0
ENDBLK
  5
607
  8
0
  0
BLOCK
  8
0
  2
*U11
 70
     1
 10
0.0
 20
0.0
 30
0.0
  3
*U11
  1

  0
SOLID
  5
609
  8
0
  6
CONTINUOUS
 62
     7
 10
0.0
 20
1.3
 30
0.0
 11
-0.2460266176685341
 21
1.276507306441518
 31
0.0
 12
0.2460266176685332
 22
1.276507306441518
 32
0.0
 13
0.2460266176685332
 23
1.276507306441518
 33
0.0
210
0.0
220
0.0
230
-1.0
  0
SOLID
  5
60A
  8
0
  6
CONTINUOUS
 62
     7
 10
0.2460266176685332
 20
1.276507306441518
 30
0.0
 11
-0.4831611923584266
 21
1.206878312920894
 31
0.0
 12
0.4831611923584265
 22
1.206878312920894
 32
0.0
 13
0.4831611923584265
 23
1.206878312920894
 33
0.0
210
0.0
220
0.0
230
-1.0
  0
SOLID
  5
60B
  8
0
  6
CONTINUOUS
 62
     7
 10
0.2460266176685332
 20
1.276507306441518
 30
0.0
 11
-0.2460266176685341
 21
1.276507306441518
 31
0.0
 12
-0.4831611923584266
 22
1.206878312920894
 32
0.0
 13
-0.4831611923584266
 23
1.206878312920894
 33
0.0
210
0.0
220
0.0
230
-1.0
  0
SOLID
  5
60C
  8
0
  6
CONTINUOUS
 62
     7
 10
0.4831611923584262
 20
1.206878312920894
 30
0.0
 11
-0.6904761964276063
 21
1.1000000000000001
 31
0.0
 12
0.6904761964276059
 22
1.1000000000000001
 32
0.0
 13
0.6904761964276059
 23
1.1000000000000001
 33
0.0
210
0.0
220
0.0
230
-1.0
  0
SOLID
  5
60D
  8
0
  6
CONTINUOUS
 62
     7
 10
0.4831611923584262
 20
1.206878312920894
 30
0.0
 11
-0.4831611923584266
 21
1.206878312920894
 31
0.0
 12
-0.6904761964276063
 22
1.1000000000000001
 32
0.0
 13
-0.6904761964276063
 23
1.1000000000000001
 33
0.0
210
0.0
220
0.0
230
-1.0
  0
SOLID
  5
60E
  8
0
  6
CONTINUOUS
 62
     7
 10
0.0
 20
1.1000000000000001
 30
0.0
 11
-0.7028330626922776
 21
1.0936295926805351
 31
0.0
 12
-0.0667139237174861
 22
1.0936295926805351
 32
0.0
 13
-0.0667139237174861
 23
1.0936295926805351
 33
0.0
210
0.0
220
0.0
230
-1.0
  0
SOLID
  5
60F
  8
0
  6
CONTINUOUS
 62
     7
 10
0.0
 20
1.1000000000000001
 30
0.0
 11
-0.6904761964276063
 21
1.1000000000000001
 31
0.0
 12
-0.7028330626922776
 22
1.0936295926805351
 32
0.0
 13
-0.7028330626922776
 23
1.0936295926805351
 33
0.0
210
0.0
220
0.0
230
-1.0
  0
SOLID
  5
610
  8
0
  6
CONTINUOUS
 62
     7
 10
0.6904761964276059
 20
1.1000000000000001
 30
0.0
 11
0.0667139237174859
 21
1.0936295926805351
 31
0.0
 12
0.7028330626922772
 22
1.0936295926805351
 32
0.0
 13
0.7028330626922772
 23
1.0936295926805351
 33
0.0
210
0.0
220
0.0
230
-1.0
  0
SOLID
  5
611
  8
0
  6
CONTINUOUS
 62
     7
 10
0.6904761964276059
 20
1.1000000000000001
 30
0.0
 11
0.0
 21
1.1000000000000001
 31
0.0
 12
0.0667139237174859
 22
1.0936295926805351
 32
0.0
 13
0.0667139237174859
 23
1.0936295926805351
 33
0.0
210
0.0
220
0.0
230
-1.0
  0
SOLID
  5
612
  8
0
  6
CONTINUOUS
 62
     7
 10
-0.0667139237174861
 20
1.0936295926805351
 30
0.0
 11
-0.7200099146598146
 21
1.080121566988977
 31
0.0
 12
-0.2081763687964519
 22
1.080121566988977
 32
0.0
 13
-0.2081763687964519
 23
1.080121566988977
 33
0.0
210
0.0
220
0.0
230
-1.0
  0
SOLID
  5
613
  8
0
  6
CONTINUOUS
 62
     7
 10
-0.0667139237174861
 20
1.0936295926805351
 30
0.0
 11
-0.7028330626922776
 21
1.0936295926805351
 31
0.0
 12
-0.7200099146598146
 22
1.080121566988977
 32
0.0
 13
-0.7200099146598146
 23
1.080121566988977
 33
0.0
210
0.0
220
0.0
230
-1.0
  0
SOLID
  5
614
  8
0
  6
CONTINUOUS
 62
     7
 10
0.7028330626922771
 20
1.0936295926805351
 30
0.0
 11
0.2081763687964512
 21
1.080121566988977
 31
0.0
 12
0.7200099146598142
 22
1.080121566988977
 32
0.0
 13
0.7200099146598142
 23
1.080121566988977
 33
0.0
210
0.0
220
0.0
230
-1.0
  0
SOLID
  5
615
  8
0
  6
CONTINUOUS
 62
     7
 10
0.7028330626922771
 20
1.0936295926805351
 30
0.0
 11
0.0667139237174859
 21
1.0936295926805351
 31
0.0
 12
0.2081763687964512
 22
1.080121566988977
 32
0.0
 13
0.2081763687964512
 23
1.080121566988977
 33
0.0
210
0.0
220
0.0
230
-1.0
  0
SOLID
  5
616
  8
0
  6
CONTINUOUS
 62
     7
 10
-0.2081763687964519
 20
1.080121566988977
 30
0.0
 11
-0.7949287720645886
 21
1.0212047263176789
 31
0.0
 12
-0.4088287012263617
 22
1.0212047263176789
 32
0.0
 13
-0.4088287012263617
 23
1.0212047263176789
 33
0.0
210
0.0
220
0.0
230
-1.0
  0
SOLID
  5
617
  8
0
  6
CONTINUOUS
 62
     7
 10
-0.2081763687964519
 20
1.080121566988977
 30
0.0
 11
-0.7200099146598146
 21
1.080121566988977
 31
0.0
 12
-0.7949287720645886
 22
1.0212047263176789
 32
0.0
 13
-0.7949287720645886
 23
1.0212047263176789
 33
0.0
210
0.0
220
0.0
230
-1.0
  0
SOLID
  5
618
  8
0
  6
CONTINUOUS
 62
     7
 10
0.7200099146598142
 20
1.080121566988977
 30
0.0
 11
0.4088287012263603
 21
1.0212047263176789
 31
0.0
 12
0.7949287720645883
 22
1.0212047263176789
 32
0.0
 13
0.7949287720645883
 23
1.0212047263176789
 33
0.0
210
0.0
220
0.0
230
-1.0
  0
SOLID
  5
619
  8
0
  6
CONTINUOUS
 62
     7
 10
0.7200099146598142
 20
1.080121566988977
 30
0.0
 11
0.2081763687964512
 21
1.080121566988977
 31
0.0
 12
0.4088287012263603
 22
1.0212047263176789
 32
0.0
 13
0.4088287012263603
 23
1.0212047263176789
 33
0.0
210
0.0
220
0.0
230
-1.0
  0
SOLID
  5
61A
  8
0
  6
CONTINUOUS
 62
     7
 10
-0.4088287012263614
 20
1.0212047263176789
 30
0.0
 11
-0.897102714926746
 21
0.9408542495365907
 31
0.0
 12
-0.564686882045152
 22
0.9408542495365907
 32
0.0
 13
-0.564686882045152
 23
0.9408542495365907
 33
0.0
210
0.0
220
0.0
230
-1.0
  0
SOLID
  5
61B
  8
0
  6
CONTINUOUS
 62
     7
 10
-0.4088287012263614
 20
1.0212047263176789
 30
0.0
 11
-0.7949287720645886
 21
1.0212047263176789
 31
0.0
 12
-0.897102714926746
 22
0.9408542495365907
 32
0.0
 13
-0.897102714926746
 23
0.9408542495365907
 33
0.0
210
0.0
220
0.0
230
-1.0
  0
SOLID
  5
61C
  8
0
  6
CONTINUOUS
 62
     7
 10
0.7949287720645883
 20
1.0212047263176789
 30
0.0
 11
0.5646868820451508
 21
0.9408542495365907
 31
0.0
 12
0.897102714926746
 22
0.9408542495365907
 32
0.0
 13
0.897102714926746
 23
0.9408542495365907
 33
0.0
210
0.0
220
0.0
230
-1.0
  0
SOLID
  5
61D
  8
0
  6
CONTINUOUS
 62
     7
 10
0.7949287720645883
 20
1.0212047263176789
 30
0.0
 11
0.4088287012263603
 21
1.0212047263176789
 31
0.0
 12
0.5646868820451508
 22
0.9408542495365907
 32
0.0
 13
0.5646868820451508
 23
0.9408542495365907
 33
0.0
210
0.0
220
0.0
230
-1.0
  0
SOLID
  5
61E
  8
0
  6
CONTINUOUS
 62
     7
 10
-0.564686882045152
 20
0.9408542495365907
 30
0.0
 11
-0.9105121936650583
 21
0.9253788861142989
 31
0.0
 12
-0.5947048992011587
 22
0.9253788861142989
 32
0.0
 13
-0.5947048992011587
 23
0.9253788861142989
 33
0.0
210
0.0
220
0.0
230
-1.0
  0
SOLID
  5
61F
  8
0
  6
CONTINUOUS
 62
     7
 10
-0.564686882045152
 20
0.9408542495365907
 30
0.0
 11
-0.897102714926746
 21
0.9408542495365907
 31
0.0
 12
-0.9105121936650583
 22
0.9253788861142989
 32
0.0
 13
-0.9105121936650583
 23
0.9253788861142989
 33
0.0
210
0.0
220
0.0
230
-1.0
  0
SOLID
  5
620
  8
0
  6
CONTINUOUS
 62
     7
 10
0.8971027149267458
 20
0.9408542495365907
 30
0.0
 11
0.5947048992011573
 21
0.9253788861142989
 31
0.0
 12
0.9105121936650581
 22
0.9253788861142989
 32
0.0
 13
0.9105121936650581
 23
0.9253788861142989
 33
0.0
210
0.0
220
0.0
230
-1.0
  0
SOLID
  5
621
  8
0
  6
CONTINUOUS
 62
     7
 10
0.8971027149267458
 20
0.9408542495365907
 30
0.0
 11
0.5646868820451508
 21
0.9408542495365907
 31
0.0
 12
0.5947048992011573
 22
0.9253788861142989
 32
0.0
 13
0.5947048992011573
 23
0.9253788861142989
 33
0.0
210
0.0
220
0.0
230
-1.0
  0
SOLID
  5
622
  8
0
  6
CONTINUOUS
 62
     7
 10
-0.5947048992011585
 20
0.9253788861142989
 30
0.0
 11
-1.022526537700216
 21
0.7961074419155771
 31
0.0
 12
-0.759086912630324
 22
0.7961074419155771
 32
0.0
 13
-0.759086912630324
 23
0.7961074419155771
 33
0.0
210
0.0
220
0.0
230
-1.0
  0
SOLID
  5
623
  8
0
  6
CONTINUOUS
 62
     7
 10
-0.5947048992011585
 20
0.9253788861142989
 30
0.0
 11
-0.9105121936650583
 21
0.9253788861142989
 31
0.0
 12
-1.022526537700216
 22
0.7961074419155771
 32
0.0
 13
-1.022526537700216
 23
0.7961074419155771
 33
0.0
210
0.0
220
0.0
230
-1.0
  0
SOLID
  5
624
  8
0
  6
CONTINUOUS
 62
     7
 10
0.9105121936650581
 20
0.9253788861142989
 30
0.0
 11
0.7590869126303232
 21
0.7961074419155771
 31
0.0
 12
1.0225265377002151
 22
0.7961074419155771
 32
0.0
 13
1.0225265377002151
 23
0.7961074419155771
 33
0.0
210
0.0
220
0.0
230
-1.0
  0
SOLID
  5
625
  8
0
  6
CONTINUOUS
 62
     7
 10
0.9105121936650581
 20
0.9253788861142989
 30
0.0
 11
0.5947048992011573
 21
0.9253788861142989
 31
0.0
 12
0.7590869126303232
 22
0.7961074419155771
 32
0.0
 13
0.7590869126303232
 23
0.7961074419155771
 33
0.0
210
0.0
220
0.0
230
-1.0
  0
SOLID
  5
626
  8
0
  6
CONTINUOUS
 62
     7
 10
-0.759086912630324
 20
0.7961074419155771
 30
0.0
 11
-1.0589487376654361
 21
0.7540739824425572
 31
0.0
 12
-0.7955091125955445
 22
0.7540739824425572
 32
0.0
 13
-0.7955091125955445
 23
0.7540739824425572
 33
0.0
210
0.0
220
0.0
230
-1.0
  0
SOLID
  5
627
  8
0
  6
CONTINUOUS
 62
     7
 10
-0.759086912630324
 20
0.7961074419155771
 30
0.0
 11
-1.022526537700216
 21
0.7961074419155771
 31
0.0
 12
-1.0589487376654361
 22
0.7540739824425572
 32
0.0
 13
-1.0589487376654361
 23
0.7540739824425572
 33
0.0
210
0.0
220
0.0
230
-1.0
  0
SOLID
  5
628
  8
0
  6
CONTINUOUS
 62
     7
 10
1.0225265377002151
 20
0.7961074419155771
 30
0.0
 11
0.7955091125955438
 21
0.7540739824425572
 31
0.0
 12
1.0589487376654361
 22
0.7540739824425572
 32
0.0
 13
1.0589487376654361
 23
0.7540739824425572
 33
0.0
210
0.0
220
0.0
230
-1.0
  0
SOLID
  5
629
  8
0
  6
CONTINUOUS
 62
     7
 10
1.0225265377002151
 20
0.7961074419155771
 30
0.0
 11
0.7590869126303232
 21
0.7961074419155771
 31
0.0
 12
0.7955091125955438
 22
0.7540739824425572
 32
0.0
 13
0.7955091125955438
 23
0.7540739824425572
 33
0.0
210
0.0
220
0.0
230
-1.0
  0
SOLID
  5
62A
  8
0
  6
CONTINUOUS
 62
     7
 10
-0.7955091125955445
 20
0.7540739824425572
 30
0.0
 11
-1.1259279402426829
 21
0.6380626005283178
 31
0.0
 12
-0.8960335472553698
 22
0.6380626005283178
 32
0.0
 13
-0.8960335472553698
 23
0.6380626005283178
 33
0.0
210
0.0
220
0.0
230
-1.0
  0
SOLID
  5
62B
  8
0
  6
CONTINUOUS
 62
     7
 10
-0.7955091125955445
 20
0.7540739824425572
 30
0.0
 11
-1.0589487376654361
 21
0.7540739824425572
 31
0.0
 12
-1.1259279402426829
 22
0.6380626005283178
 32
0.0
 13
-1.1259279402426829
 23
0.6380626005283178
 33
0.0
210
0.0
220
0.0
230
-1.0
  0
SOLID
  5
62C
  8
0
  6
CONTINUOUS
 62
     7
 10
1.0589487376654361
 20
0.7540739824425572
 30
0.0
 11
0.8960335472553692
 21
0.6380626005283178
 31
0.0
 12
1.1259279402426829
 22
0.6380626005283178
 32
0.0
 13
1.1259279402426829
 23
0.6380626005283178
 33
0.0
210
0.0
220
0.0
230
-1.0
  0
SOLID
  5
62D
  8
0
  6
CONTINUOUS
 62
     7
 10
1.0589487376654361
 20
0.7540739824425572
 30
0.0
 11
0.7955091125955438
 21
0.7540739824425572
 31
0.0
 12
0.8960335472553692
 22
0.6380626005283178
 32
0.0
 13
0.8960335472553692
 23
0.6380626005283178
 33
0.0
210
0.0
220
0.0
230
-1.0
  0
SOLID
  5
62E
  8
0
  6
CONTINUOUS
 62
     7
 10
-0.8960335472553698
 20
0.6380626005283178
 30
0.0
 11
-1.182521593960874
 21
0.5400395169024519
 31
0.0
 12
-0.9526272009735606
 22
0.5400395169024519
 32
0.0
 13
-0.9526272009735606
 23
0.5400395169024519
 33
0.0
210
0.0
220
0.0
230
-1.0
  0
SOLID
  5
62F
  8
0
  6
CONTINUOUS
 62
     7
 10
-0.8960335472553698
 20
0.6380626005283178
 30
0.0
 11
-1.1259279402426829
 21
0.6380626005283178
 31
0.0
 12
-1.182521593960874
 22
0.5400395169024519
 32
0.0
 13
-1.182521593960874
 23
0.5400395169024519
 33
0.0
210
0.0
220
0.0
230
-1.0
  0
SOLID
  5
630
  8
0
  6
CONTINUOUS
 62
     7
 10
1.1259279402426829
 20
0.6380626005283178
 30
0.0
 11
0.9526272009735601
 21
0.5400395169024519
 31
0.0
 12
1.182521593960874
 22
0.5400395169024519
 32
0.0
 13
1.182521593960874
 23
0.5400395169024519
 33
0.0
210
0.0
220
0.0
230
-1.0
  0
SOLID
  5
631
  8
0
  6
CONTINUOUS
 62
     7
 10
1.1259279402426829
 20
0.6380626005283178
 30
0.0
 11
0.8960335472553692
 21
0.6380626005283178
 31
0.0
 12
0.9526272009735601
 22
0.5400395169024519
 32
0.0
 13
0.9526272009735601
 23
0.5400395169024519
 33
0.0
210
0.0
220
0.0
230
-1.0
  0
SOLID
  5
632
  8
0
  6
CONTINUOUS
 62
     7
 10
-0.9526272009735606
 20
0.5400395169024519
 30
0.0
 11
-1.2112769007380271
 21
0.4569565143020748
 31
0.0
 12
-1.0005951948899701
 22
0.4569565143020748
 32
0.0
 13
-1.0005951948899701
 23
0.4569565143020748
 33
0.0
210
0.0
220
0.0
230
-1.0
  0
SOLID
  5
633
  8
0
  6
CONTINUOUS
 62
     7
 10
-0.9526272009735606
 20
0.5400395169024519
 30
0.0
 11
-1.182521593960874
 21
0.5400395169024519
 31
0.0
 12
-1.2112769007380271
 22
0.4569565143020748
 32
0.0
 13
-1.2112769007380271
 23
0.4569565143020748
 33
0.0
210
0.0
220
0.0
230
-1.0
  0
SOLID
  5
634
  8
0
  6
CONTINUOUS
 62
     7
 10
1.1825215939608731
 20
0.5400395169024519
 30
0.0
 11
1.0005951948899701
 21
0.4569565143020748
 31
0.0
 12
1.2112769007380271
 22
0.4569565143020748
 32
0.0
 13
1.2112769007380271
 23
0.4569565143020748
 33
0.0
210
0.0
220
0.0
230
-1.0
  0
SOLID
  5
635
  8
0
  6
CONTINUOUS
 62
     7
 10
1.1825215939608731
 20
0.5400395169024519
 30
0.0
 11
0.9526272009735601
 21
0.5400395169024519
 31
0.0
 12
1.0005951948899701
 22
0.4569565143020748
 32
0.0
 13
1.0005951948899701
 23
0.4569565143020748
 33
0.0
210
0.0
220
0.0
230
-1.0
  0
SOLID
  5
636
  8
0
  6
CONTINUOUS
 62
     7
 10
-1.0005951948899701
 20
0.4569565143020748
 30
0.0
 11
-1.2633550388206041
 21
0.3064866161622549
 31
0.0
 12
-1.0526733329725471
 22
0.3064866161622549
 32
0.0
 13
-1.0526733329725471
 23
0.3064866161622549
 33
0.0
210
0.0
220
0.0
230
-1.0
  0
SOLID
  5
637
  8
0
  6
CONTINUOUS
 62
     7
 10
-1.0005951948899701
 20
0.4569565143020748
 30
0.0
 11
-1.2112769007380271
 21
0.4569565143020748
 31
0.0
 12
-1.2633550388206041
 22
0.3064866161622549
 32
0.0
 13
-1.2633550388206041
 23
0.3064866161622549
 33
0.0
210
0.0
220
0.0
230
-1.0
  0
SOLID
  5
638
  8
0
  6
CONTINUOUS
 62
     7
 10
1.2112769007380271
 20
0.4569565143020748
 30
0.0
 11
1.0526733329725471
 21
0.3064866161622549
 31
0.0
 12
1.2633550388206041
 22
0.3064866161622549
 32
0.0
 13
1.2633550388206041
 23
0.3064866161622549
 33
0.0
210
0.0
220
0.0
230
-1.0
  0
SOLID
  5
639
  8
0
  6
CONTINUOUS
 62
     7
 10
1.2112769007380271
 20
0.4569565143020748
 30
0.0
 11
1.0005951948899701
 21
0.4569565143020748
 31
0.0
 12
1.0526733329725471
 22
0.3064866161622549
 32
0.0
 13
1.0526733329725471
 23
0.3064866161622549
 33
0.0
210
0.0
220
0.0
230
-1.0
  0
SOLID
  5
63A
  8
0
  6
CONTINUOUS
 62
     7
 10
-1.0526733329725471
 20
0.3064866161622549
 30
0.0
 11
-1.2701344423289269
 21
0.2593348290603695
 31
0.0
 12
-1.0689927251558959
 22
0.2593348290603695
 32
0.0
 13
-1.0689927251558959
 23
0.2593348290603695
 33
0.0
210
0.0
220
0.0
230
-1.0
  0
SOLID
  5
63B
  8
0
  6
CONTINUOUS
 62
     7
 10
-1.0526733329725471
 20
0.3064866161622549
 30
0.0
 11
-1.2633550388206041
 21
0.3064866161622549
 31
0.0
 12
-1.2701344423289269
 22
0.2593348290603695
 32
0.0
 13
-1.2701344423289269
 23
0.2593348290603695
 33
0.0
210
0.0
220
0.0
230
-1.0
  0
SOLID
  5
63C
  8
0
  6
CONTINUOUS
 62
     7
 10
1.2633550388206041
 20
0.3064866161622549
 30
0.0
 11
1.0689927251558951
 21
0.2593348290603695
 31
0.0
 12
1.2701344423289269
 22
0.2593348290603695
 32
0.0
 13
1.2701344423289269
 23
0.2593348290603695
 33
0.0
210
0.0
220
0.0
230
-1.0
  0
SOLID
  5
63D
  8
0
  6
CONTINUOUS
 62
     7
 10
1.2633550388206041
 20
0.3064866161622549
 30
0.0
 11
1.0526733329725471
 21
0.3064866161622549
 31
0.0
 12
1.0689927251558951
 22
0.2593348290603695
 32
0.0
 13
1.0689927251558951
 23
0.2593348290603695
 33
0.0
210
0.0
220
0.0
230
-1.0
  0
SOLID
  5
63E
  8
0
  6
CONTINUOUS
 62
     7
 10
-1.0689927251558959
 20
0.2593348290603695
 30
0.0
 11
-1.29852754093791
 21
0.0618564905708645
 31
0.0
 12
-1.097385823764879
 22
0.0618564905708645
 32
0.0
 13
-1.097385823764879
 23
0.0618564905708645
 33
0.0
210
0.0
220
0.0
230
-1.0
  0
SOLID
  5
63F
  8
0
  6
CONTINUOUS
 62
     7
 10
-1.0689927251558959
 20
0.2593348290603695
 30
0.0
 11
-1.2701344423289269
 21
0.2593348290603695
 31
0.0
 12
-1.29852754093791
 22
0.0618564905708645
 32
0.0
 13
-1.29852754093791
 23
0.0618564905708645
 33
0.0
210
0.0
220
0.0
230
-1.0
  0
SOLID
  5
640
  8
0
  6
CONTINUOUS
 62
     7
 10
1.2701344423289269
 20
0.2593348290603695
 30
0.0
 11
1.0973858237648779
 21
0.0618564905708645
 31
0.0
 12
1.29852754093791
 22
0.0618564905708645
 32
0.0
 13
1.29852754093791
 23
0.0618564905708645
 33
0.0
210
0.0
220
0.0
230
-1.0
  0
SOLID
  5
641
  8
0
  6
CONTINUOUS
 62
     7
 10
1.2701344423289269
 20
0.2593348290603695
 30
0.0
 11
1.0689927251558951
 21
0.2593348290603695
 31
0.0
 12
1.0973858237648779
 22
0.0618564905708645
 32
0.0
 13
1.0973858237648779
 23
0.0618564905708645
 33
0.0
210
0.0
220
0.0
230
-1.0
  0
SOLID
  5
642
  8
0
  6
CONTINUOUS
 62
     7
 10
-1.097385823764879
 20
0.0618564905708645
 30
0.0
 11
-1.2980742197360551
 21
0.0523401074061161
 31
0.0
 12
-1.098754073101309
 22
0.0523401074061161
 32
0.0
 13
-1.098754073101309
 23
0.0523401074061161
 33
0.0
210
0.0
220
0.0
230
-1.0
  0
SOLID
  5
643
  8
0
  6
CONTINUOUS
 62
     7
 10
-1.097385823764879
 20
0.0618564905708645
 30
0.0
 11
-1.29852754093791
 21
0.0618564905708645
 31
0.0
 12
-1.2980742197360551
 22
0.0523401074061161
 32
0.0
 13
-1.2980742197360551
 23
0.0523401074061161
 33
0.0
210
0.0
220
0.0
230
-1.0
  0
SOLID
  5
644
  8
0
  6
CONTINUOUS
 62
     7
 10
1.29852754093791
 20
0.0618564905708645
 30
0.0
 11
1.0987540731013079
 21
0.0523401074061161
 31
0.0
 12
1.298074219736056
 22
0.0523401074061161
 32
0.0
 13
1.298074219736056
 23
0.0523401074061161
 33
0.0
210
0.0
220
0.0
230
-1.0
  0
SOLID
  5
645
  8
0
  6
CONTINUOUS
 62
     7
 10
1.29852754093791
 20
0.0618564905708645
 30
0.0
 11
1.0973858237648779
 21
0.0618564905708645
 31
0.0
 12
1.0987540731013079
 22
0.0523401074061161
 32
0.0
 13
1.0987540731013079
 23
0.0523401074061161
 33
0.0
210
0.0
220
0.0
230
-1.0
  0
SOLID
  5
646
  8
0
  6
CONTINUOUS
 62
     7
 10
-1.098754073101309
 20
0.0523401074061161
 30
0.0
 11
-1.2881237327037729
 21
-0.1565463221006141
 31
0.0
 12
-1.0888035860690259
 22
-0.1565463221006141
 32
0.0
 13
-1.0888035860690259
 23
-0.1565463221006141
 33
0.0
210
0.0
220
0.0
230
-1.0
  0
SOLID
  5
647
  8
0
  6
CONTINUOUS
 62
     7
 10
-1.098754073101309
 20
0.0523401074061161
 30
0.0
 11
-1.2980742197360551
 21
0.0523401074061161
 31
0.0
 12
-1.2881237327037729
 22
-0.1565463221006141
 32
0.0
 13
-1.2881237327037729
 23
-0.1565463221006141
 33
0.0
210
0.0
220
0.0
230
-1.0
  0
SOLID
  5
648
  8
0
  6
CONTINUOUS
 62
     7
 10
1.298074219736056
 20
0.0523401074061161
 30
0.0
 11
1.0888035860690251
 21
-0.1565463221006141
 31
0.0
 12
1.2881237327037729
 22
-0.1565463221006141
 32
0.0
 13
1.2881237327037729
 23
-0.1565463221006141
 33
0.0
210
0.0
220
0.0
230
-1.0
  0
SOLID
  5
649
  8
0
  6
CONTINUOUS
 62
     7
 10
1.298074219736056
 20
0.0523401074061161
 30
0.0
 11
1.0987540731013079
 21
0.0523401074061161
 31
0.0
 12
1.0888035860690251
 22
-0.1565463221006141
 32
0.0
 13
1.0888035860690251
 23
-0.1565463221006141
 33
0.0
210
0.0
220
0.0
230
-1.0
  0
SOLID
  5
64A
  8
0
  6
CONTINUOUS
 62
     7
 10
0.1725
 20
0.1725
 30
0.0
 11
-0.1725
 21
-0.1725
 31
0.0
 12
0.1725
 22
-0.1725
 32
0.0
 13
0.1725
 23
-0.1725
 33
0.0
210
0.0
220
0.0
230
-1.0
  0
SOLID
  5
64B
  8
0
  6
CONTINUOUS
 62
     7
 10
0.1725
 20
0.1725
 30
0.0
 11
-0.1725
 21
0.1725
 31
0.0
 12
-0.1725
 22
-0.1725
 32
0.0
 13
-0.1725
 23
-0.1725
 33
0.0
210
0.0
220
0.0
230
-1.0
  0
SOLID
  5
64C
  8
0
  6
CONTINUOUS
 62
     7
 10
-1.0888035860690259
 20
-0.1565463221006141
 30
0.0
 11
-1.286767874445212
 21
-0.1850092897552711
 31
0.0
 12
-1.081898544830139
 22
-0.1850092897552711
 32
0.0
 13
-1.081898544830139
 23
-0.1850092897552711
 33
0.0
210
0.0
220
0.0
230
-1.0
  0
SOLID
  5
64D
  8
0
  6
CONTINUOUS
 62
     7
 10
-1.0888035860690259
 20
-0.1565463221006141
 30
0.0
 11
-1.2881237327037729
 21
-0.1565463221006141
 31
0.0
 12
-1.286767874445212
 22
-0.1850092897552711
 32
0.0
 13
-1.286767874445212
 23
-0.1850092897552711
 33
0.0
210
0.0
220
0.0
230
-1.0
  0
SOLID
  5
64E
  8
0
  6
CONTINUOUS
 62
     7
 10
1.2881237327037729
 20
-0.1565463221006141
 30
0.0
 11
1.081898544830139
 21
-0.1850092897552711
 31
0.0
 12
1.286767874445212
 22
-0.1850092897552711
 32
0.0
 13
1.286767874445212
 23
-0.1850092897552711
 33
0.0
210
0.0
220
0.0
230
-1.0
  0
SOLID
  5
64F
  8
0
  6
CONTINUOUS
 62
     7
 10
1.2881237327037729
 20
-0.1565463221006141
 30
0.0
 11
1.0888035860690251
 21
-0.1565463221006141
 31
0.0
 12
1.081898544830139
 22
-0.1850092897552711
 32
0.0
 13
1.081898544830139
 23
-0.1850092897552711
 33
0.0
210
0.0
220
0.0
230
-1.0
  0
SOLID
  5
650
  8
0
  6
CONTINUOUS
 62
     7
 10
-1.081898544830139
 20
-0.1850092897552711
 30
0.0
 11
-1.2443702302012081
 21
-0.3597747596491643
 31
0.0
 12
-1.0395009005861351
 22
-0.3597747596491643
 32
0.0
 13
-1.0395009005861351
 23
-0.3597747596491643
 33
0.0
210
0.0
220
0.0
230
-1.0
  0
SOLID
  5
651
  8
0
  6
CONTINUOUS
 62
     7
 10
-1.081898544830139
 20
-0.1850092897552711
 30
0.0
 11
-1.286767874445212
 21
-0.1850092897552711
 31
0.0
 12
-1.2443702302012081
 22
-0.3597747596491643
 32
0.0
 13
-1.2443702302012081
 23
-0.3597747596491643
 33
0.0
210
0.0
220
0.0
230
-1.0
  0
SOLID
  5
652
  8
0
  6
CONTINUOUS
 62
     7
 10
1.286767874445212
 20
-0.1850092897552711
 30
0.0
 11
1.0395009005861351
 21
-0.3597747596491643
 31
0.0
 12
1.2443702302012081
 22
-0.3597747596491643
 32
0.0
 13
1.2443702302012081
 23
-0.3597747596491643
 33
0.0
210
0.0
220
0.0
230
-1.0
  0
SOLID
  5
653
  8
0
  6
CONTINUOUS
 62
     7
 10
1.286767874445212
 20
-0.1850092897552711
 30
0.0
 11
1.081898544830139
 21
-0.1850092897552711
 31
0.0
 12
1.0395009005861351
 22
-0.3597747596491643
 32
0.0
 13
1.0395009005861351
 23
-0.3597747596491643
 33
0.0
210
0.0
220
0.0
230
-1.0
  0
SOLID
  5
654
  8
0
  6
CONTINUOUS
 62
     7
 10
-1.0395009005861351
 20
-0.3597747596491643
 30
0.0
 11
-1.2285010643290679
 21
-0.4251883523126486
 31
0.0
 12
-1.009627513781826
 22
-0.4251883523126486
 32
0.0
 13
-1.009627513781826
 23
-0.4251883523126486
 33
0.0
210
0.0
220
0.0
230
-1.0
  0
SOLID
  5
655
  8
0
  6
CONTINUOUS
 62
     7
 10
-1.0395009005861351
 20
-0.3597747596491643
 30
0.0
 11
-1.2443702302012081
 21
-0.3597747596491643
 31
0.0
 12
-1.2285010643290679
 22
-0.4251883523126486
 32
0.0
 13
-1.2285010643290679
 23
-0.4251883523126486
 33
0.0
210
0.0
220
0.0
230
-1.0
  0
SOLID
  5
656
  8
0
  6
CONTINUOUS
 62
     7
 10
1.2443702302012081
 20
-0.3597747596491643
 30
0.0
 11
1.0096275137818249
 21
-0.4251883523126486
 31
0.0
 12
1.228501064329069
 22
-0.4251883523126486
 32
0.0
 13
1.228501064329069
 23
-0.4251883523126486
 33
0.0
210
0.0
220
0.0
230
-1.0
  0
SOLID
  5
657
  8
0
  6
CONTINUOUS
 62
     7
 10
1.2443702302012081
 20
-0.3597747596491643
 30
0.0
 11
1.0395009005861351
 21
-0.3597747596491643
 31
0.0
 12
1.0096275137818249
 22
-0.4251883523126486
 32
0.0
 13
1.0096275137818249
 23
-0.4251883523126486
 33
0.0
210
0.0
220
0.0
230
-1.0
  0
SOLID
  5
658
  8
0
  6
CONTINUOUS
 62
     7
 10
-1.009627513781826
 20
-0.4251883523126486
 30
0.0
 11
-1.171501494710125
 21
-0.5500000000000006
 31
0.0
 12
-0.9526279441628825
 22
-0.5500000000000006
 32
0.0
 13
-0.9526279441628825
 23
-0.5500000000000006
 33
0.0
210
0.0
220
0.0
230
-1.0
  0
SOLID
  5
659
  8
0
  6
CONTINUOUS
 62
     7
 10
-1.009627513781826
 20
-0.4251883523126486
 30
0.0
 11
-1.2285010643290679
 21
-0.4251883523126486
 31
0.0
 12
-1.171501494710125
 22
-0.5500000000000006
 32
0.0
 13
-1.171501494710125
 23
-0.5500000000000006
 33
0.0
210
0.0
220
0.0
230
-1.0
  0
SOLID
  5
65A
  8
0
  6
CONTINUOUS
 62
     7
 10
1.228501064329069
 20
-0.4251883523126486
 30
0.0
 11
0.9526279441628823
 21
-0.5500000000000006
 31
0.0
 12
1.1715014947101261
 22
-0.5500000000000006
 32
0.0
 13
1.1715014947101261
 23
-0.5500000000000006
 33
0.0
210
0.0
220
0.0
230
-1.0
  0
SOLID
  5
65B
  8
0
  6
CONTINUOUS
 62
     7
 10
1.228501064329069
 20
-0.4251883523126486
 30
0.0
 11
1.0096275137818249
 21
-0.4251883523126486
 31
0.0
 12
0.9526279441628823
 22
-0.5500000000000006
 32
0.0
 13
0.9526279441628823
 23
-0.5500000000000006
 33
0.0
210
0.0
220
0.0
230
-1.0
  0
SOLID
  5
65C
  8
0
  6
CONTINUOUS
 62
     7
 10
-0.9526279441628825
 20
-0.5500000000000006
 30
0.0
 11
-1.125833024919769
 21
-0.6500000000000004
 31
0.0
 12
-0.8814182665249459
 22
-0.6500000000000004
 32
0.0
 13
-0.8814182665249459
 23
-0.6500000000000004
 33
0.0
210
0.0
220
0.0
230
-1.0
  0
SOLID
  5
65D
  8
0
  6
CONTINUOUS
 62
     7
 10
-0.9526279441628825
 20
-0.5500000000000006
 30
0.0
 11
-1.171501494710125
 21
-0.5500000000000006
 31
0.0
 12
-1.125833024919769
 22
-0.6500000000000004
 32
0.0
 13
-1.125833024919769
 23
-0.6500000000000004
 33
0.0
210
0.0
220
0.0
230
-1.0
  0
SOLID
  5
65E
  8
0
  6
CONTINUOUS
 62
     7
 10
1.1715014947101261
 20
-0.5500000000000006
 30
0.0
 11
0.8814182665249454
 21
-0.6500000000000004
 31
0.0
 12
1.1258330249197701
 22
-0.6500000000000004
 32
0.0
 13
1.1258330249197701
 23
-0.6500000000000004
 33
0.0
210
0.0
220
0.0
230
-1.0
  0
SOLID
  5
65F
  8
0
  6
CONTINUOUS
 62
     7
 10
1.1715014947101261
 20
-0.5500000000000006
 30
0.0
 11
0.9526279441628819
 21
-0.5500000000000006
 31
0.0
 12
0.8814182665249454
 22
-0.6500000000000004
 32
0.0
 13
0.8814182665249454
 23
-0.6500000000000004
 33
0.0
210
0.0
220
0.0
230
-1.0
  0
SOLID
  5
660
  8
0
  6
CONTINUOUS
 62
     7
 10
-0.8814182665249459
 20
-0.6500000000000004
 30
0.0
 11
-1.075739290184508
 21
-0.720346807339814
 31
0.0
 12
-0.8313245317896841
 22
-0.720346807339814
 32
0.0
 13
-0.8313245317896841
 23
-0.720346807339814
 33
0.0
210
0.0
220
0.0
230
-1.0
  0
SOLID
  5
661
  8
0
  6
CONTINUOUS
 62
     7
 10
-0.8814182665249459
 20
-0.6500000000000004
 30
0.0
 11
-1.125833024919769
 21
-0.6500000000000004
 31
0.0
 12
-1.075739290184508
 22
-0.720346807339814
 32
0.0
 13
-1.075739290184508
 23
-0.720346807339814
 33
0.0
210
0.0
220
0.0
230
-1.0
  0
SOLID
  5
662
  8
0
  6
CONTINUOUS
 62
     7
 10
1.1258330249197701
 20
-0.6500000000000004
 30
0.0
 11
0.8313245317896836
 21
-0.720346807339814
 31
0.0
 12
1.075739290184508
 22
-0.720346807339814
 32
0.0
 13
1.075739290184508
 23
-0.720346807339814
 33
0.0
210
0.0
220
0.0
230
-1.0
  0
SOLID
  5
663
  8
0
  6
CONTINUOUS
 62
     7
 10
1.1258330249197701
 20
-0.6500000000000004
 30
0.0
 11
0.8814182665249454
 21
-0.6500000000000004
 31
0.0
 12
0.8313245317896836
 22
-0.720346807339814
 32
0.0
 13
0.8313245317896836
 23
-0.720346807339814
 33
0.0
210
0.0
220
0.0
230
-1.0
  0
SOLID
  5
664
  8
0
  6
CONTINUOUS
 62
     7
 10
-0.8313245317896841
 20
-0.720346807339814
 30
0.0
 11
-0.9824744466605354
 21
-0.8513189541288708
 31
0.0
 12
-0.6939648974612153
 22
-0.8513189541288708
 32
0.0
 13
-0.6939648974612153
 23
-0.8513189541288708
 33
0.0
210
0.0
220
0.0
230
-1.0
  0
SOLID
  5
665
  8
0
  6
CONTINUOUS
 62
     7
 10
-0.8313245317896841
 20
-0.720346807339814
 30
0.0
 11
-1.075739290184508
 21
-0.720346807339814
 31
0.0
 12
-0.9824744466605354
 22
-0.8513189541288708
 32
0.0
 13
-0.9824744466605354
 23
-0.8513189541288708
 33
0.0
210
0.0
220
0.0
230
-1.0
  0
SOLID
  5
666
  8
0
  6
CONTINUOUS
 62
     7
 10
1.075739290184508
 20
-0.720346807339814
 30
0.0
 11
0.6939648974612148
 21
-0.8513189541288708
 31
0.0
 12
0.9824744466605358
 22
-0.8513189541288708
 32
0.0
 13
0.9824744466605358
 23
-0.8513189541288708
 33
0.0
210
0.0
220
0.0
230
-1.0
  0
SOLID
  5
667
  8
0
  6
CONTINUOUS
 62
     7
 10
1.075739290184508
 20
-0.720346807339814
 30
0.0
 11
0.8313245317896834
 21
-0.720346807339814
 31
0.0
 12
0.6939648974612148
 22
-0.8513189541288708
 32
0.0
 13
0.6939648974612148
 23
-0.8513189541288708
 33
0.0
210
0.0
220
0.0
230
-1.0
  0
SOLID
  5
668
  8
0
  6
CONTINUOUS
 62
     7
 10
-0.6939648974612153
 20
-0.8513189541288708
 30
0.0
 11
-0.9684844340419857
 21
-0.8646584042170665
 31
0.0
 12
-0.6799748848426657
 22
-0.8646584042170665
 32
0.0
 13
-0.6799748848426657
 23
-0.8646584042170665
 33
0.0
210
0.0
220
0.0
230
-1.0
  0
SOLID
  5
669
  8
0
  6
CONTINUOUS
 62
     7
 10
-0.6939648974612153
 20
-0.8513189541288708
 30
0.0
 11
-0.9824744466605354
 21
-0.8513189541288708
 31
0.0
 12
-0.9684844340419857
 22
-0.8646584042170665
 32
0.0
 13
-0.9684844340419857
 23
-0.8646584042170665
 33
0.0
210
0.0
220
0.0
230
-1.0
  0
SOLID
  5
66A
  8
0
  6
CONTINUOUS
 62
     7
 10
0.9824744466605358
 20
-0.8513189541288708
 30
0.0
 11
0.6799748848426651
 21
-0.8646584042170665
 31
0.0
 12
0.9684844340419863
 22
-0.8646584042170665
 32
0.0
 13
0.9684844340419863
 23
-0.8646584042170665
 33
0.0
210
0.0
220
0.0
230
-1.0
  0
SOLID
  5
66B
  8
0
  6
CONTINUOUS
 62
     7
 10
0.9824744466605358
 20
-0.8513189541288708
 30
0.0
 11
0.6939648974612148
 21
-0.8513189541288708
 31
0.0
 12
0.6799748848426651
 22
-0.8646584042170665
 32
0.0
 13
0.6799748848426651
 23
-0.8646584042170665
 33
0.0
210
0.0
220
0.0
230
-1.0
  0
SOLID
  5
66C
  8
0
  6
CONTINUOUS
 62
     7
 10
-0.6799748848426657
 20
-0.8646584042170665
 30
0.0
 11
-0.8499099005674617
 21
-0.9777189935204161
 31
0.0
 12
-0.5040491739001514
 22
-0.9777189935204161
 32
0.0
 13
-0.5040491739001514
 23
-0.9777189935204161
 33
0.0
210
0.0
220
0.0
230
-1.0
  0
SOLID
  5
66D
  8
0
  6
CONTINUOUS
 62
     7
 10
-0.6799748848426657
 20
-0.8646584042170665
 30
0.0
 11
-0.9684844340419857
 21
-0.8646584042170665
 31
0.0
 12
-0.8499099005674617
 22
-0.9777189935204161
 32
0.0
 13
-0.8499099005674617
 23
-0.9777189935204161
 33
0.0
210
0.0
220
0.0
230
-1.0
  0
SOLID
  5
66E
  8
0
  6
CONTINUOUS
 62
     7
 10
0.9684844340419863
 20
-0.8646584042170665
 30
0.0
 11
0.5040491739001507
 21
-0.9777189935204161
 31
0.0
 12
0.8499099005674624
 22
-0.9777189935204161
 32
0.0
 13
0.8499099005674624
 23
-0.9777189935204161
 33
0.0
210
0.0
220
0.0
230
-1.0
  0
SOLID
  5
66F
  8
0
  6
CONTINUOUS
 62
     7
 10
0.9684844340419863
 20
-0.8646584042170665
 30
0.0
 11
0.6799748848426648
 21
-0.8646584042170665
 31
0.0
 12
0.5040491739001507
 22
-0.9777189935204161
 32
0.0
 13
0.5040491739001507
 23
-0.9777189935204161
 33
0.0
210
0.0
220
0.0
230
-1.0
  0
SOLID
  5
670
  8
0
  6
CONTINUOUS
 62
     7
 10
-0.5040491739001514
 20
-0.9777189935204161
 30
0.0
 11
-0.8036066820867864
 21
-1.0218690231656229
 31
0.0
 12
-0.3937677313167247
 22
-1.0218690231656229
 32
0.0
 13
-0.3937677313167247
 23
-1.0218690231656229
 33
0.0
210
0.0
220
0.0
230
-1.0
  0
SOLID
  5
671
  8
0
  6
CONTINUOUS
 62
     7
 10
-0.5040491739001514
 20
-0.9777189935204161
 30
0.0
 11
-0.8499099005674617
 21
-0.9777189935204161
 31
0.0
 12
-0.8036066820867864
 22
-1.0218690231656229
 32
0.0
 13
-0.8036066820867864
 23
-1.0218690231656229
 33
0.0
210
0.0
220
0.0
230
-1.0
  0
SOLID
  5
672
  8
0
  6
CONTINUOUS
 62
     7
 10
0.8499099005674624
 20
-0.9777189935204161
 30
0.0
 11
0.3937677313167236
 21
-1.0218690231656229
 31
0.0
 12
0.8036066820867871
 22
-1.0218690231656229
 32
0.0
 13
0.8036066820867871
 23
-1.0218690231656229
 33
0.0
210
0.0
220
0.0
230
-1.0
  0
SOLID
  5
673
  8
0
  6
CONTINUOUS
 62
     7
 10
0.8499099005674624
 20
-0.9777189935204161
 30
0.0
 11
0.5040491739001502
 21
-0.9777189935204161
 31
0.0
 12
0.3937677313167236
 22
-1.0218690231656229
 32
0.0
 13
0.3937677313167236
 23
-1.0218690231656229
 33
0.0
210
0.0
220
0.0
230
-1.0
  0
SOLID
  5
674
  8
0
  6
CONTINUOUS
 62
     7
 10
-0.3937677313167247
 20
-1.0218690231656229
 30
0.0
 11
-0.7513656887744916
 21
-1.055442270975947
 31
0.0
 12
-0.3099058125255726
 22
-1.055442270975947
 32
0.0
 13
-0.3099058125255726
 23
-1.055442270975947
 33
0.0
210
0.0
220
0.0
230
-1.0
  0
SOLID
  5
675
  8
0
  6
CONTINUOUS
 62
     7
 10
-0.3937677313167247
 20
-1.0218690231656229
 30
0.0
 11
-0.8036066820867864
 21
-1.0218690231656229
 31
0.0
 12
-0.7513656887744916
 22
-1.055442270975947
 32
0.0
 13
-0.7513656887744916
 23
-1.055442270975947
 33
0.0
210
0.0
220
0.0
230
-1.0
  0
SOLID
  5
676
  8
0
  6
CONTINUOUS
 62
     7
 10
0.8036066820867871
 20
-1.0218690231656229
 30
0.0
 11
0.3099058125255715
 21
-1.055442270975947
 31
0.0
 12
0.7513656887744924
 22
-1.055442270975947
 32
0.0
 13
0.7513656887744924
 23
-1.055442270975947
 33
0.0
210
0.0
220
0.0
230
-1.0
  0
SOLID
  5
677
  8
0
  6
CONTINUOUS
 62
     7
 10
0.8036066820867871
 20
-1.0218690231656229
 30
0.0
 11
0.3937677313167236
 21
-1.0218690231656229
 31
0.0
 12
0.3099058125255715
 22
-1.055442270975947
 32
0.0
 13
0.3099058125255715
 23
-1.055442270975947
 33
0.0
210
0.0
220
0.0
230
-1.0
  0
SOLID
  5
678
  8
0
  6
CONTINUOUS
 62
     7
 10
-0.3099058125255726
 20
-1.055442270975947
 30
0.0
 11
-0.6897829176704678
 21
-1.0950191148303929
 31
0.0
 12
-0.1045616476346008
 22
-1.0950191148303929
 32
0.0
 13
-0.1045616476346008
 23
-1.0950191148303929
 33
0.0
210
0.0
220
0.0
230
-1.0
  0
SOLID
  5
679
  8
0
  6
CONTINUOUS
 62
     7
 10
-0.3099058125255726
 20
-1.055442270975947
 30
0.0
 11
-0.7513656887744916
 21
-1.055442270975947
 31
0.0
 12
-0.6897829176704678
 22
-1.0950191148303929
 32
0.0
 13
-0.6897829176704678
 23
-1.0950191148303929
 33
0.0
210
0.0
220
0.0
230
-1.0
  0
SOLID
  5
67A
  8
0
  6
CONTINUOUS
 62
     7
 10
0.7513656887744924
 20
-1.055442270975947
 30
0.0
 11
0.1045616476345998
 21
-1.0950191148303929
 31
0.0
 12
0.6897829176704685
 22
-1.0950191148303929
 32
0.0
 13
0.6897829176704685
 23
-1.0950191148303929
 33
0.0
210
0.0
220
0.0
230
-1.0
  0
SOLID
  5
67B
  8
0
  6
CONTINUOUS
 62
     7
 10
0.7513656887744924
 20
-1.055442270975947
 30
0.0
 11
0.3099058125255703
 21
-1.055442270975947
 31
0.0
 12
0.1045616476345998
 22
-1.0950191148303929
 32
0.0
 13
0.1045616476345998
 23
-1.0950191148303929
 33
0.0
210
0.0
220
0.0
230
-1.0
  0
SOLID
  5
67C
  8
0
  6
CONTINUOUS
 62
     7
 10
0.6897829176704685
 20
-1.0950191148303929
 30
0.0
 11
-0.5956944782456332
 21
-1.1554860832514
 31
0.0
 12
0.595694478245634
 22
-1.1554860832514
 32
0.0
 13
0.595694478245634
 23
-1.1554860832514
 33
0.0
210
0.0
220
0.0
230
-1.0
  0
SOLID
  5
67D
  8
0
  6
CONTINUOUS
 62
     7
 10
0.6897829176704685
 20
-1.0950191148303929
 30
0.0
 11
-0.6897829176704678
 21
-1.0950191148303929
 31
0.0
 12
-0.5956944782456332
 22
-1.1554860832514
 32
0.0
 13
-0.5956944782456332
 23
-1.1554860832514
 33
0.0
210
0.0
220
0.0
230
-1.0
  0
SOLID
  5
67E
  8
0
  6
CONTINUOUS
 62
     7
 10
0.595694478245634
 20
-1.1554860832514
 30
0.0
 11
-0.3662523238938582
 21
-1.2473408656988461
 31
0.0
 12
0.366252323893859
 22
-1.2473408656988461
 32
0.0
 13
0.366252323893859
 23
-1.2473408656988461
 33
0.0
210
0.0
220
0.0
230
-1.0
  0
SOLID
  5
67F
  8
0
  6
CONTINUOUS
 62
     7
 10
0.595694478245634
 20
-1.1554860832514
 30
0.0
 11
-0.5956944782456332
 21
-1.1554860832514
 31
0.0
 12
-0.3662523238938582
 22
-1.2473408656988461
 32
0.0
 13
-0.3662523238938582
 23
-1.2473408656988461
 33
0.0
210
0.0
220
0.0
230
-1.0
  0
SOLID
  5
680
  8
0
  6
CONTINUOUS
 62
     7
 10
0.366252323893859
 20
-1.2473408656988461
 30
0.0
 11
-0.1235728562954371
 21
-1.2941134993450101
 31
0.0
 12
0.1235728562954378
 22
-1.2941134993450101
 32
0.0
 13
0.1235728562954378
 23
-1.2941134993450101
 33
0.0
210
0.0
220
0.0
230
-1.0
  0
SOLID
  5
681
  8
0
  6
CONTINUOUS
 62
     7
 10
0.366252323893859
 20
-1.2473408656988461
 30
0.0
 11
-0.3662523238938582
 21
-1.2473408656988461
 31
0.0
 12
-0.1235728562954371
 22
-1.2941134993450101
 32
0.0
 13
-0.1235728562954371
 23
-1.2941134993450101
 33
0.0
210
0.0
220
0.0
230
-1.0
  0
LINE
  5
682
  8
0
  6
CONTINUOUS
 62
     7
 10
0.0
 20
1.3
 30
0.0
 11
0.2460266176685341
 21
1.276507306441518
 31
0.0
  0
LINE
  5
683
  8
0
  6
CONTINUOUS
 62
     7
 10
-0.2460266176685332
 20
1.276507306441518
 30
0.0
 11
0.0
 21
1.3
 31
0.0
  0
LINE
  5
684
  8
0
  6
CONTINUOUS
 62
     7
 10
-0.4831611923584265
 20
1.206878312920894
 30
0.0
 11
-0.2460266176685332
 21
1.276507306441518
 31
0.0
  0
LINE
  5
685
  8
0
  6
CONTINUOUS
 62
     7
 10
0.2460266176685341
 20
1.276507306441518
 30
0.0
 11
0.4831611923584266
 21
1.206878312920894
 31
0.0
  0
LINE
  5
686
  8
0
  6
CONTINUOUS
 62
     7
 10
-0.6904761964276059
 20
1.1000000000000001
 30
0.0
 11
-0.4831611923584262
 21
1.206878312920894
 31
0.0
  0
LINE
  5
687
  8
0
  6
CONTINUOUS
 62
     7
 10
0.4831611923584266
 20
1.206878312920894
 30
0.0
 11
0.6904761964276063
 21
1.1000000000000001
 31
0.0
  0
LINE
  5
688
  8
0
  6
CONTINUOUS
 62
     7
 10
0.6904761964276063
 20
1.1000000000000001
 30
0.0
 11
0.7028330626922776
 21
1.0936295926805351
 31
0.0
  0
LINE
  5
689
  8
0
  6
CONTINUOUS
 62
     7
 10
-0.7028330626922772
 20
1.0936295926805351
 30
0.0
 11
-0.6904761964276059
 21
1.1000000000000001
 31
0.0
  0
LINE
  5
68A
  8
0
  6
CONTINUOUS
 62
     7
 10
0.2081763687964519
 20
1.080121566988977
 30
0.0
 11
0.0667139237174861
 21
1.0936295926805351
 31
0.0
  0
LINE
  5
68B
  8
0
  6
CONTINUOUS
 62
     7
 10
0.7028330626922776
 20
1.0936295926805351
 30
0.0
 11
0.7200099146598146
 21
1.080121566988977
 31
0.0
  0
LINE
  5
68C
  8
0
  6
CONTINUOUS
 62
     7
 10
-0.7200099146598142
 20
1.080121566988977
 30
0.0
 11
-0.7028330626922771
 21
1.0936295926805351
 31
0.0
  0
LINE
  5
68D
  8
0
  6
CONTINUOUS
 62
     7
 10
-0.0667139237174859
 20
1.0936295926805351
 30
0.0
 11
-0.2081763687964512
 21
1.080121566988977
 31
0.0
  0
LINE
  5
68E
  8
0
  6
CONTINUOUS
 62
     7
 10
0.4088287012263617
 20
1.0212047263176789
 30
0.0
 11
0.2081763687964519
 21
1.080121566988977
 31
0.0
  0
LINE
  5
68F
  8
0
  6
CONTINUOUS
 62
     7
 10
0.7200099146598146
 20
1.080121566988977
 30
0.0
 11
0.7949287720645886
 21
1.0212047263176789
 31
0.0
  0
LINE
  5
690
  8
0
  6
CONTINUOUS
 62
     7
 10
-0.7949287720645883
 20
1.0212047263176789
 30
0.0
 11
-0.7200099146598142
 21
1.080121566988977
 31
0.0
  0
LINE
  5
691
  8
0
  6
CONTINUOUS
 62
     7
 10
-0.2081763687964512
 20
1.080121566988977
 30
0.0
 11
-0.4088287012263603
 21
1.0212047263176789
 31
0.0
  0
LINE
  5
692
  8
0
  6
CONTINUOUS
 62
     7
 10
0.564686882045152
 20
0.9408542495365907
 30
0.0
 11
0.4088287012263614
 21
1.0212047263176789
 31
0.0
  0
LINE
  5
693
  8
0
  6
CONTINUOUS
 62
     7
 10
0.7949287720645886
 20
1.0212047263176789
 30
0.0
 11
0.897102714926746
 21
0.9408542495365907
 31
0.0
  0
LINE
  5
694
  8
0
  6
CONTINUOUS
 62
     7
 10
-0.897102714926746
 20
0.9408542495365907
 30
0.0
 11
-0.7949287720645883
 21
1.0212047263176789
 31
0.0
  0
LINE
  5
695
  8
0
  6
CONTINUOUS
 62
     7
 10
-0.4088287012263603
 20
1.0212047263176789
 30
0.0
 11
-0.5646868820451508
 21
0.9408542495365907
 31
0.0
  0
LINE
  5
696
  8
0
  6
CONTINUOUS
 62
     7
 10
0.5947048992011587
 20
0.9253788861142989
 30
0.0
 11
0.564686882045152
 21
0.9408542495365907
 31
0.0
  0
LINE
  5
697
  8
0
  6
CONTINUOUS
 62
     7
 10
0.897102714926746
 20
0.9408542495365907
 30
0.0
 11
0.9105121936650583
 21
0.9253788861142989
 31
0.0
  0
LINE
  5
698
  8
0
  6
CONTINUOUS
 62
     7
 10
-0.9105121936650581
 20
0.9253788861142989
 30
0.0
 11
-0.8971027149267458
 21
0.9408542495365907
 31
0.0
  0
LINE
  5
699
  8
0
  6
CONTINUOUS
 62
     7
 10
-0.5646868820451508
 20
0.9408542495365907
 30
0.0
 11
-0.5947048992011573
 21
0.9253788861142989
 31
0.0
  0
LINE
  5
69A
  8
0
  6
CONTINUOUS
 62
     7
 10
0.759086912630324
 20
0.7961074419155771
 30
0.0
 11
0.5947048992011585
 21
0.9253788861142989
 31
0.0
  0
LINE
  5
69B
  8
0
  6
CONTINUOUS
 62
     7
 10
0.9105121936650583
 20
0.9253788861142989
 30
0.0
 11
1.022526537700216
 21
0.7961074419155771
 31
0.0
  0
LINE
  5
69C
  8
0
  6
CONTINUOUS
 62
     7
 10
-1.0225265377002151
 20
0.7961074419155771
 30
0.0
 11
-0.9105121936650581
 21
0.9253788861142989
 31
0.0
  0
LINE
  5
69D
  8
0
  6
CONTINUOUS
 62
     7
 10
-0.5947048992011573
 20
0.9253788861142989
 30
0.0
 11
-0.7590869126303232
 21
0.7961074419155771
 31
0.0
  0
LINE
  5
69E
  8
0
  6
CONTINUOUS
 62
     7
 10
0.7955091125955445
 20
0.7540739824425572
 30
0.0
 11
0.759086912630324
 21
0.7961074419155771
 31
0.0
  0
LINE
  5
69F
  8
0
  6
CONTINUOUS
 62
     7
 10
1.022526537700216
 20
0.7961074419155771
 30
0.0
 11
1.0589487376654361
 21
0.7540739824425572
 31
0.0
  0
LINE
  5
6A0
  8
0
  6
CONTINUOUS
 62
     7
 10
-1.0589487376654361
 20
0.7540739824425572
 30
0.0
 11
-1.0225265377002151
 21
0.7961074419155771
 31
0.0
  0
LINE
  5
6A1
  8
0
  6
CONTINUOUS
 62
     7
 10
-0.7590869126303232
 20
0.7961074419155771
 30
0.0
 11
-0.7955091125955438
 21
0.7540739824425572
 31
0.0
  0
LINE
  5
6A2
  8
0
  6
CONTINUOUS
 62
     7
 10
0.8960335472553698
 20
0.6380626005283178
 30
0.0
 11
0.7955091125955445
 21
0.7540739824425572
 31
0.0
  0
LINE
  5
6A3
  8
0
  6
CONTINUOUS
 62
     7
 10
1.0589487376654361
 20
0.7540739824425572
 30
0.0
 11
1.1259279402426829
 21
0.6380626005283178
 31
0.0
  0
LINE
  5
6A4
  8
0
  6
CONTINUOUS
 62
     7
 10
-1.1259279402426829
 20
0.6380626005283178
 30
0.0
 11
-1.0589487376654361
 21
0.7540739824425572
 31
0.0
  0
LINE
  5
6A5
  8
0
  6
CONTINUOUS
 62
     7
 10
-0.7955091125955438
 20
0.7540739824425572
 30
0.0
 11
-0.8960335472553692
 21
0.6380626005283178
 31
0.0
  0
LINE
  5
6A6
  8
0
  6
CONTINUOUS
 62
     7
 10
0.9526272009735606
 20
0.5400395169024519
 30
0.0
 11
0.8960335472553698
 21
0.6380626005283178
 31
0.0
  0
LINE
  5
6A7
  8
0
  6
CONTINUOUS
 62
     7
 10
1.1259279402426829
 20
0.6380626005283178
 30
0.0
 11
1.182521593960874
 21
0.5400395169024519
 31
0.0
  0
LINE
  5
6A8
  8
0
  6
CONTINUOUS
 62
     7
 10
-1.182521593960874
 20
0.5400395169024519
 30
0.0
 11
-1.1259279402426829
 21
0.6380626005283178
 31
0.0
  0
LINE
  5
6A9
  8
0
  6
CONTINUOUS
 62
     7
 10
-0.8960335472553692
 20
0.6380626005283178
 30
0.0
 11
-0.9526272009735601
 21
0.5400395169024519
 31
0.0
  0
LINE
  5
6AA
  8
0
  6
CONTINUOUS
 62
     7
 10
1.0005951948899701
 20
0.4569565143020748
 30
0.0
 11
0.9526272009735606
 21
0.5400395169024519
 31
0.0
  0
LINE
  5
6AB
  8
0
  6
CONTINUOUS
 62
     7
 10
1.182521593960874
 20
0.5400395169024519
 30
0.0
 11
1.2112769007380271
 21
0.4569565143020748
 31
0.0
  0
LINE
  5
6AC
  8
0
  6
CONTINUOUS
 62
     7
 10
-1.2112769007380271
 20
0.4569565143020748
 30
0.0
 11
-1.1825215939608731
 21
0.5400395169024519
 31
0.0
  0
LINE
  5
6AD
  8
0
  6
CONTINUOUS
 62
     7
 10
-0.9526272009735601
 20
0.5400395169024519
 30
0.0
 11
-1.0005951948899701
 21
0.4569565143020748
 31
0.0
  0
LINE
  5
6AE
  8
0
  6
CONTINUOUS
 62
     7
 10
1.0526733329725471
 20
0.3064866161622549
 30
0.0
 11
1.0005951948899701
 21
0.4569565143020748
 31
0.0
  0
LINE
  5
6AF
  8
0
  6
CONTINUOUS
 62
     7
 10
1.2112769007380271
 20
0.4569565143020748
 30
0.0
 11
1.2633550388206041
 21
0.3064866161622549
 31
0.0
  0
LINE
  5
6B0
  8
0
  6
CONTINUOUS
 62
     7
 10
-1.2633550388206041
 20
0.3064866161622549
 30
0.0
 11
-1.2112769007380271
 21
0.4569565143020748
 31
0.0
  0
LINE
  5
6B1
  8
0
  6
CONTINUOUS
 62
     7
 10
-1.0005951948899701
 20
0.4569565143020748
 30
0.0
 11
-1.0526733329725471
 21
0.3064866161622549
 31
0.0
  0
LINE
  5
6B2
  8
0
  6
CONTINUOUS
 62
     7
 10
1.0689927251558959
 20
0.2593348290603695
 30
0.0
 11
1.0526733329725471
 21
0.3064866161622549
 31
0.0
  0
LINE
  5
6B3
  8
0
  6
CONTINUOUS
 62
     7
 10
1.2633550388206041
 20
0.3064866161622549
 30
0.0
 11
1.2701344423289269
 21
0.2593348290603695
 31
0.0
  0
LINE
  5
6B4
  8
0
  6
CONTINUOUS
 62
     7
 10
-1.2701344423289269
 20
0.2593348290603695
 30
0.0
 11
-1.2633550388206041
 21
0.3064866161622549
 31
0.0
  0
LINE
  5
6B5
  8
0
  6
CONTINUOUS
 62
     7
 10
-1.0526733329725471
 20
0.3064866161622549
 30
0.0
 11
-1.0689927251558951
 21
0.2593348290603695
 31
0.0
  0
LINE
  5
6B6
  8
0
  6
CONTINUOUS
 62
     7
 10
1.097385823764879
 20
0.0618564905708645
 30
0.0
 11
1.0689927251558959
 21
0.2593348290603695
 31
0.0
  0
LINE
  5
6B7
  8
0
  6
CONTINUOUS
 62
     7
 10
1.2701344423289269
 20
0.2593348290603695
 30
0.0
 11
1.29852754093791
 21
0.0618564905708645
 31
0.0
  0
LINE
  5
6B8
  8
0
  6
CONTINUOUS
 62
     7
 10
-1.29852754093791
 20
0.0618564905708645
 30
0.0
 11
-1.2701344423289269
 21
0.2593348290603695
 31
0.0
  0
LINE
  5
6B9
  8
0
  6
CONTINUOUS
 62
     7
 10
-1.0689927251558951
 20
0.2593348290603695
 30
0.0
 11
-1.0973858237648779
 21
0.0618564905708645
 31
0.0
  0
LINE
  5
6BA
  8
0
  6
CONTINUOUS
 62
     7
 10
1.098754073101309
 20
0.0523401074061161
 30
0.0
 11
1.097385823764879
 21
0.0618564905708645
 31
0.0
  0
LINE
  5
6BB
  8
0
  6
CONTINUOUS
 62
     7
 10
1.29852754093791
 20
0.0618564905708645
 30
0.0
 11
1.2980742197360551
 21
0.0523401074061161
 31
0.0
  0
LINE
  5
6BC
  8
0
  6
CONTINUOUS
 62
     7
 10
-1.298074219736056
 20
0.0523401074061161
 30
0.0
 11
-1.29852754093791
 21
0.0618564905708645
 31
0.0
  0
LINE
  5
6BD
  8
0
  6
CONTINUOUS
 62
     7
 10
-1.0973858237648779
 20
0.0618564905708645
 30
0.0
 11
-1.0987540731013079
 21
0.0523401074061161
 31
0.0
  0
LINE
  5
6BE
  8
0
  6
CONTINUOUS
 62
     7
 10
1.0888035860690259
 20
-0.1565463221006141
 30
0.0
 11
1.098754073101309
 21
0.0523401074061161
 31
0.0
  0
LINE
  5
6BF
  8
0
  6
CONTINUOUS
 62
     7
 10
1.2980742197360551
 20
0.0523401074061161
 30
0.0
 11
1.2881237327037729
 21
-0.1565463221006141
 31
0.0
  0
LINE
  5
6C0
  8
0
  6
CONTINUOUS
 62
     7
 10
-1.2881237327037729
 20
-0.1565463221006141
 30
0.0
 11
-1.298074219736056
 21
0.0523401074061161
 31
0.0
  0
LINE
  5
6C1
  8
0
  6
CONTINUOUS
 62
     7
 10
-1.0987540731013079
 20
0.0523401074061161
 30
0.0
 11
-1.0888035860690251
 21
-0.1565463221006141
 31
0.0
  0
LINE
  5
6C2
  8
0
  6
CONTINUOUS
 62
     7
 10
-0.1725
 20
-0.1725
 30
0.0
 11
-0.1725
 21
0.1725
 31
0.0
  0
LINE
  5
6C3
  8
0
  6
CONTINUOUS
 62
     7
 10
0.1725
 20
0.1725
 30
0.0
 11
0.1725
 21
-0.1725
 31
0.0
  0
LINE
  5
6C4
  8
0
  6
CONTINUOUS
 62
     7
 10
1.081898544830139
 20
-0.1850092897552711
 30
0.0
 11
1.0888035860690259
 21
-0.1565463221006141
 31
0.0
  0
LINE
  5
6C5
  8
0
  6
CONTINUOUS
 62
     7
 10
1.2881237327037729
 20
-0.1565463221006141
 30
0.0
 11
1.286767874445212
 21
-0.1850092897552711
 31
0.0
  0
LINE
  5
6C6
  8
0
  6
CONTINUOUS
 62
     7
 10
-1.286767874445212
 20
-0.1850092897552711
 30
0.0
 11
-1.2881237327037729
 21
-0.1565463221006141
 31
0.0
  0
LINE
  5
6C7
  8
0
  6
CONTINUOUS
 62
     7
 10
-1.0888035860690251
 20
-0.1565463221006141
 30
0.0
 11
-1.081898544830139
 21
-0.1850092897552711
 31
0.0
  0
LINE
  5
6C8
  8
0
  6
CONTINUOUS
 62
     7
 10
1.0395009005861351
 20
-0.3597747596491643
 30
0.0
 11
1.081898544830139
 21
-0.1850092897552711
 31
0.0
  0
LINE
  5
6C9
  8
0
  6
CONTINUOUS
 62
     7
 10
1.286767874445212
 20
-0.1850092897552711
 30
0.0
 11
1.2443702302012081
 21
-0.3597747596491643
 31
0.0
  0
LINE
  5
6CA
  8
0
  6
CONTINUOUS
 62
     7
 10
-1.2443702302012081
 20
-0.3597747596491643
 30
0.0
 11
-1.286767874445212
 21
-0.1850092897552711
 31
0.0
  0
LINE
  5
6CB
  8
0
  6
CONTINUOUS
 62
     7
 10
-1.081898544830139
 20
-0.1850092897552711
 30
0.0
 11
-1.0395009005861351
 21
-0.3597747596491643
 31
0.0
  0
LINE
  5
6CC
  8
0
  6
CONTINUOUS
 62
     7
 10
1.009627513781826
 20
-0.4251883523126486
 30
0.0
 11
1.0395009005861351
 21
-0.3597747596491643
 31
0.0
  0
LINE
  5
6CD
  8
0
  6
CONTINUOUS
 62
     7
 10
1.2443702302012081
 20
-0.3597747596491643
 30
0.0
 11
1.2285010643290679
 21
-0.4251883523126486
 31
0.0
  0
LINE
  5
6CE
  8
0
  6
CONTINUOUS
 62
     7
 10
-1.228501064329069
 20
-0.4251883523126486
 30
0.0
 11
-1.2443702302012081
 21
-0.3597747596491643
 31
0.0
  0
LINE
  5
6CF
  8
0
  6
CONTINUOUS
 62
     7
 10
-1.0395009005861351
 20
-0.3597747596491643
 30
0.0
 11
-1.0096275137818249
 21
-0.4251883523126486
 31
0.0
  0
LINE
  5
6D0
  8
0
  6
CONTINUOUS
 62
     7
 10
0.9526279441628825
 20
-0.5500000000000006
 30
0.0
 11
1.009627513781826
 21
-0.4251883523126486
 31
0.0
  0
LINE
  5
6D1
  8
0
  6
CONTINUOUS
 62
     7
 10
1.2285010643290679
 20
-0.4251883523126486
 30
0.0
 11
1.171501494710125
 21
-0.5500000000000006
 31
0.0
  0
LINE
  5
6D2
  8
0
  6
CONTINUOUS
 62
     7
 10
-1.1715014947101261
 20
-0.5500000000000006
 30
0.0
 11
-1.228501064329069
 21
-0.4251883523126486
 31
0.0
  0
LINE
  5
6D3
  8
0
  6
CONTINUOUS
 62
     7
 10
-1.0096275137818249
 20
-0.4251883523126486
 30
0.0
 11
-0.9526279441628823
 21
-0.5500000000000006
 31
0.0
  0
LINE
  5
6D4
  8
0
  6
CONTINUOUS
 62
     7
 10
0.8814182665249459
 20
-0.6500000000000004
 30
0.0
 11
0.9526279441628825
 21
-0.5500000000000006
 31
0.0
  0
LINE
  5
6D5
  8
0
  6
CONTINUOUS
 62
     7
 10
1.171501494710125
 20
-0.5500000000000006
 30
0.0
 11
1.125833024919769
 21
-0.6500000000000004
 31
0.0
  0
LINE
  5
6D6
  8
0
  6
CONTINUOUS
 62
     7
 10
-1.1258330249197701
 20
-0.6500000000000004
 30
0.0
 11
-1.1715014947101261
 21
-0.5500000000000006
 31
0.0
  0
LINE
  5
6D7
  8
0
  6
CONTINUOUS
 62
     7
 10
-0.9526279441628819
 20
-0.5500000000000006
 30
0.0
 11
-0.8814182665249454
 21
-0.6500000000000004
 31
0.0
  0
LINE
  5
6D8
  8
0
  6
CONTINUOUS
 62
     7
 10
0.8313245317896841
 20
-0.720346807339814
 30
0.0
 11
0.8814182665249459
 21
-0.6500000000000004
 31
0.0
  0
LINE
  5
6D9
  8
0
  6
CONTINUOUS
 62
     7
 10
1.125833024919769
 20
-0.6500000000000004
 30
0.0
 11
1.075739290184508
 21
-0.720346807339814
 31
0.0
  0
LINE
  5
6DA
  8
0
  6
CONTINUOUS
 62
     7
 10
-1.075739290184508
 20
-0.720346807339814
 30
0.0
 11
-1.1258330249197701
 21
-0.6500000000000004
 31
0.0
  0
LINE
  5
6DB
  8
0
  6
CONTINUOUS
 62
     7
 10
-0.8814182665249454
 20
-0.6500000000000004
 30
0.0
 11
-0.8313245317896836
 21
-0.720346807339814
 31
0.0
  0
LINE
  5
6DC
  8
0
  6
CONTINUOUS
 62
     7
 10
0.6939648974612153
 20
-0.8513189541288708
 30
0.0
 11
0.8313245317896841
 21
-0.720346807339814
 31
0.0
  0
LINE
  5
6DD
  8
0
  6
CONTINUOUS
 62
     7
 10
1.075739290184508
 20
-0.720346807339814
 30
0.0
 11
0.9824744466605354
 21
-0.8513189541288708
 31
0.0
  0
LINE
  5
6DE
  8
0
  6
CONTINUOUS
 62
     7
 10
-0.9824744466605358
 20
-0.8513189541288708
 30
0.0
 11
-1.075739290184508
 21
-0.720346807339814
 31
0.0
  0
LINE
  5
6DF
  8
0
  6
CONTINUOUS
 62
     7
 10
-0.8313245317896834
 20
-0.720346807339814
 30
0.0
 11
-0.6939648974612148
 21
-0.8513189541288708
 31
0.0
  0
LINE
  5
6E0
  8
0
  6
CONTINUOUS
 62
     7
 10
0.6799748848426657
 20
-0.8646584042170665
 30
0.0
 11
0.6939648974612153
 21
-0.8513189541288708
 31
0.0
  0
LINE
  5
6E1
  8
0
  6
CONTINUOUS
 62
     7
 10
0.9824744466605354
 20
-0.8513189541288708
 30
0.0
 11
0.9684844340419857
 21
-0.8646584042170665
 31
0.0
  0
LINE
  5
6E2
  8
0
  6
CONTINUOUS
 62
     7
 10
-0.9684844340419863
 20
-0.8646584042170665
 30
0.0
 11
-0.9824744466605358
 21
-0.8513189541288708
 31
0.0
  0
LINE
  5
6E3
  8
0
  6
CONTINUOUS
 62
     7
 10
-0.6939648974612148
 20
-0.8513189541288708
 30
0.0
 11
-0.6799748848426651
 21
-0.8646584042170665
 31
0.0
  0
LINE
  5
6E4
  8
0
  6
CONTINUOUS
 62
     7
 10
0.5040491739001514
 20
-0.9777189935204161
 30
0.0
 11
0.6799748848426657
 21
-0.8646584042170665
 31
0.0
  0
LINE
  5
6E5
  8
0
  6
CONTINUOUS
 62
     7
 10
0.9684844340419857
 20
-0.8646584042170665
 30
0.0
 11
0.8499099005674617
 21
-0.9777189935204161
 31
0.0
  0
LINE
  5
6E6
  8
0
  6
CONTINUOUS
 62
     7
 10
-0.8499099005674624
 20
-0.9777189935204161
 30
0.0
 11
-0.9684844340419863
 21
-0.8646584042170665
 31
0.0
  0
LINE
  5
6E7
  8
0
  6
CONTINUOUS
 62
     7
 10
-0.6799748848426648
 20
-0.8646584042170665
 30
0.0
 11
-0.5040491739001507
 21
-0.9777189935204161
 31
0.0
  0
LINE
  5
6E8
  8
0
  6
CONTINUOUS
 62
     7
 10
0.3937677313167247
 20
-1.0218690231656229
 30
0.0
 11
0.5040491739001514
 21
-0.9777189935204161
 31
0.0
  0
LINE
  5
6E9
  8
0
  6
CONTINUOUS
 62
     7
 10
0.8499099005674617
 20
-0.9777189935204161
 30
0.0
 11
0.8036066820867864
 21
-1.0218690231656229
 31
0.0
  0
LINE
  5
6EA
  8
0
  6
CONTINUOUS
 62
     7
 10
-0.8036066820867871
 20
-1.0218690231656229
 30
0.0
 11
-0.8499099005674624
 21
-0.9777189935204161
 31
0.0
  0
LINE
  5
6EB
  8
0
  6
CONTINUOUS
 62
     7
 10
-0.5040491739001502
 20
-0.9777189935204161
 30
0.0
 11
-0.3937677313167236
 21
-1.0218690231656229
 31
0.0
  0
LINE
  5
6EC
  8
0
  6
CONTINUOUS
 62
     7
 10
0.3099058125255726
 20
-1.055442270975947
 30
0.0
 11
0.3937677313167247
 21
-1.0218690231656229
 31
0.0
  0
LINE
  5
6ED
  8
0
  6
CONTINUOUS
 62
     7
 10
0.8036066820867864
 20
-1.0218690231656229
 30
0.0
 11
0.7513656887744916
 21
-1.055442270975947
 31
0.0
  0
LINE
  5
6EE
  8
0
  6
CONTINUOUS
 62
     7
 10
-0.7513656887744924
 20
-1.055442270975947
 30
0.0
 11
-0.8036066820867871
 21
-1.0218690231656229
 31
0.0
  0
LINE
  5
6EF
  8
0
  6
CONTINUOUS
 62
     7
 10
-0.3937677313167236
 20
-1.0218690231656229
 30
0.0
 11
-0.3099058125255715
 21
-1.055442270975947
 31
0.0
  0
LINE
  5
6F0
  8
0
  6
CONTINUOUS
 62
     7
 10
0.1045616476346008
 20
-1.0950191148303929
 30
0.0
 11
0.3099058125255726
 21
-1.055442270975947
 31
0.0
  0
LINE
  5
6F1
  8
0
  6
CONTINUOUS
 62
     7
 10
0.7513656887744916
 20
-1.055442270975947
 30
0.0
 11
0.6897829176704678
 21
-1.0950191148303929
 31
0.0
  0
LINE
  5
6F2
  8
0
  6
CONTINUOUS
 62
     7
 10
-0.6897829176704685
 20
-1.0950191148303929
 30
0.0
 11
-0.7513656887744924
 21
-1.055442270975947
 31
0.0
  0
LINE
  5
6F3
  8
0
  6
CONTINUOUS
 62
     7
 10
-0.3099058125255703
 20
-1.055442270975947
 30
0.0
 11
-0.1045616476345998
 21
-1.0950191148303929
 31
0.0
  0
LINE
  5
6F4
  8
0
  6
CONTINUOUS
 62
     7
 10
-0.595694478245634
 20
-1.1554860832514
 30
0.0
 11
-0.6897829176704685
 21
-1.0950191148303929
 31
0.0
  0
LINE
  5
6F5
  8
0
  6
CONTINUOUS
 62
     7
 10
0.6897829176704678
 20
-1.0950191148303929
 30
0.0
 11
0.5956944782456332
 21
-1.1554860832514
 31
0.0
  0
LINE
  5
6F6
  8
0
  6
CONTINUOUS
 62
     7
 10
-0.366252323893859
 20
-1.2473408656988461
 30
0.0
 11
-0.595694478245634
 21
-1.1554860832514
 31
0.0
  0
LINE
  5
6F7
  8
0
  6
CONTINUOUS
 62
     7
 10
0.5956944782456332
 20
-1.1554860832514
 30
0.0
 11
0.3662523238938582
 21
-1.2473408656988461
 31
0.0
  0
LINE
  5
6F8
  8
0
  6
CONTINUOUS
 62
     7
 10
-0.1235728562954378
 20
-1.2941134993450101
 30
0.0
 11
-0.366252323893859
 21
-1.2473408656988461
 31
0.0
  0
LINE
  5
6F9
  8
0
  6
CONTINUOUS
 62
     7
 10
0.3662523238938582
 20
-1.2473408656988461
 30
0.0
 11
0.1235728562954371
 21
-1.2941134993450101
 31
0.0
  0
ENDBLK
  5
6FB
  8
0
  0
BLOCK
  8
0
  2
*U12
 70
     1
 10
0.0
 20
0.0
 30
0.0
  3
*U12
  1

  0
SOLID
  5
6FD
  8
0
  6
CONTINUOUS
 62
     7
 10
0.0
 20
1.639999999999999
 30
0.0
 11
-0.3103720407510778
 21
1.6103630635108379
 31
0.0
 12
0.3103720407510726
 22
1.6103630635108379
 32
0.0
 13
0.3103720407510726
 23
1.6103630635108379
 33
0.0
210
0.0
220
0.0
230
-1.0
  0
SOLID
  5
6FE
  8
0
  6
CONTINUOUS
 62
     7
 10
0.3103720407510726
 20
1.6103630635108379
 30
0.0
 11
-0.6095264272829382
 21
1.5225234101463581
 31
0.0
 12
0.609526427282937
 22
1.5225234101463581
 32
0.0
 13
0.609526427282937
 23
1.5225234101463581
 33
0.0
210
0.0
220
0.0
230
-1.0
  0
SOLID
  5
6FF
  8
0
  6
CONTINUOUS
 62
     7
 10
0.3103720407510726
 20
1.6103630635108379
 30
0.0
 11
-0.3103720407510746
 21
1.6103630635108379
 31
0.0
 12
-0.6095264272829382
 22
1.5225234101463581
 32
0.0
 13
-0.6095264272829382
 23
1.5225234101463581
 33
0.0
210
0.0
220
0.0
230
-1.0
  0
SOLID
  5
700
  8
0
  6
CONTINUOUS
 62
     7
 10
0.609526427282937
 20
1.5225234101463581
 30
0.0
 11
-0.8866509406271802
 21
1.3796557938431371
 31
0.0
 12
0.8866509406271799
 22
1.3796557938431371
 32
0.0
 13
0.8866509406271799
 23
1.3796557938431371
 33
0.0
210
0.0
220
0.0
230
-1.0
  0
SOLID
  5
701
  8
0
  6
CONTINUOUS
 62
     7
 10
0.609526427282937
 20
1.5225234101463581
 30
0.0
 11
-0.6095264272829379
 21
1.5225234101463581
 31
0.0
 12
-0.8866509406271802
 22
1.3796557938431371
 32
0.0
 13
-0.8866509406271802
 23
1.3796557938431371
 33
0.0
210
0.0
220
0.0
230
-1.0
  0
SOLID
  5
702
  8
0
  6
CONTINUOUS
 62
     7
 10
0.8866509406271799
 20
1.3796557938431371
 30
0.0
 11
-0.9370773845837119
 21
1.3400000000000001
 31
0.0
 12
0.9370773845837117
 22
1.3400000000000001
 32
0.0
 13
0.9370773845837117
 23
1.3400000000000001
 33
0.0
210
0.0
220
0.0
230
-1.0
  0
SOLID
  5
703
  8
0
  6
CONTINUOUS
 62
     7
 10
0.8866509406271799
 20
1.3796557938431371
 30
0.0
 11
-0.8866509406271802
 21
1.3796557938431371
 31
0.0
 12
-0.9370773845837119
 22
1.3400000000000001
 32
0.0
 13
-0.9370773845837119
 23
1.3400000000000001
 33
0.0
210
0.0
220
0.0
230
-1.0
  0
SOLID
  5
704
  8
0
  6
CONTINUOUS
 62
     7
 10
0.0
 20
1.3400000000000001
 30
0.0
 11
-0.9678699558113384
 21
1.315784454332027
 31
0.0
 12
-0.2535966674429525
 22
1.315784454332027
 32
0.0
 13
-0.2535966674429525
 23
1.315784454332027
 33
0.0
210
0.0
220
0.0
230
-1.0
  0
SOLID
  5
705
  8
0
  6
CONTINUOUS
 62
     7
 10
0.0
 20
1.3400000000000001
 30
0.0
 11
-0.9370773845837119
 21
1.3400000000000001
 31
0.0
 12
-0.9678699558113384
 22
1.315784454332027
 32
0.0
 13
-0.9678699558113384
 23
1.315784454332027
 33
0.0
210
0.0
220
0.0
230
-1.0
  0
SOLID
  5
706
  8
0
  6
CONTINUOUS
 62
     7
 10
0.9370773845837117
 20
1.3400000000000001
 30
0.0
 11
0.2535966674429497
 21
1.315784454332027
 31
0.0
 12
0.9678699558113383
 22
1.315784454332027
 32
0.0
 13
0.9678699558113383
 23
1.315784454332027
 33
0.0
210
0.0
220
0.0
230
-1.0
  0
SOLID
  5
707
  8
0
  6
CONTINUOUS
 62
     7
 10
0.9370773845837117
 20
1.3400000000000001
 30
0.0
 11
0.0
 21
1.3400000000000001
 31
0.0
 12
0.2535966674429497
 22
1.315784454332027
 32
0.0
 13
0.2535966674429497
 23
1.315784454332027
 33
0.0
210
0.0
220
0.0
230
-1.0
  0
SOLID
  5
708
  8
0
  6
CONTINUOUS
 62
     7
 10
-0.253596667442951
 20
1.315784454332027
 30
0.0
 11
-1.05913474574079
 21
1.2440130302415371
 31
0.0
 12
-0.4980276905848394
 22
1.2440130302415371
 32
0.0
 13
-0.4980276905848394
 23
1.2440130302415371
 33
0.0
210
0.0
220
0.0
230
-1.0
  0
SOLID
  5
709
  8
0
  6
CONTINUOUS
 62
     7
 10
-0.253596667442951
 20
1.315784454332027
 30
0.0
 11
-0.9678699558113384
 21
1.315784454332027
 31
0.0
 12
-1.05913474574079
 22
1.2440130302415371
 32
0.0
 13
-1.05913474574079
 23
1.2440130302415371
 33
0.0
210
0.0
220
0.0
230
-1.0
  0
SOLID
  5
70A
  8
0
  6
CONTINUOUS
 62
     7
 10
0.9678699558113383
 20
1.315784454332027
 30
0.0
 11
0.4980276905848389
 21
1.2440130302415371
 31
0.0
 12
1.05913474574079
 22
1.2440130302415371
 32
0.0
 13
1.05913474574079
 23
1.2440130302415371
 33
0.0
210
0.0
220
0.0
230
-1.0
  0
SOLID
  5
70B
  8
0
  6
CONTINUOUS
 62
     7
 10
0.9678699558113383
 20
1.315784454332027
 30
0.0
 11
0.2535966674429497
 21
1.315784454332027
 31
0.0
 12
0.4980276905848389
 22
1.2440130302415371
 32
0.0
 13
0.4980276905848389
 23
1.2440130302415371
 33
0.0
210
0.0
220
0.0
230
-1.0
  0
SOLID
  5
70C
  8
0
  6
CONTINUOUS
 62
     7
 10
-0.4980276905848394
 20
1.2440130302415371
 30
0.0
 11
-1.1317295788306629
 21
1.186923822492314
 31
0.0
 12
-0.608765304356834
 22
1.186923822492314
 32
0.0
 13
-0.608765304356834
 23
1.186923822492314
 33
0.0
210
0.0
220
0.0
230
-1.0
  0
SOLID
  5
70D
  8
0
  6
CONTINUOUS
 62
     7
 10
-0.4980276905848394
 20
1.2440130302415371
 30
0.0
 11
-1.05913474574079
 21
1.2440130302415371
 31
0.0
 12
-1.1317295788306629
 22
1.186923822492314
 32
0.0
 13
-1.1317295788306629
 23
1.186923822492314
 33
0.0
210
0.0
220
0.0
230
-1.0
  0
SOLID
  5
70E
  8
0
  6
CONTINUOUS
 62
     7
 10
1.05913474574079
 20
1.2440130302415371
 30
0.0
 11
0.6087653043568336
 21
1.186923822492314
 31
0.0
 12
1.1317295788306629
 22
1.186923822492314
 32
0.0
 13
1.1317295788306629
 23
1.186923822492314
 33
0.0
210
0.0
220
0.0
230
-1.0
  0
SOLID
  5
70F
  8
0
  6
CONTINUOUS
 62
     7
 10
1.05913474574079
 20
1.2440130302415371
 30
0.0
 11
0.4980276905848389
 21
1.2440130302415371
 31
0.0
 12
0.6087653043568336
 22
1.186923822492314
 32
0.0
 13
0.6087653043568336
 23
1.186923822492314
 33
0.0
210
0.0
220
0.0
230
-1.0
  0
SOLID
  5
710
  8
0
  6
CONTINUOUS
 62
     7
 10
-0.608765304356834
 20
1.186923822492314
 30
0.0
 11
-1.183411475711676
 21
1.127279733993783
 31
0.0
 12
-0.7244586953905012
 22
1.127279733993783
 32
0.0
 13
-0.7244586953905012
 23
1.127279733993783
 33
0.0
210
0.0
220
0.0
230
-1.0
  0
SOLID
  5
711
  8
0
  6
CONTINUOUS
 62
     7
 10
-0.608765304356834
 20
1.186923822492314
 30
0.0
 11
-1.1317295788306629
 21
1.186923822492314
 31
0.0
 12
-1.183411475711676
 22
1.127279733993783
 32
0.0
 13
-1.183411475711676
 23
1.127279733993783
 33
0.0
210
0.0
220
0.0
230
-1.0
  0
SOLID
  5
712
  8
0
  6
CONTINUOUS
 62
     7
 10
1.1317295788306629
 20
1.186923822492314
 30
0.0
 11
0.7244586953905009
 21
1.127279733993783
 31
0.0
 12
1.183411475711676
 22
1.127279733993783
 32
0.0
 13
1.183411475711676
 23
1.127279733993783
 33
0.0
210
0.0
220
0.0
230
-1.0
  0
SOLID
  5
713
  8
0
  6
CONTINUOUS
 62
     7
 10
1.1317295788306629
 20
1.186923822492314
 30
0.0
 11
0.6087653043568336
 21
1.186923822492314
 31
0.0
 12
0.7244586953905009
 22
1.127279733993783
 32
0.0
 13
0.7244586953905009
 23
1.127279733993783
 33
0.0
210
0.0
220
0.0
230
-1.0
  0
SOLID
  5
714
  8
0
  6
CONTINUOUS
 62
     7
 10
-0.7244586953905012
 20
1.127279733993783
 30
0.0
 11
-1.3198653129908691
 21
0.969803611060794
 31
0.0
 12
-0.9247058753860304
 22
0.969803611060794
 32
0.0
 13
-0.9247058753860304
 23
0.969803611060794
 33
0.0
210
0.0
220
0.0
230
-1.0
  0
SOLID
  5
715
  8
0
  6
CONTINUOUS
 62
     7
 10
-0.7244586953905012
 20
1.127279733993783
 30
0.0
 11
-1.183411475711676
 21
1.127279733993783
 31
0.0
 12
-1.3198653129908691
 22
0.969803611060794
 32
0.0
 13
-1.3198653129908691
 23
0.969803611060794
 33
0.0
210
0.0
220
0.0
230
-1.0
  0
SOLID
  5
716
  8
0
  6
CONTINUOUS
 62
     7
 10
1.183411475711676
 20
1.127279733993783
 30
0.0
 11
0.9247058753860301
 21
0.969803611060794
 31
0.0
 12
1.3198653129908691
 22
0.969803611060794
 32
0.0
 13
1.3198653129908691
 23
0.969803611060794
 33
0.0
210
0.0
220
0.0
230
-1.0
  0
SOLID
  5
717
  8
0
  6
CONTINUOUS
 62
     7
 10
1.183411475711676
 20
1.127279733993783
 30
0.0
 11
0.7244586953905009
 21
1.127279733993783
 31
0.0
 12
0.9247058753860301
 22
0.969803611060794
 32
0.0
 13
0.9247058753860301
 23
0.969803611060794
 33
0.0
210
0.0
220
0.0
230
-1.0
  0
SOLID
  5
718
  8
0
  6
CONTINUOUS
 62
     7
 10
-0.9247058753860304
 20
0.969803611060794
 30
0.0
 11
-1.33590456136255
 21
0.9512933316967647
 31
0.0
 12
-0.940745123757712
 22
0.9512933316967647
 32
0.0
 13
-0.940745123757712
 23
0.9512933316967647
 33
0.0
210
0.0
220
0.0
230
-1.0
  0
SOLID
  5
719
  8
0
  6
CONTINUOUS
 62
     7
 10
-0.9247058753860304
 20
0.969803611060794
 30
0.0
 11
-1.3198653129908691
 21
0.969803611060794
 31
0.0
 12
-1.33590456136255
 22
0.9512933316967647
 32
0.0
 13
-1.33590456136255
 23
0.9512933316967647
 33
0.0
210
0.0
220
0.0
230
-1.0
  0
SOLID
  5
71A
  8
0
  6
CONTINUOUS
 62
     7
 10
1.3198653129908691
 20
0.969803611060794
 30
0.0
 11
0.9407451237577117
 21
0.9512933316967647
 31
0.0
 12
1.33590456136255
 22
0.9512933316967647
 32
0.0
 13
1.33590456136255
 23
0.9512933316967647
 33
0.0
210
0.0
220
0.0
230
-1.0
  0
SOLID
  5
71B
  8
0
  6
CONTINUOUS
 62
     7
 10
1.3198653129908691
 20
0.969803611060794
 30
0.0
 11
0.9247058753860301
 21
0.969803611060794
 31
0.0
 12
0.9407451237577117
 22
0.9512933316967647
 32
0.0
 13
0.9407451237577117
 23
0.9512933316967647
 33
0.0
210
0.0
220
0.0
230
-1.0
  0
SOLID
  5
71C
  8
0
  6
CONTINUOUS
 62
     7
 10
-0.940745123757712
 20
0.9512933316967647
 30
0.0
 11
-1.4363733652284201
 21
0.7772762588254057
 31
0.0
 12
-1.0915317757474501
 22
0.7772762588254057
 32
0.0
 13
-1.0915317757474501
 23
0.7772762588254057
 33
0.0
210
0.0
220
0.0
230
-1.0
  0
SOLID
  5
71D
  8
0
  6
CONTINUOUS
 62
     7
 10
-0.940745123757712
 20
0.9512933316967647
 30
0.0
 11
-1.33590456136255
 21
0.9512933316967647
 31
0.0
 12
-1.4363733652284201
 22
0.7772762588254057
 32
0.0
 13
-1.4363733652284201
 23
0.7772762588254057
 33
0.0
210
0.0
220
0.0
230
-1.0
  0
SOLID
  5
71E
  8
0
  6
CONTINUOUS
 62
     7
 10
1.33590456136255
 20
0.9512933316967647
 30
0.0
 11
1.0915317757474501
 21
0.7772762588254057
 31
0.0
 12
1.4363733652284201
 22
0.7772762588254057
 32
0.0
 13
1.4363733652284201
 23
0.7772762588254057
 33
0.0
210
0.0
220
0.0
230
-1.0
  0
SOLID
  5
71F
  8
0
  6
CONTINUOUS
 62
     7
 10
1.33590456136255
 20
0.9512933316967647
 30
0.0
 11
0.9407451237577117
 21
0.9512933316967647
 31
0.0
 12
1.0915317757474501
 22
0.7772762588254057
 32
0.0
 13
1.0915317757474501
 23
0.7772762588254057
 33
0.0
210
0.0
220
0.0
230
-1.0
  0
SOLID
  5
720
  8
0
  6
CONTINUOUS
 62
     7
 10
-1.0915317757474501
 20
0.7772762588254057
 30
0.0
 11
-1.4917964723814101
 21
0.6812806213230934
 31
0.0
 12
-1.146954882900439
 22
0.6812806213230934
 32
0.0
 13
-1.146954882900439
 23
0.6812806213230934
 33
0.0
210
0.0
220
0.0
230
-1.0
  0
SOLID
  5
721
  8
0
  6
CONTINUOUS
 62
     7
 10
-1.0915317757474501
 20
0.7772762588254057
 30
0.0
 11
-1.4363733652284201
 21
0.7772762588254057
 31
0.0
 12
-1.4917964723814101
 22
0.6812806213230934
 32
0.0
 13
-1.4917964723814101
 23
0.6812806213230934
 33
0.0
210
0.0
220
0.0
230
-1.0
  0
SOLID
  5
722
  8
0
  6
CONTINUOUS
 62
     7
 10
1.4363733652284201
 20
0.7772762588254057
 30
0.0
 11
1.146954882900439
 21
0.6812806213230934
 31
0.0
 12
1.4917964723814101
 22
0.6812806213230934
 32
0.0
 13
1.4917964723814101
 23
0.6812806213230934
 33
0.0
210
0.0
220
0.0
230
-1.0
  0
SOLID
  5
723
  8
0
  6
CONTINUOUS
 62
     7
 10
1.4363733652284201
 20
0.7772762588254057
 30
0.0
 11
1.0915317757474501
 21
0.7772762588254057
 31
0.0
 12
1.146954882900439
 22
0.6812806213230934
 32
0.0
 13
1.146954882900439
 23
0.6812806213230934
 33
0.0
210
0.0
220
0.0
230
-1.0
  0
SOLID
  5
724
  8
0
  6
CONTINUOUS
 62
     7
 10
-1.146954882900439
 20
0.6812806213230934
 30
0.0
 11
-1.5349294325471401
 21
0.5566561174225279
 31
0.0
 12
-1.218906873775055
 22
0.5566561174225279
 32
0.0
 13
-1.218906873775055
 23
0.5566561174225279
 33
0.0
210
0.0
220
0.0
230
-1.0
  0
SOLID
  5
725
  8
0
  6
CONTINUOUS
 62
     7
 10
-1.146954882900439
 20
0.6812806213230934
 30
0.0
 11
-1.4917964723814101
 21
0.6812806213230934
 31
0.0
 12
-1.5349294325471401
 22
0.5566561174225279
 32
0.0
 13
-1.5349294325471401
 23
0.5566561174225279
 33
0.0
210
0.0
220
0.0
230
-1.0
  0
SOLID
  5
726
  8
0
  6
CONTINUOUS
 62
     7
 10
1.4917964723814101
 20
0.6812806213230934
 30
0.0
 11
1.218906873775055
 21
0.5566561174225279
 31
0.0
 12
1.5349294325471401
 22
0.5566561174225279
 32
0.0
 13
1.5349294325471401
 23
0.5566561174225279
 33
0.0
210
0.0
220
0.0
230
-1.0
  0
SOLID
  5
727
  8
0
  6
CONTINUOUS
 62
     7
 10
1.4917964723814101
 20
0.6812806213230934
 30
0.0
 11
1.146954882900439
 21
0.6812806213230934
 31
0.0
 12
1.218906873775055
 22
0.5566561174225279
 32
0.0
 13
1.218906873775055
 23
0.5566561174225279
 33
0.0
210
0.0
220
0.0
230
-1.0
  0
SOLID
  5
728
  8
0
  6
CONTINUOUS
 62
     7
 10
-1.218906873775055
 20
0.5566561174225279
 30
0.0
 11
-1.5937709720506079
 21
0.3866446542354602
 31
0.0
 12
-1.2777484132785231
 22
0.3866446542354602
 32
0.0
 13
-1.2777484132785231
 23
0.3866446542354602
 33
0.0
210
0.0
220
0.0
230
-1.0
  0
SOLID
  5
729
  8
0
  6
CONTINUOUS
 62
     7
 10
-1.218906873775055
 20
0.5566561174225279
 30
0.0
 11
-1.5349294325471401
 21
0.5566561174225279
 31
0.0
 12
-1.5937709720506079
 22
0.3866446542354602
 32
0.0
 13
-1.5937709720506079
 23
0.3866446542354602
 33
0.0
210
0.0
220
0.0
230
-1.0
  0
SOLID
  5
72A
  8
0
  6
CONTINUOUS
 62
     7
 10
1.5349294325471401
 20
0.5566561174225279
 30
0.0
 11
1.2777484132785231
 21
0.3866446542354602
 31
0.0
 12
1.5937709720506079
 22
0.3866446542354602
 32
0.0
 13
1.5937709720506079
 23
0.3866446542354602
 33
0.0
210
0.0
220
0.0
230
-1.0
  0
SOLID
  5
72B
  8
0
  6
CONTINUOUS
 62
     7
 10
1.5349294325471401
 20
0.5566561174225279
 30
0.0
 11
1.218906873775055
 21
0.5566561174225279
 31
0.0
 12
1.2777484132785231
 22
0.3866446542354602
 32
0.0
 13
1.2777484132785231
 23
0.3866446542354602
 33
0.0
210
0.0
220
0.0
230
-1.0
  0
SOLID
  5
72C
  8
0
  6
CONTINUOUS
 62
     7
 10
-1.2777484132785231
 20
0.3866446542354602
 30
0.0
 11
-1.603940077313093
 21
0.3159169735826323
 31
0.0
 12
-1.3022275015535461
 22
0.3159169735826323
 32
0.0
 13
-1.3022275015535461
 23
0.3159169735826323
 33
0.0
210
0.0
220
0.0
230
-1.0
  0
SOLID
  5
72D
  8
0
  6
CONTINUOUS
 62
     7
 10
-1.2777484132785231
 20
0.3866446542354602
 30
0.0
 11
-1.5937709720506079
 21
0.3866446542354602
 31
0.0
 12
-1.603940077313093
 22
0.3159169735826323
 32
0.0
 13
-1.603940077313093
 23
0.3159169735826323
 33
0.0
210
0.0
220
0.0
230
-1.0
  0
SOLID
  5
72E
  8
0
  6
CONTINUOUS
 62
     7
 10
1.5937709720506079
 20
0.3866446542354602
 30
0.0
 11
1.3022275015535461
 21
0.3159169735826323
 31
0.0
 12
1.603940077313093
 22
0.3159169735826323
 32
0.0
 13
1.603940077313093
 23
0.3159169735826323
 33
0.0
210
0.0
220
0.0
230
-1.0
  0
SOLID
  5
72F
  8
0
  6
CONTINUOUS
 62
     7
 10
1.5937709720506079
 20
0.3866446542354602
 30
0.0
 11
1.2777484132785231
 21
0.3866446542354602
 31
0.0
 12
1.3022275015535461
 22
0.3159169735826323
 32
0.0
 13
1.3022275015535461
 23
0.3159169735826323
 33
0.0
210
0.0
220
0.0
230
-1.0
  0
SOLID
  5
730
  8
0
  6
CONTINUOUS
 62
     7
 10
-1.3022275015535461
 20
0.3159169735826323
 30
0.0
 11
-1.6381424362601329
 21
0.078034341950937
 31
0.0
 12
-1.3364298605005851
 22
0.078034341950937
 32
0.0
 13
-1.3364298605005851
 23
0.078034341950937
 33
0.0
210
0.0
220
0.0
230
-1.0
  0
SOLID
  5
731
  8
0
  6
CONTINUOUS
 62
     7
 10
-1.3022275015535461
 20
0.3159169735826323
 30
0.0
 11
-1.603940077313093
 21
0.3159169735826323
 31
0.0
 12
-1.6381424362601329
 22
0.078034341950937
 32
0.0
 13
-1.6381424362601329
 23
0.078034341950937
 33
0.0
210
0.0
220
0.0
230
-1.0
  0
SOLID
  5
732
  8
0
  6
CONTINUOUS
 62
     7
 10
1.603940077313093
 20
0.3159169735826323
 30
0.0
 11
1.336429860500586
 21
0.078034341950937
 31
0.0
 12
1.6381424362601329
 22
0.078034341950937
 32
0.0
 13
1.6381424362601329
 23
0.078034341950937
 33
0.0
210
0.0
220
0.0
230
-1.0
  0
SOLID
  5
733
  8
0
  6
CONTINUOUS
 62
     7
 10
1.603940077313093
 20
0.3159169735826323
 30
0.0
 11
1.3022275015535461
 21
0.3159169735826323
 31
0.0
 12
1.336429860500586
 22
0.078034341950937
 32
0.0
 13
1.336429860500586
 23
0.078034341950937
 33
0.0
210
0.0
220
0.0
230
-1.0
  0
SOLID
  5
734
  8
0
  6
CONTINUOUS
 62
     7
 10
-1.3364298605005851
 20
0.078034341950937
 30
0.0
 11
-1.6374624544573511
 21
0.0637597672038145
 31
0.0
 12
-1.3384822345052301
 22
0.0637597672038145
 32
0.0
 13
-1.3384822345052301
 23
0.0637597672038145
 33
0.0
210
0.0
220
0.0
230
-1.0
  0
SOLID
  5
735
  8
0
  6
CONTINUOUS
 62
     7
 10
-1.3364298605005851
 20
0.078034341950937
 30
0.0
 11
-1.6381424362601329
 21
0.078034341950937
 31
0.0
 12
-1.6374624544573511
 22
0.0637597672038145
 32
0.0
 13
-1.6374624544573511
 23
0.0637597672038145
 33
0.0
210
0.0
220
0.0
230
-1.0
  0
SOLID
  5
736
  8
0
  6
CONTINUOUS
 62
     7
 10
1.6381424362601329
 20
0.078034341950937
 30
0.0
 11
1.338482234505231
 21
0.0637597672038145
 31
0.0
 12
1.6374624544573511
 22
0.0637597672038145
 32
0.0
 13
1.6374624544573511
 23
0.0637597672038145
 33
0.0
210
0.0
220
0.0
230
-1.0
  0
SOLID
  5
737
  8
0
  6
CONTINUOUS
 62
     7
 10
1.6381424362601329
 20
0.078034341950937
 30
0.0
 11
1.336429860500586
 21
0.078034341950937
 31
0.0
 12
1.338482234505231
 22
0.0637597672038145
 32
0.0
 13
1.338482234505231
 23
0.0637597672038145
 33
0.0
210
0.0
220
0.0
230
-1.0
  0
SOLID
  5
738
  8
0
  6
CONTINUOUS
 62
     7
 10
-1.3384822345052301
 20
0.0637597672038145
 30
0.0
 11
-1.6253409520725699
 21
-0.1907018832862023
 31
0.0
 12
-1.32636073212045
 22
-0.1907018832862023
 32
0.0
 13
-1.32636073212045
 23
-0.1907018832862023
 33
0.0
210
0.0
220
0.0
230
-1.0
  0
SOLID
  5
739
  8
0
  6
CONTINUOUS
 62
     7
 10
-1.3384822345052301
 20
0.0637597672038145
 30
0.0
 11
-1.6374624544573511
 21
0.0637597672038145
 31
0.0
 12
-1.6253409520725699
 22
-0.1907018832862023
 32
0.0
 13
-1.6253409520725699
 23
-0.1907018832862023
 33
0.0
210
0.0
220
0.0
230
-1.0
  0
SOLID
  5
73A
  8
0
  6
CONTINUOUS
 62
     7
 10
1.6374624544573511
 20
0.0637597672038145
 30
0.0
 11
1.32636073212045
 21
-0.1907018832862023
 31
0.0
 12
1.6253409520725699
 22
-0.1907018832862023
 32
0.0
 13
1.6253409520725699
 23
-0.1907018832862023
 33
0.0
210
0.0
220
0.0
230
-1.0
  0
SOLID
  5
73B
  8
0
  6
CONTINUOUS
 62
     7
 10
1.6374624544573511
 20
0.0637597672038145
 30
0.0
 11
1.338482234505231
 21
0.0637597672038145
 31
0.0
 12
1.32636073212045
 22
-0.1907018832862023
 32
0.0
 13
1.32636073212045
 23
-0.1907018832862023
 33
0.0
210
0.0
220
0.0
230
-1.0
  0
SOLID
  5
73C
  8
0
  6
CONTINUOUS
 62
     7
 10
0.215
 20
0.215
 30
0.0
 11
-0.215
 21
-0.215
 31
0.0
 12
0.215
 22
-0.215
 32
0.0
 13
0.215
 23
-0.215
 33
0.0
210
0.0
220
0.0
230
-1.0
  0
SOLID
  5
73D
  8
0
  6
CONTINUOUS
 62
     7
 10
0.215
 20
0.215
 30
0.0
 11
-0.215
 21
0.215
 31
0.0
 12
-0.215
 22
-0.215
 32
0.0
 13
-0.215
 23
-0.215
 33
0.0
210
0.0
220
0.0
230
-1.0
  0
SOLID
  5
73E
  8
0
  6
CONTINUOUS
 62
     7
 10
-1.32636073212045
 20
-0.1907018832862023
 30
0.0
 11
-1.623307164684729
 21
-0.2333963347681879
 31
0.0
 12
-1.3160031702621191
 22
-0.2333963347681879
 32
0.0
 13
-1.3160031702621191
 23
-0.2333963347681879
 33
0.0
210
0.0
220
0.0
230
-1.0
  0
SOLID
  5
73F
  8
0
  6
CONTINUOUS
 62
     7
 10
-1.32636073212045
 20
-0.1907018832862023
 30
0.0
 11
-1.6253409520725699
 21
-0.1907018832862023
 31
0.0
 12
-1.623307164684729
 22
-0.2333963347681879
 32
0.0
 13
-1.623307164684729
 23
-0.2333963347681879
 33
0.0
210
0.0
220
0.0
230
-1.0
  0
SOLID
  5
740
  8
0
  6
CONTINUOUS
 62
     7
 10
1.6253409520725699
 20
-0.1907018832862023
 30
0.0
 11
1.31600317026212
 21
-0.2333963347681879
 31
0.0
 12
1.623307164684729
 22
-0.2333963347681879
 32
0.0
 13
1.623307164684729
 23
-0.2333963347681879
 33
0.0
210
0.0
220
0.0
230
-1.0
  0
SOLID
  5
741
  8
0
  6
CONTINUOUS
 62
     7
 10
1.6253409520725699
 20
-0.1907018832862023
 30
0.0
 11
1.32636073212045
 21
-0.1907018832862023
 31
0.0
 12
1.31600317026212
 22
-0.2333963347681879
 32
0.0
 13
1.31600317026212
 23
-0.2333963347681879
 33
0.0
210
0.0
220
0.0
230
-1.0
  0
SOLID
  5
742
  8
0
  6
CONTINUOUS
 62
     7
 10
-1.3160031702621191
 20
-0.2333963347681879
 30
0.0
 11
-1.5736050915002651
 21
-0.4382710708453452
 31
0.0
 12
-1.2663010970776549
 22
-0.4382710708453452
 32
0.0
 13
-1.2663010970776549
 23
-0.4382710708453452
 33
0.0
210
0.0
220
0.0
230
-1.0
  0
SOLID
  5
743
  8
0
  6
CONTINUOUS
 62
     7
 10
-1.3160031702621191
 20
-0.2333963347681879
 30
0.0
 11
-1.623307164684729
 21
-0.2333963347681879
 31
0.0
 12
-1.5736050915002651
 22
-0.4382710708453452
 32
0.0
 13
-1.5736050915002651
 23
-0.4382710708453452
 33
0.0
210
0.0
220
0.0
230
-1.0
  0
SOLID
  5
744
  8
0
  6
CONTINUOUS
 62
     7
 10
1.623307164684729
 20
-0.2333963347681879
 30
0.0
 11
1.266301097077656
 21
-0.4382710708453452
 31
0.0
 12
1.5736050915002651
 22
-0.4382710708453452
 32
0.0
 13
1.5736050915002651
 23
-0.4382710708453452
 33
0.0
210
0.0
220
0.0
230
-1.0
  0
SOLID
  5
745
  8
0
  6
CONTINUOUS
 62
     7
 10
1.623307164684729
 20
-0.2333963347681879
 30
0.0
 11
1.31600317026212
 21
-0.2333963347681879
 31
0.0
 12
1.266301097077656
 22
-0.4382710708453452
 32
0.0
 13
1.266301097077656
 23
-0.4382710708453452
 33
0.0
210
0.0
220
0.0
230
-1.0
  0
SOLID
  5
746
  8
0
  6
CONTINUOUS
 62
     7
 10
-1.2663010970776549
 20
-0.4382710708453452
 30
0.0
 11
-1.549801342692056
 21
-0.5363914598405718
 31
0.0
 12
-1.221491016871191
 22
-0.5363914598405718
 32
0.0
 13
-1.221491016871191
 23
-0.5363914598405718
 33
0.0
210
0.0
220
0.0
230
-1.0
  0
SOLID
  5
747
  8
0
  6
CONTINUOUS
 62
     7
 10
-1.2663010970776549
 20
-0.4382710708453452
 30
0.0
 11
-1.5736050915002651
 21
-0.4382710708453452
 31
0.0
 12
-1.549801342692056
 22
-0.5363914598405718
 32
0.0
 13
-1.549801342692056
 23
-0.5363914598405718
 33
0.0
210
0.0
220
0.0
230
-1.0
  0
SOLID
  5
748
  8
0
  6
CONTINUOUS
 62
     7
 10
1.5736050915002651
 20
-0.4382710708453452
 30
0.0
 11
1.2214910168711921
 21
-0.5363914598405718
 31
0.0
 12
1.549801342692056
 22
-0.5363914598405718
 32
0.0
 13
1.549801342692056
 23
-0.5363914598405718
 33
0.0
210
0.0
220
0.0
230
-1.0
  0
SOLID
  5
749
  8
0
  6
CONTINUOUS
 62
     7
 10
1.5736050915002651
 20
-0.4382710708453452
 30
0.0
 11
1.266301097077656
 21
-0.4382710708453452
 31
0.0
 12
1.2214910168711921
 22
-0.5363914598405718
 32
0.0
 13
1.2214910168711921
 23
-0.5363914598405718
 33
0.0
210
0.0
220
0.0
230
-1.0
  0
SOLID
  5
74A
  8
0
  6
CONTINUOUS
 62
     7
 10
-1.221491016871191
 20
-0.5363914598405718
 30
0.0
 11
-1.488784366892012
 21
-0.6700000000000003
 31
0.0
 12
-1.1604740410711469
 22
-0.6700000000000003
 32
0.0
 13
-1.1604740410711469
 23
-0.6700000000000003
 33
0.0
210
0.0
220
0.0
230
-1.0
  0
SOLID
  5
74B
  8
0
  6
CONTINUOUS
 62
     7
 10
-1.221491016871191
 20
-0.5363914598405718
 30
0.0
 11
-1.549801342692056
 21
-0.5363914598405718
 31
0.0
 12
-1.488784366892012
 22
-0.6700000000000003
 32
0.0
 13
-1.488784366892012
 23
-0.6700000000000003
 33
0.0
210
0.0
220
0.0
230
-1.0
  0
SOLID
  5
74C
  8
0
  6
CONTINUOUS
 62
     7
 10
1.549801342692056
 20
-0.5363914598405718
 30
0.0
 11
1.160474041071148
 21
-0.6700000000000003
 31
0.0
 12
1.488784366892012
 22
-0.6700000000000003
 32
0.0
 13
1.488784366892012
 23
-0.6700000000000003
 33
0.0
210
0.0
220
0.0
230
-1.0
  0
SOLID
  5
74D
  8
0
  6
CONTINUOUS
 62
     7
 10
1.549801342692056
 20
-0.5363914598405718
 30
0.0
 11
1.2214910168711921
 21
-0.5363914598405718
 31
0.0
 12
1.160474041071148
 22
-0.6700000000000003
 32
0.0
 13
1.160474041071148
 23
-0.6700000000000003
 33
0.0
210
0.0
220
0.0
230
-1.0
  0
SOLID
  5
74E
  8
0
  6
CONTINUOUS
 62
     7
 10
-1.1604740410711469
 20
-0.6700000000000003
 30
0.0
 11
-1.4202816622064789
 21
-0.8200000000000001
 31
0.0
 12
-1.0536595246142419
 22
-0.8200000000000001
 32
0.0
 13
-1.0536595246142419
 23
-0.8200000000000001
 33
0.0
210
0.0
220
0.0
230
-1.0
  0
SOLID
  5
74F
  8
0
  6
CONTINUOUS
 62
     7
 10
-1.1604740410711469
 20
-0.6700000000000003
 30
0.0
 11
-1.488784366892012
 21
-0.6700000000000003
 31
0.0
 12
-1.4202816622064789
 22
-0.8200000000000001
 32
0.0
 13
-1.4202816622064789
 23
-0.8200000000000001
 33
0.0
210
0.0
220
0.0
230
-1.0
  0
SOLID
  5
750
  8
0
  6
CONTINUOUS
 62
     7
 10
1.488784366892012
 20
-0.6700000000000003
 30
0.0
 11
1.0536595246142431
 21
-0.8200000000000001
 31
0.0
 12
1.4202816622064789
 22
-0.8200000000000001
 32
0.0
 13
1.4202816622064789
 23
-0.8200000000000001
 33
0.0
210
0.0
220
0.0
230
-1.0
  0
SOLID
  5
751
  8
0
  6
CONTINUOUS
 62
     7
 10
1.488784366892012
 20
-0.6700000000000003
 30
0.0
 11
1.160474041071148
 21
-0.6700000000000003
 31
0.0
 12
1.0536595246142431
 22
-0.8200000000000001
 32
0.0
 13
1.0536595246142431
 23
-0.8200000000000001
 33
0.0
210
0.0
220
0.0
230
-1.0
  0
SOLID
  5
752
  8
0
  6
CONTINUOUS
 62
     7
 10
-1.0536595246142419
 20
-0.8200000000000001
 30
0.0
 11
-1.3793265672269419
 21
-0.8775133834866823
 31
0.0
 12
-1.0127044296347061
 22
-0.8775133834866823
 32
0.0
 13
-1.0127044296347061
 23
-0.8775133834866823
 33
0.0
210
0.0
220
0.0
230
-1.0
  0
SOLID
  5
753
  8
0
  6
CONTINUOUS
 62
     7
 10
-1.0536595246142419
 20
-0.8200000000000001
 30
0.0
 11
-1.4202816622064789
 21
-0.8200000000000001
 31
0.0
 12
-1.3793265672269419
 22
-0.8775133834866823
 32
0.0
 13
-1.3793265672269419
 23
-0.8775133834866823
 33
0.0
210
0.0
220
0.0
230
-1.0
  0
SOLID
  5
754
  8
0
  6
CONTINUOUS
 62
     7
 10
1.4202816622064789
 20
-0.8200000000000001
 30
0.0
 11
1.0127044296347061
 21
-0.8775133834866823
 31
0.0
 12
1.3793265672269419
 22
-0.8775133834866823
 32
0.0
 13
1.3793265672269419
 23
-0.8775133834866823
 33
0.0
210
0.0
220
0.0
230
-1.0
  0
SOLID
  5
755
  8
0
  6
CONTINUOUS
 62
     7
 10
1.4202816622064789
 20
-0.8200000000000001
 30
0.0
 11
1.0536595246142431
 21
-0.8200000000000001
 31
0.0
 12
1.0127044296347061
 22
-0.8775133834866823
 32
0.0
 13
1.0127044296347061
 23
-0.8775133834866823
 33
0.0
210
0.0
220
0.0
230
-1.0
  0
SOLID
  5
756
  8
0
  6
CONTINUOUS
 62
     7
 10
-1.0127044296347061
 20
-0.8775133834866823
 30
0.0
 11
-1.2541415465662109
 21
-1.0533111469553349
 31
0.0
 12
-0.8283330415356109
 22
-1.0533111469553349
 32
0.0
 13
-0.8283330415356109
 23
-1.0533111469553349
 33
0.0
210
0.0
220
0.0
230
-1.0
  0
SOLID
  5
757
  8
0
  6
CONTINUOUS
 62
     7
 10
-1.0127044296347061
 20
-0.8775133834866823
 30
0.0
 11
-1.3793265672269419
 21
-0.8775133834866823
 31
0.0
 12
-1.2541415465662109
 22
-1.0533111469553349
 32
0.0
 13
-1.2541415465662109
 23
-1.0533111469553349
 33
0.0
210
0.0
220
0.0
230
-1.0
  0
SOLID
  5
758
  8
0
  6
CONTINUOUS
 62
     7
 10
1.3793265672269419
 20
-0.8775133834866823
 30
0.0
 11
0.8283330415356115
 21
-1.0533111469553349
 31
0.0
 12
1.254141546566212
 22
-1.0533111469553349
 32
0.0
 13
1.254141546566212
 23
-1.0533111469553349
 33
0.0
210
0.0
220
0.0
230
-1.0
  0
SOLID
  5
759
  8
0
  6
CONTINUOUS
 62
     7
 10
1.3793265672269419
 20
-0.8775133834866823
 30
0.0
 11
1.0127044296347061
 21
-0.8775133834866823
 31
0.0
 12
0.8283330415356115
 22
-1.0533111469553349
 32
0.0
 13
0.8283330415356115
 23
-1.0533111469553349
 33
0.0
210
0.0
220
0.0
230
-1.0
  0
SOLID
  5
75A
  8
0
  6
CONTINUOUS
 62
     7
 10
-0.8283330415356109
 20
-1.0533111469553349
 30
0.0
 11
-1.239429301940983
 21
-1.0739716036702669
 31
0.0
 12
-0.7961847433676325
 22
-1.0739716036702669
 32
0.0
 13
-0.7961847433676325
 23
-1.0739716036702669
 33
0.0
210
0.0
220
0.0
230
-1.0
  0
SOLID
  5
75B
  8
0
  6
CONTINUOUS
 62
     7
 10
-0.8283330415356109
 20
-1.0533111469553349
 30
0.0
 11
-1.2541415465662109
 21
-1.0533111469553349
 31
0.0
 12
-1.239429301940983
 22
-1.0739716036702669
 32
0.0
 13
-1.239429301940983
 23
-1.0739716036702669
 33
0.0
210
0.0
220
0.0
230
-1.0
  0
SOLID
  5
75C
  8
0
  6
CONTINUOUS
 62
     7
 10
1.254141546566212
 20
-1.0533111469553349
 30
0.0
 11
0.796184743367633
 21
-1.0739716036702669
 31
0.0
 12
1.239429301940983
 22
-1.0739716036702669
 32
0.0
 13
1.239429301940983
 23
-1.0739716036702669
 33
0.0
210
0.0
220
0.0
230
-1.0
  0
SOLID
  5
75D
  8
0
  6
CONTINUOUS
 62
     7
 10
1.254141546566212
 20
-1.0533111469553349
 30
0.0
 11
0.8283330415356115
 21
-1.0533111469553349
 31
0.0
 12
0.796184743367633
 22
-1.0739716036702669
 32
0.0
 13
0.796184743367633
 23
-1.0739716036702669
 33
0.0
210
0.0
220
0.0
230
-1.0
  0
SOLID
  5
75E
  8
0
  6
CONTINUOUS
 62
     7
 10
-0.7961847433676325
 20
-1.0739716036702669
 30
0.0
 11
-1.1166520245565339
 21
-1.1910395011975969
 31
0.0
 12
-0.61402353911473
 22
-1.1910395011975969
 32
0.0
 13
-0.61402353911473
 23
-1.1910395011975969
 33
0.0
210
0.0
220
0.0
230
-1.0
  0
SOLID
  5
75F
  8
0
  6
CONTINUOUS
 62
     7
 10
-0.7961847433676325
 20
-1.0739716036702669
 30
0.0
 11
-1.239429301940983
 21
-1.0739716036702669
 31
0.0
 12
-1.1166520245565339
 22
-1.1910395011975969
 32
0.0
 13
-1.1166520245565339
 23
-1.1910395011975969
 33
0.0
210
0.0
220
0.0
230
-1.0
  0
SOLID
  5
760
  8
0
  6
CONTINUOUS
 62
     7
 10
1.239429301940983
 20
-1.0739716036702669
 30
0.0
 11
0.6140235391147304
 21
-1.1910395011975969
 31
0.0
 12
1.116652024556535
 22
-1.1910395011975969
 32
0.0
 13
1.116652024556535
 23
-1.1910395011975969
 33
0.0
210
0.0
220
0.0
230
-1.0
  0
SOLID
  5
761
  8
0
  6
CONTINUOUS
 62
     7
 10
1.239429301940983
 20
-1.0739716036702669
 30
0.0
 11
0.796184743367633
 21
-1.0739716036702669
 31
0.0
 12
0.6140235391147304
 22
-1.1910395011975969
 32
0.0
 13
0.6140235391147304
 23
-1.1910395011975969
 33
0.0
210
0.0
220
0.0
230
-1.0
  0
SOLID
  5
762
  8
0
  6
CONTINUOUS
 62
     7
 10
-0.61402353911473
 20
-1.1910395011975969
 30
0.0
 11
-1.0173533620638999
 21
-1.2857205846434261
 31
0.0
 12
-0.3775216261675156
 22
-1.2857205846434261
 32
0.0
 13
-0.3775216261675156
 23
-1.2857205846434261
 33
0.0
210
0.0
220
0.0
230
-1.0
  0
SOLID
  5
763
  8
0
  6
CONTINUOUS
 62
     7
 10
-0.61402353911473
 20
-1.1910395011975969
 30
0.0
 11
-1.1166520245565339
 21
-1.1910395011975969
 31
0.0
 12
-1.0173533620638999
 22
-1.2857205846434261
 32
0.0
 13
-1.0173533620638999
 23
-1.2857205846434261
 33
0.0
210
0.0
220
0.0
230
-1.0
  0
SOLID
  5
764
  8
0
  6
CONTINUOUS
 62
     7
 10
1.116652024556535
 20
-1.1910395011975969
 30
0.0
 11
0.3775216261675162
 21
-1.2857205846434261
 31
0.0
 12
1.0173533620638999
 22
-1.2857205846434261
 32
0.0
 13
1.0173533620638999
 23
-1.2857205846434261
 33
0.0
210
0.0
220
0.0
230
-1.0
  0
SOLID
  5
765
  8
0
  6
CONTINUOUS
 62
     7
 10
1.116652024556535
 20
-1.1910395011975969
 30
0.0
 11
0.6140235391147304
 21
-1.1910395011975969
 31
0.0
 12
0.3775216261675162
 22
-1.2857205846434261
 32
0.0
 13
0.3775216261675162
 23
-1.2857205846434261
 33
0.0
210
0.0
220
0.0
230
-1.0
  0
SOLID
  5
766
  8
0
  6
CONTINUOUS
 62
     7
 10
-0.3775216261675156
 20
-1.2857205846434261
 30
0.0
 11
-1.013780737401792
 21
-1.289127075378171
 31
0.0
 12
-0.3598470739038857
 22
-1.289127075378171
 32
0.0
 13
-0.3598470739038857
 23
-1.289127075378171
 33
0.0
210
0.0
220
0.0
230
-1.0
  0
SOLID
  5
767
  8
0
  6
CONTINUOUS
 62
     7
 10
-0.3775216261675156
 20
-1.2857205846434261
 30
0.0
 11
-1.0173533620638999
 21
-1.2857205846434261
 31
0.0
 12
-1.013780737401792
 22
-1.289127075378171
 32
0.0
 13
-1.013780737401792
 23
-1.289127075378171
 33
0.0
210
0.0
220
0.0
230
-1.0
  0
SOLID
  5
768
  8
0
  6
CONTINUOUS
 62
     7
 10
1.0173533620638999
 20
-1.2857205846434261
 30
0.0
 11
0.3598470739038863
 21
-1.289127075378171
 31
0.0
 12
1.013780737401792
 22
-1.289127075378171
 32
0.0
 13
1.013780737401792
 23
-1.289127075378171
 33
0.0
210
0.0
220
0.0
230
-1.0
  0
SOLID
  5
769
  8
0
  6
CONTINUOUS
 62
     7
 10
1.0173533620638999
 20
-1.2857205846434261
 30
0.0
 11
0.3775216261675162
 21
-1.2857205846434261
 31
0.0
 12
0.3598470739038863
 22
-1.289127075378171
 32
0.0
 13
0.3598470739038863
 23
-1.289127075378171
 33
0.0
210
0.0
220
0.0
230
-1.0
  0
SOLID
  5
76A
  8
0
  6
CONTINUOUS
 62
     7
 10
-0.3598470739038857
 20
-1.289127075378171
 30
0.0
 11
-0.9440623283781387
 21
-1.3339323762479329
 31
0.0
 12
-0.1273750980276045
 22
-1.3339323762479329
 32
0.0
 13
-0.1273750980276045
 23
-1.3339323762479329
 33
0.0
210
0.0
220
0.0
230
-1.0
  0
SOLID
  5
76B
  8
0
  6
CONTINUOUS
 62
     7
 10
-0.3598470739038857
 20
-1.289127075378171
 30
0.0
 11
-1.013780737401792
 21
-1.289127075378171
 31
0.0
 12
-0.9440623283781387
 22
-1.3339323762479329
 32
0.0
 13
-0.9440623283781387
 23
-1.3339323762479329
 33
0.0
210
0.0
220
0.0
230
-1.0
  0
SOLID
  5
76C
  8
0
  6
CONTINUOUS
 62
     7
 10
1.013780737401792
 20
-1.289127075378171
 30
0.0
 11
0.127375098027605
 21
-1.3339323762479329
 31
0.0
 12
0.9440623283781393
 22
-1.3339323762479329
 32
0.0
 13
0.9440623283781393
 23
-1.3339323762479329
 33
0.0
210
0.0
220
0.0
230
-1.0
  0
SOLID
  5
76D
  8
0
  6
CONTINUOUS
 62
     7
 10
1.013780737401792
 20
-1.289127075378171
 30
0.0
 11
0.3598470739038863
 21
-1.289127075378171
 31
0.0
 12
0.127375098027605
 22
-1.3339323762479329
 32
0.0
 13
0.127375098027605
 23
-1.3339323762479329
 33
0.0
210
0.0
220
0.0
230
-1.0
  0
SOLID
  5
76E
  8
0
  6
CONTINUOUS
 62
     7
 10
0.9440623283781393
 20
-1.3339323762479329
 30
0.0
 11
-0.7514914956329527
 21
-1.4576901357940739
 31
0.0
 12
0.7514914956329533
 22
-1.4576901357940739
 32
0.0
 13
0.7514914956329533
 23
-1.4576901357940739
 33
0.0
210
0.0
220
0.0
230
-1.0
  0
SOLID
  5
76F
  8
0
  6
CONTINUOUS
 62
     7
 10
0.9440623283781393
 20
-1.3339323762479329
 30
0.0
 11
-0.9440623283781387
 21
-1.3339323762479329
 31
0.0
 12
-0.7514914956329527
 22
-1.4576901357940739
 32
0.0
 13
-0.7514914956329527
 23
-1.4576901357940739
 33
0.0
210
0.0
220
0.0
230
-1.0
  0
SOLID
  5
770
  8
0
  6
CONTINUOUS
 62
     7
 10
0.7514914956329533
 20
-1.4576901357940739
 30
0.0
 11
-0.4620413932199444
 21
-1.5735684767277749
 31
0.0
 12
0.462041393219945
 22
-1.5735684767277749
 32
0.0
 13
0.462041393219945
 23
-1.5735684767277749
 33
0.0
210
0.0
220
0.0
230
-1.0
  0
SOLID
  5
771
  8
0
  6
CONTINUOUS
 62
     7
 10
0.7514914956329533
 20
-1.4576901357940739
 30
0.0
 11
-0.7514914956329527
 21
-1.4576901357940739
 31
0.0
 12
-0.4620413932199444
 22
-1.5735684767277749
 32
0.0
 13
-0.4620413932199444
 23
-1.5735684767277749
 33
0.0
210
0.0
220
0.0
230
-1.0
  0
SOLID
  5
772
  8
0
  6
CONTINUOUS
 62
     7
 10
0.462041393219945
 20
-1.5735684767277749
 30
0.0
 11
-0.1558919110188592
 21
-1.632573953019858
 31
0.0
 12
0.1558919110188599
 22
-1.632573953019858
 32
0.0
 13
0.1558919110188599
 23
-1.632573953019858
 33
0.0
210
0.0
220
0.0
230
-1.0
  0
SOLID
  5
773
  8
0
  6
CONTINUOUS
 62
     7
 10
0.462041393219945
 20
-1.5735684767277749
 30
0.0
 11
-0.4620413932199444
 21
-1.5735684767277749
 31
0.0
 12
-0.1558919110188592
 22
-1.632573953019858
 32
0.0
 13
-0.1558919110188592
 23
-1.632573953019858
 33
0.0
210
0.0
220
0.0
230
-1.0
  0
LINE
  5
774
  8
0
  6
CONTINUOUS
 62
     7
 10
0.0
 20
1.639999999999999
 30
0.0
 11
0.3103720407510778
 21
1.6103630635108379
 31
0.0
  0
LINE
  5
775
  8
0
  6
CONTINUOUS
 62
     7
 10
-0.3103720407510726
 20
1.6103630635108379
 30
0.0
 11
0.0
 21
1.639999999999999
 31
0.0
  0
LINE
  5
776
  8
0
  6
CONTINUOUS
 62
     7
 10
-0.609526427282937
 20
1.5225234101463581
 30
0.0
 11
-0.3103720407510726
 21
1.6103630635108379
 31
0.0
  0
LINE
  5
777
  8
0
  6
CONTINUOUS
 62
     7
 10
0.3103720407510746
 20
1.6103630635108379
 30
0.0
 11
0.6095264272829382
 21
1.5225234101463581
 31
0.0
  0
LINE
  5
778
  8
0
  6
CONTINUOUS
 62
     7
 10
-0.8866509406271799
 20
1.3796557938431371
 30
0.0
 11
-0.609526427282937
 21
1.5225234101463581
 31
0.0
  0
LINE
  5
779
  8
0
  6
CONTINUOUS
 62
     7
 10
0.6095264272829379
 20
1.5225234101463581
 30
0.0
 11
0.8866509406271802
 21
1.3796557938431371
 31
0.0
  0
LINE
  5
77A
  8
0
  6
CONTINUOUS
 62
     7
 10
-0.9370773845837117
 20
1.3400000000000001
 30
0.0
 11
-0.8866509406271799
 21
1.3796557938431371
 31
0.0
  0
LINE
  5
77B
  8
0
  6
CONTINUOUS
 62
     7
 10
0.8866509406271802
 20
1.3796557938431371
 30
0.0
 11
0.9370773845837119
 21
1.3400000000000001
 31
0.0
  0
LINE
  5
77C
  8
0
  6
CONTINUOUS
 62
     7
 10
0.9370773845837119
 20
1.3400000000000001
 30
0.0
 11
0.9678699558113384
 21
1.315784454332027
 31
0.0
  0
LINE
  5
77D
  8
0
  6
CONTINUOUS
 62
     7
 10
-0.9678699558113383
 20
1.315784454332027
 30
0.0
 11
-0.9370773845837117
 21
1.3400000000000001
 31
0.0
  0
LINE
  5
77E
  8
0
  6
CONTINUOUS
 62
     7
 10
0.4980276905848394
 20
1.2440130302415371
 30
0.0
 11
0.253596667442951
 21
1.315784454332027
 31
0.0
  0
LINE
  5
77F
  8
0
  6
CONTINUOUS
 62
     7
 10
0.9678699558113384
 20
1.315784454332027
 30
0.0
 11
1.05913474574079
 21
1.2440130302415371
 31
0.0
  0
LINE
  5
780
  8
0
  6
CONTINUOUS
 62
     7
 10
-1.05913474574079
 20
1.2440130302415371
 30
0.0
 11
-0.9678699558113383
 21
1.315784454332027
 31
0.0
  0
LINE
  5
781
  8
0
  6
CONTINUOUS
 62
     7
 10
-0.2535966674429497
 20
1.315784454332027
 30
0.0
 11
-0.4980276905848389
 21
1.2440130302415371
 31
0.0
  0
LINE
  5
782
  8
0
  6
CONTINUOUS
 62
     7
 10
0.608765304356834
 20
1.186923822492314
 30
0.0
 11
0.4980276905848394
 21
1.2440130302415371
 31
0.0
  0
LINE
  5
783
  8
0
  6
CONTINUOUS
 62
     7
 10
1.05913474574079
 20
1.2440130302415371
 30
0.0
 11
1.1317295788306629
 21
1.186923822492314
 31
0.0
  0
LINE
  5
784
  8
0
  6
CONTINUOUS
 62
     7
 10
-1.1317295788306629
 20
1.186923822492314
 30
0.0
 11
-1.05913474574079
 21
1.2440130302415371
 31
0.0
  0
LINE
  5
785
  8
0
  6
CONTINUOUS
 62
     7
 10
-0.4980276905848389
 20
1.2440130302415371
 30
0.0
 11
-0.6087653043568336
 21
1.186923822492314
 31
0.0
  0
LINE
  5
786
  8
0
  6
CONTINUOUS
 62
     7
 10
0.7244586953905012
 20
1.127279733993783
 30
0.0
 11
0.608765304356834
 21
1.186923822492314
 31
0.0
  0
LINE
  5
787
  8
0
  6
CONTINUOUS
 62
     7
 10
1.1317295788306629
 20
1.186923822492314
 30
0.0
 11
1.183411475711676
 21
1.127279733993783
 31
0.0
  0
LINE
  5
788
  8
0
  6
CONTINUOUS
 62
     7
 10
-1.183411475711676
 20
1.127279733993783
 30
0.0
 11
-1.1317295788306629
 21
1.186923822492314
 31
0.0
  0
LINE
  5
789
  8
0
  6
CONTINUOUS
 62
     7
 10
-0.6087653043568336
 20
1.186923822492314
 30
0.0
 11
-0.7244586953905009
 21
1.127279733993783
 31
0.0
  0
LINE
  5
78A
  8
0
  6
CONTINUOUS
 62
     7
 10
0.9247058753860304
 20
0.969803611060794
 30
0.0
 11
0.7244586953905012
 21
1.127279733993783
 31
0.0
  0
LINE
  5
78B
  8
0
  6
CONTINUOUS
 62
     7
 10
1.183411475711676
 20
1.127279733993783
 30
0.0
 11
1.3198653129908691
 21
0.969803611060794
 31
0.0
  0
LINE
  5
78C
  8
0
  6
CONTINUOUS
 62
     7
 10
-1.3198653129908691
 20
0.969803611060794
 30
0.0
 11
-1.183411475711676
 21
1.127279733993783
 31
0.0
  0
LINE
  5
78D
  8
0
  6
CONTINUOUS
 62
     7
 10
-0.7244586953905009
 20
1.127279733993783
 30
0.0
 11
-0.9247058753860301
 21
0.969803611060794
 31
0.0
  0
LINE
  5
78E
  8
0
  6
CONTINUOUS
 62
     7
 10
0.940745123757712
 20
0.9512933316967647
 30
0.0
 11
0.9247058753860304
 21
0.969803611060794
 31
0.0
  0
LINE
  5
78F
  8
0
  6
CONTINUOUS
 62
     7
 10
1.3198653129908691
 20
0.969803611060794
 30
0.0
 11
1.33590456136255
 21
0.9512933316967647
 31
0.0
  0
LINE
  5
790
  8
0
  6
CONTINUOUS
 62
     7
 10
-1.33590456136255
 20
0.9512933316967647
 30
0.0
 11
-1.3198653129908691
 21
0.969803611060794
 31
0.0
  0
LINE
  5
791
  8
0
  6
CONTINUOUS
 62
     7
 10
-0.9247058753860301
 20
0.969803611060794
 30
0.0
 11
-0.9407451237577117
 21
0.9512933316967647
 31
0.0
  0
LINE
  5
792
  8
0
  6
CONTINUOUS
 62
     7
 10
1.0915317757474501
 20
0.7772762588254057
 30
0.0
 11
0.940745123757712
 21
0.9512933316967647
 31
0.0
  0
LINE
  5
793
  8
0
  6
CONTINUOUS
 62
     7
 10
1.33590456136255
 20
0.9512933316967647
 30
0.0
 11
1.4363733652284201
 21
0.7772762588254057
 31
0.0
  0
LINE
  5
794
  8
0
  6
CONTINUOUS
 62
     7
 10
-1.4363733652284201
 20
0.7772762588254057
 30
0.0
 11
-1.33590456136255
 21
0.9512933316967647
 31
0.0
  0
LINE
  5
795
  8
0
  6
CONTINUOUS
 62
     7
 10
-0.9407451237577117
 20
0.9512933316967647
 30
0.0
 11
-1.0915317757474501
 21
0.7772762588254057
 31
0.0
  0
LINE
  5
796
  8
0
  6
CONTINUOUS
 62
     7
 10
1.146954882900439
 20
0.6812806213230934
 30
0.0
 11
1.0915317757474501
 21
0.7772762588254057
 31
0.0
  0
LINE
  5
797
  8
0
  6
CONTINUOUS
 62
     7
 10
1.4363733652284201
 20
0.7772762588254057
 30
0.0
 11
1.4917964723814101
 21
0.6812806213230934
 31
0.0
  0
LINE
  5
798
  8
0
  6
CONTINUOUS
 62
     7
 10
-1.4917964723814101
 20
0.6812806213230934
 30
0.0
 11
-1.4363733652284201
 21
0.7772762588254057
 31
0.0
  0
LINE
  5
799
  8
0
  6
CONTINUOUS
 62
     7
 10
-1.0915317757474501
 20
0.7772762588254057
 30
0.0
 11
-1.146954882900439
 21
0.6812806213230934
 31
0.0
  0
LINE
  5
79A
  8
0
  6
CONTINUOUS
 62
     7
 10
1.218906873775055
 20
0.5566561174225279
 30
0.0
 11
1.146954882900439
 21
0.6812806213230934
 31
0.0
  0
LINE
  5
79B
  8
0
  6
CONTINUOUS
 62
     7
 10
1.4917964723814101
 20
0.6812806213230934
 30
0.0
 11
1.5349294325471401
 21
0.5566561174225279
 31
0.0
  0
LINE
  5
79C
  8
0
  6
CONTINUOUS
 62
     7
 10
-1.5349294325471401
 20
0.5566561174225279
 30
0.0
 11
-1.4917964723814101
 21
0.6812806213230934
 31
0.0
  0
LINE
  5
79D
  8
0
  6
CONTINUOUS
 62
     7
 10
-1.146954882900439
 20
0.6812806213230934
 30
0.0
 11
-1.218906873775055
 21
0.5566561174225279
 31
0.0
  0
LINE
  5
79E
  8
0
  6
CONTINUOUS
 62
     7
 10
1.2777484132785231
 20
0.3866446542354602
 30
0.0
 11
1.218906873775055
 21
0.5566561174225279
 31
0.0
  0
LINE
  5
79F
  8
0
  6
CONTINUOUS
 62
     7
 10
1.5349294325471401
 20
0.5566561174225279
 30
0.0
 11
1.5937709720506079
 21
0.3866446542354602
 31
0.0
  0
LINE
  5
7A0
  8
0
  6
CONTINUOUS
 62
     7
 10
-1.5937709720506079
 20
0.3866446542354602
 30
0.0
 11
-1.5349294325471401
 21
0.5566561174225279
 31
0.0
  0
LINE
  5
7A1
  8
0
  6
CONTINUOUS
 62
     7
 10
-1.218906873775055
 20
0.5566561174225279
 30
0.0
 11
-1.2777484132785231
 21
0.3866446542354602
 31
0.0
  0
LINE
  5
7A2
  8
0
  6
CONTINUOUS
 62
     7
 10
1.3022275015535461
 20
0.3159169735826323
 30
0.0
 11
1.2777484132785231
 21
0.3866446542354602
 31
0.0
  0
LINE
  5
7A3
  8
0
  6
CONTINUOUS
 62
     7
 10
1.5937709720506079
 20
0.3866446542354602
 30
0.0
 11
1.603940077313093
 21
0.3159169735826323
 31
0.0
  0
LINE
  5
7A4
  8
0
  6
CONTINUOUS
 62
     7
 10
-1.603940077313093
 20
0.3159169735826323
 30
0.0
 11
-1.5937709720506079
 21
0.3866446542354602
 31
0.0
  0
LINE
  5
7A5
  8
0
  6
CONTINUOUS
 62
     7
 10
-1.2777484132785231
 20
0.3866446542354602
 30
0.0
 11
-1.3022275015535461
 21
0.3159169735826323
 31
0.0
  0
LINE
  5
7A6
  8
0
  6
CONTINUOUS
 62
     7
 10
1.3364298605005851
 20
0.078034341950937
 30
0.0
 11
1.3022275015535461
 21
0.3159169735826323
 31
0.0
  0
LINE
  5
7A7
  8
0
  6
CONTINUOUS
 62
     7
 10
1.603940077313093
 20
0.3159169735826323
 30
0.0
 11
1.6381424362601329
 21
0.078034341950937
 31
0.0
  0
LINE
  5
7A8
  8
0
  6
CONTINUOUS
 62
     7
 10
-1.6381424362601329
 20
0.078034341950937
 30
0.0
 11
-1.603940077313093
 21
0.3159169735826323
 31
0.0
  0
LINE
  5
7A9
  8
0
  6
CONTINUOUS
 62
     7
 10
-1.3022275015535461
 20
0.3159169735826323
 30
0.0
 11
-1.336429860500586
 21
0.078034341950937
 31
0.0
  0
LINE
  5
7AA
  8
0
  6
CONTINUOUS
 62
     7
 10
1.3384822345052301
 20
0.0637597672038145
 30
0.0
 11
1.3364298605005851
 21
0.078034341950937
 31
0.0
  0
LINE
  5
7AB
  8
0
  6
CONTINUOUS
 62
     7
 10
1.6381424362601329
 20
0.078034341950937
 30
0.0
 11
1.6374624544573511
 21
0.0637597672038145
 31
0.0
  0
LINE
  5
7AC
  8
0
  6
CONTINUOUS
 62
     7
 10
-1.6374624544573511
 20
0.0637597672038145
 30
0.0
 11
-1.6381424362601329
 21
0.078034341950937
 31
0.0
  0
LINE
  5
7AD
  8
0
  6
CONTINUOUS
 62
     7
 10
-1.336429860500586
 20
0.078034341950937
 30
0.0
 11
-1.338482234505231
 21
0.0637597672038145
 31
0.0
  0
LINE
  5
7AE
  8
0
  6
CONTINUOUS
 62
     7
 10
1.32636073212045
 20
-0.1907018832862023
 30
0.0
 11
1.3384822345052301
 21
0.0637597672038145
 31
0.0
  0
LINE
  5
7AF
  8
0
  6
CONTINUOUS
 62
     7
 10
1.6374624544573511
 20
0.0637597672038145
 30
0.0
 11
1.6253409520725699
 21
-0.1907018832862023
 31
0.0
  0
LINE
  5
7B0
  8
0
  6
CONTINUOUS
 62
     7
 10
-1.6253409520725699
 20
-0.1907018832862023
 30
0.0
 11
-1.6374624544573511
 21
0.0637597672038145
 31
0.0
  0
LINE
  5
7B1
  8
0
  6
CONTINUOUS
 62
     7
 10
-1.338482234505231
 20
0.0637597672038145
 30
0.0
 11
-1.32636073212045
 21
-0.1907018832862023
 31
0.0
  0
LINE
  5
7B2
  8
0
  6
CONTINUOUS
 62
     7
 10
-0.215
 20
-0.215
 30
0.0
 11
-0.215
 21
0.215
 31
0.0
  0
LINE
  5
7B3
  8
0
  6
CONTINUOUS
 62
     7
 10
0.215
 20
0.215
 30
0.0
 11
0.215
 21
-0.215
 31
0.0
  0
LINE
  5
7B4
  8
0
  6
CONTINUOUS
 62
     7
 10
1.3160031702621191
 20
-0.2333963347681879
 30
0.0
 11
1.32636073212045
 21
-0.1907018832862023
 31
0.0
  0
LINE
  5
7B5
  8
0
  6
CONTINUOUS
 62
     7
 10
1.6253409520725699
 20
-0.1907018832862023
 30
0.0
 11
1.623307164684729
 21
-0.2333963347681879
 31
0.0
  0
LINE
  5
7B6
  8
0
  6
CONTINUOUS
 62
     7
 10
-1.623307164684729
 20
-0.2333963347681879
 30
0.0
 11
-1.6253409520725699
 21
-0.1907018832862023
 31
0.0
  0
LINE
  5
7B7
  8
0
  6
CONTINUOUS
 62
     7
 10
-1.32636073212045
 20
-0.1907018832862023
 30
0.0
 11
-1.31600317026212
 21
-0.2333963347681879
 31
0.0
  0
LINE
  5
7B8
  8
0
  6
CONTINUOUS
 62
     7
 10
1.2663010970776549
 20
-0.4382710708453452
 30
0.0
 11
1.3160031702621191
 21
-0.2333963347681879
 31
0.0
  0
LINE
  5
7B9
  8
0
  6
CONTINUOUS
 62
     7
 10
1.623307164684729
 20
-0.2333963347681879
 30
0.0
 11
1.5736050915002651
 21
-0.4382710708453452
 31
0.0
  0
LINE
  5
7BA
  8
0
  6
CONTINUOUS
 62
     7
 10
-1.5736050915002651
 20
-0.4382710708453452
 30
0.0
 11
-1.623307164684729
 21
-0.2333963347681879
 31
0.0
  0
LINE
  5
7BB
  8
0
  6
CONTINUOUS
 62
     7
 10
-1.31600317026212
 20
-0.2333963347681879
 30
0.0
 11
-1.266301097077656
 21
-0.4382710708453452
 31
0.0
  0
LINE
  5
7BC
  8
0
  6
CONTINUOUS
 62
     7
 10
1.221491016871191
 20
-0.5363914598405718
 30
0.0
 11
1.2663010970776549
 21
-0.4382710708453452
 31
0.0
  0
LINE
  5
7BD
  8
0
  6
CONTINUOUS
 62
     7
 10
1.5736050915002651
 20
-0.4382710708453452
 30
0.0
 11
1.549801342692056
 21
-0.5363914598405718
 31
0.0
  0
LINE
  5
7BE
  8
0
  6
CONTINUOUS
 62
     7
 10
-1.549801342692056
 20
-0.5363914598405718
 30
0.0
 11
-1.5736050915002651
 21
-0.4382710708453452
 31
0.0
  0
LINE
  5
7BF
  8
0
  6
CONTINUOUS
 62
     7
 10
-1.266301097077656
 20
-0.4382710708453452
 30
0.0
 11
-1.2214910168711921
 21
-0.5363914598405718
 31
0.0
  0
LINE
  5
7C0
  8
0
  6
CONTINUOUS
 62
     7
 10
1.1604740410711469
 20
-0.6700000000000003
 30
0.0
 11
1.221491016871191
 21
-0.5363914598405718
 31
0.0
  0
LINE
  5
7C1
  8
0
  6
CONTINUOUS
 62
     7
 10
1.549801342692056
 20
-0.5363914598405718
 30
0.0
 11
1.488784366892012
 21
-0.6700000000000003
 31
0.0
  0
LINE
  5
7C2
  8
0
  6
CONTINUOUS
 62
     7
 10
-1.488784366892012
 20
-0.6700000000000003
 30
0.0
 11
-1.549801342692056
 21
-0.5363914598405718
 31
0.0
  0
LINE
  5
7C3
  8
0
  6
CONTINUOUS
 62
     7
 10
-1.2214910168711921
 20
-0.5363914598405718
 30
0.0
 11
-1.160474041071148
 21
-0.6700000000000003
 31
0.0
  0
LINE
  5
7C4
  8
0
  6
CONTINUOUS
 62
     7
 10
1.0536595246142419
 20
-0.8200000000000001
 30
0.0
 11
1.1604740410711469
 21
-0.6700000000000003
 31
0.0
  0
LINE
  5
7C5
  8
0
  6
CONTINUOUS
 62
     7
 10
1.488784366892012
 20
-0.6700000000000003
 30
0.0
 11
1.4202816622064789
 21
-0.8200000000000001
 31
0.0
  0
LINE
  5
7C6
  8
0
  6
CONTINUOUS
 62
     7
 10
-1.4202816622064789
 20
-0.8200000000000001
 30
0.0
 11
-1.488784366892012
 21
-0.6700000000000003
 31
0.0
  0
LINE
  5
7C7
  8
0
  6
CONTINUOUS
 62
     7
 10
-1.160474041071148
 20
-0.6700000000000003
 30
0.0
 11
-1.0536595246142431
 21
-0.8200000000000001
 31
0.0
  0
LINE
  5
7C8
  8
0
  6
CONTINUOUS
 62
     7
 10
1.0127044296347061
 20
-0.8775133834866823
 30
0.0
 11
1.0536595246142419
 21
-0.8200000000000001
 31
0.0
  0
LINE
  5
7C9
  8
0
  6
CONTINUOUS
 62
     7
 10
1.4202816622064789
 20
-0.8200000000000001
 30
0.0
 11
1.3793265672269419
 21
-0.8775133834866823
 31
0.0
  0
LINE
  5
7CA
  8
0
  6
CONTINUOUS
 62
     7
 10
-1.3793265672269419
 20
-0.8775133834866823
 30
0.0
 11
-1.4202816622064789
 21
-0.8200000000000001
 31
0.0
  0
LINE
  5
7CB
  8
0
  6
CONTINUOUS
 62
     7
 10
-1.0536595246142431
 20
-0.8200000000000001
 30
0.0
 11
-1.0127044296347061
 21
-0.8775133834866823
 31
0.0
  0
LINE
  5
7CC
  8
0
  6
CONTINUOUS
 62
     7
 10
0.8283330415356109
 20
-1.0533111469553349
 30
0.0
 11
1.0127044296347061
 21
-0.8775133834866823
 31
0.0
  0
LINE
  5
7CD
  8
0
  6
CONTINUOUS
 62
     7
 10
1.3793265672269419
 20
-0.8775133834866823
 30
0.0
 11
1.2541415465662109
 21
-1.0533111469553349
 31
0.0
  0
LINE
  5
7CE
  8
0
  6
CONTINUOUS
 62
     7
 10
-1.254141546566212
 20
-1.0533111469553349
 30
0.0
 11
-1.3793265672269419
 21
-0.8775133834866823
 31
0.0
  0
LINE
  5
7CF
  8
0
  6
CONTINUOUS
 62
     7
 10
-1.0127044296347061
 20
-0.8775133834866823
 30
0.0
 11
-0.8283330415356115
 21
-1.0533111469553349
 31
0.0
  0
LINE
  5
7D0
  8
0
  6
CONTINUOUS
 62
     7
 10
0.7961847433676325
 20
-1.0739716036702669
 30
0.0
 11
0.8283330415356109
 21
-1.0533111469553349
 31
0.0
  0
LINE
  5
7D1
  8
0
  6
CONTINUOUS
 62
     7
 10
1.2541415465662109
 20
-1.0533111469553349
 30
0.0
 11
1.239429301940983
 21
-1.0739716036702669
 31
0.0
  0
LINE
  5
7D2
  8
0
  6
CONTINUOUS
 62
     7
 10
-1.239429301940983
 20
-1.0739716036702669
 30
0.0
 11
-1.254141546566212
 21
-1.0533111469553349
 31
0.0
  0
LINE
  5
7D3
  8
0
  6
CONTINUOUS
 62
     7
 10
-0.8283330415356115
 20
-1.0533111469553349
 30
0.0
 11
-0.796184743367633
 21
-1.0739716036702669
 31
0.0
  0
LINE
  5
7D4
  8
0
  6
CONTINUOUS
 62
     7
 10
0.61402353911473
 20
-1.1910395011975969
 30
0.0
 11
0.7961847433676325
 21
-1.0739716036702669
 31
0.0
  0
LINE
  5
7D5
  8
0
  6
CONTINUOUS
 62
     7
 10
1.239429301940983
 20
-1.0739716036702669
 30
0.0
 11
1.1166520245565339
 21
-1.1910395011975969
 31
0.0
  0
LINE
  5
7D6
  8
0
  6
CONTINUOUS
 62
     7
 10
-1.116652024556535
 20
-1.1910395011975969
 30
0.0
 11
-1.239429301940983
 21
-1.0739716036702669
 31
0.0
  0
LINE
  5
7D7
  8
0
  6
CONTINUOUS
 62
     7
 10
-0.796184743367633
 20
-1.0739716036702669
 30
0.0
 11
-0.6140235391147304
 21
-1.1910395011975969
 31
0.0
  0
LINE
  5
7D8
  8
0
  6
CONTINUOUS
 62
     7
 10
0.3775216261675156
 20
-1.2857205846434261
 30
0.0
 11
0.61402353911473
 21
-1.1910395011975969
 31
0.0
  0
LINE
  5
7D9
  8
0
  6
CONTINUOUS
 62
     7
 10
1.1166520245565339
 20
-1.1910395011975969
 30
0.0
 11
1.0173533620638999
 21
-1.2857205846434261
 31
0.0
  0
LINE
  5
7DA
  8
0
  6
CONTINUOUS
 62
     7
 10
-1.0173533620638999
 20
-1.2857205846434261
 30
0.0
 11
-1.116652024556535
 21
-1.1910395011975969
 31
0.0
  0
LINE
  5
7DB
  8
0
  6
CONTINUOUS
 62
     7
 10
-0.6140235391147304
 20
-1.1910395011975969
 30
0.0
 11
-0.3775216261675162
 21
-1.2857205846434261
 31
0.0
  0
LINE
  5
7DC
  8
0
  6
CONTINUOUS
 62
     7
 10
0.3598470739038857
 20
-1.289127075378171
 30
0.0
 11
0.3775216261675156
 21
-1.2857205846434261
 31
0.0
  0
LINE
  5
7DD
  8
0
  6
CONTINUOUS
 62
     7
 10
1.0173533620638999
 20
-1.2857205846434261
 30
0.0
 11
1.013780737401792
 21
-1.289127075378171
 31
0.0
  0
LINE
  5
7DE
  8
0
  6
CONTINUOUS
 62
     7
 10
-1.013780737401792
 20
-1.289127075378171
 30
0.0
 11
-1.0173533620638999
 21
-1.2857205846434261
 31
0.0
  0
LINE
  5
7DF
  8
0
  6
CONTINUOUS
 62
     7
 10
-0.3775216261675162
 20
-1.2857205846434261
 30
0.0
 11
-0.3598470739038863
 21
-1.289127075378171
 31
0.0
  0
LINE
  5
7E0
  8
0
  6
CONTINUOUS
 62
     7
 10
0.1273750980276045
 20
-1.3339323762479329
 30
0.0
 11
0.3598470739038857
 21
-1.289127075378171
 31
0.0
  0
LINE
  5
7E1
  8
0
  6
CONTINUOUS
 62
     7
 10
1.013780737401792
 20
-1.289127075378171
 30
0.0
 11
0.9440623283781387
 21
-1.3339323762479329
 31
0.0
  0
LINE
  5
7E2
  8
0
  6
CONTINUOUS
 62
     7
 10
-0.9440623283781393
 20
-1.3339323762479329
 30
0.0
 11
-1.013780737401792
 21
-1.289127075378171
 31
0.0
  0
LINE
  5
7E3
  8
0
  6
CONTINUOUS
 62
     7
 10
-0.3598470739038863
 20
-1.289127075378171
 30
0.0
 11
-0.127375098027605
 21
-1.3339323762479329
 31
0.0
  0
LINE
  5
7E4
  8
0
  6
CONTINUOUS
 62
     7
 10
-0.7514914956329533
 20
-1.4576901357940739
 30
0.0
 11
-0.9440623283781393
 21
-1.3339323762479329
 31
0.0
  0
LINE
  5
7E5
  8
0
  6
CONTINUOUS
 62
     7
 10
0.9440623283781387
 20
-1.3339323762479329
 30
0.0
 11
0.7514914956329527
 21
-1.4576901357940739
 31
0.0
  0
LINE
  5
7E6
  8
0
  6
CONTINUOUS
 62
     7
 10
-0.462041393219945
 20
-1.5735684767277749
 30
0.0
 11
-0.7514914956329533
 21
-1.4576901357940739
 31
0.0
  0
LINE
  5
7E7
  8
0
  6
CONTINUOUS
 62
     7
 10
0.7514914956329527
 20
-1.4576901357940739
 30
0.0
 11
0.4620413932199444
 21
-1.5735684767277749
 31
0.0
  0
LINE
  5
7E8
  8
0
  6
CONTINUOUS
 62
     7
 10
-0.1558919110188599
 20
-1.632573953019858
 30
0.0
 11
-0.462041393219945
 21
-1.5735684767277749
 31
0.0
  0
LINE
  5
7E9
  8
0
  6
CONTINUOUS
 62
     7
 10
0.4620413932199444
 20
-1.5735684767277749
 30
0.0
 11
0.1558919110188592
 21
-1.632573953019858
 31
0.0
  0
ENDBLK
  5
7EB
  8
0
  0
ENDSEC
  0
SECTION
  2
ENTITIES
  0
INSERT
  5
AD
  8
ŒœŒ–€
 62
   250
 66
     1
  2
BL2
 10
2268516.3932219068519771
 20
411473.0453001270070672
 30
0.0
 50
288.9145014286814899
  0
ATTRIB
  5
AF
  8
0
 10
2268519.3390658949501812
 20
411472.4691029438981786
 30
0.0
 40
2.0
  1
1
 50
288.9145014286817172
  2
ÕŒÃ≈–
 70
     0
  0
SEQEND
  5
AE
  8
ŒœŒ–€
  0
INSERT
  5
B0
  8
ŒœŒ–€
 62
   250
 66
     1
  2
BL2
 10
2268530.1094010728411376
 20
411433.0166812996030785
 30
0.0
 50
289.5583395351520153
  0
ATTRIB
  5
B2
  8
0
 10
2268533.0615337202325463
 20
411432.4736225263914093
 30
0.0
 40
2.0
  1
2
 50
289.5583395351520153
  2
ÕŒÃ≈–
 70
     0
  0
SEQEND
  5
B1
  8
ŒœŒ–€
  0
INSERT
  5
B3
  8
ŒœŒ–€
 62
   250
 66
     1
  2
BL2
 10
2268544.2446497650817037
 20
411393.2287675859988667
 30
0.0
 50
289.9127324860041881
  0
ATTRIB
  5
B5
  8
0
 10
2268547.2000849149189889
 20
411392.7039789810078219
 30
0.0
 40
2.0
  1
3
 50
289.9127324860041881
  2
ÕŒÃ≈–
 70
     0
  0
SEQEND
  5
B4
  8
ŒœŒ–€
  0
INSERT
  5
B6
  8
ŒœŒ–€
 62
   250
 66
     1
  2
BL2
 10
2268558.8941534222103655
 20
411352.7880419819266535
 30
0.0
 50
288.5157628255253144
  0
ATTRIB
  5
B8
  8
0
 10
2268561.8359161769039929
 20
411352.1913579009124078
 30
0.0
 40
2.0
  1
4
 50
288.5157628255253144
  2
ÕŒÃ≈–
 70
     0
  0
SEQEND
  5
B7
  8
ŒœŒ–€
  0
INSERT
  5
B9
  8
ŒœŒ–€
 62
   250
 66
     1
  2
BL2
 10
2268569.8870105328969657
 20
411319.9638684261008166
 30
0.0
 50
73.4652754497199965
  0
ATTRIB
  5
BB
  8
0
 10
2268567.3417522069066763
 20
411321.1890767741133459
 30
0.0
 40
2.0
  1
5
 50
73.4652754497199965
  2
ÕŒÃ≈–
 70
     0
  0
SEQEND
  5
BA
  8
ŒœŒ–€
  0
INSERT
  5
BC
  8
ŒœŒ–€
 62
   250
 66
     1
  2
BL2
 10
2268563.8347309487871826
 20
411299.5770946852280758
 30
0.0
 50
38.5178616280556625
  0
ATTRIB
  5
BE
  8
0
 10
2268562.6999040921218693
 20
411302.5125457218964584
 30
0.0
 40
2.0
  1
6
 50
38.5178616280556625
  2
ÕŒÃ≈–
 70
     0
  0
SEQEND
  5
BD
  8
ŒœŒ–€
  0
INSERT
  5
BF
  8
ŒœŒ–€
 62
   250
 66
     1
  2
BL2
 10
2268541.6840115361846983
 20
411281.94633958209306
 30
0.0
 50
11.0416615262452709
  0
ATTRIB
  5
C1
  8
0
 10
2268542.6582847451791167
 20
411284.7854929266031832
 30
0.0
 40
2.0
  1
7ASD
 50
11.0416615262452709
  2
ÕŒÃ≈–
 70
     0
  0
SEQEND
  5
C0
  8
ŒœŒ–€
  0
INSERT
  5
C2
  8
ŒœŒ–€
 62
   250
 66
     1
  2
BL2
 10
2268511.7707268018275499
 20
411276.1092101539834403
 30
0.0
 50
11.2533568097387509
  0
ATTRIB
  5
C4
  8
0
 10
2268512.7345033390447497
 20
411278.9519438361166976
 30
0.0
 40
2.0
  1
8
 50
11.2533568097387509
  2
ÕŒÃ≈–
 70
     0
  0
SEQEND
  5
C3
  8
ŒœŒ–€
  0
INSERT
  5
C5
  8
ŒœŒ–€
 62
   250
 66
     1
  2
BL2
 10
2268491.6563525698147714
 20
411272.1069872676744126
 30
0.0
 50
275.4900322843245135
  0
ATTRIB
  5
C7
  8
0
 10
2268494.3879348738119006
 20
411270.862616695871111
 30
0.0
 40
2.0
  1
9
 50
275.4900322843245135
  2
ÕŒÃ≈–
 70
     0
  0
SEQEND
  5
C6
  8
ŒœŒ–€
  0
INSERT
  5
C8
  8
ŒœŒ–€
 62
   250
 66
     1
  2
BL2
 10
2268495.0585783678106964
 20
411236.7089744425029494
 30
0.0
 50
274.9517083371561057
  0
ATTRIB
  5
CA
  8
0
 10
2268497.7783487630076706
 20
411235.4389945211005397
 30
0.0
 40
2.0
  1
10
 50
274.9517083371561057
  2
ÕŒÃ≈–
 70
     0
  0
SEQEND
  5
C9
  8
ŒœŒ–€
  0
INSERT
  5
CB
  8
ŒœŒ–€
 62
   250
 66
     1
  2
BL2
 10
2268498.3878237158060074
 20
411198.2825270323082805
 30
0.0
 50
5.3504947640098983
  0
ATTRIB
  5
CD
  8
0
 10
2268499.6388430572114885
 20
411201.0110707114217803
 30
0.0
 40
2.0
  1
11
 50
5.3504947640098983
  2
ÕŒÃ≈–
 70
     0
  0
SEQEND
  5
CC
  8
ŒœŒ–€
  0
INSERT
  5
CE
  8
ŒœŒ–€
 62
   250
 66
     1
  2
BL2
 10
2268508.7590356338769197
 20
411156.497934325481765
 30
0.0
 50
283.9394931465052991
  0
ATTRIB
  5
D0
  8
0
 10
2268511.6438129930756986
 20
411155.6684407514985651
 30
0.0
 40
2.0
  1
11/1
 50
283.9394931465052991
  2
ÕŒÃ≈–
 70
     0
  0
SEQEND
  5
CF
  8
ŒœŒ–€
  0
INSERT
  5
D1
  8
ŒœŒ–€
 62
   250
 66
     1
  2
BL2
 10
2268465.3516009049490094
 20
411195.1884815189987421
 30
0.0
 50
5.6661827763532129
  0
ATTRIB
  5
D3
  8
0
 10
2268466.58756761578843
 20
411197.9238766073831357
 30
0.0
 40
2.0
  1
12
 50
5.6661827763532129
  2
ÕŒÃ≈–
 70
     0
  0
SEQEND
  5
D2
  8
ŒœŒ–€
  0
INSERT
  5
D4
  8
ŒœŒ–€
 62
   250
 66
     1
  2
BL2
 10
2268438.0908359820023179
 20
411192.4837446872843429
 30
0.0
 50
281.907650145031198
  0
ATTRIB
  5
D6
  8
0
 10
2268440.9443899882026017
 20
411191.552493090624921
 30
0.0
 40
2.0
  1
13
 50
281.907650145031198
  2
ÕŒÃ≈–
 70
     0
  0
SEQEND
  5
D5
  8
ŒœŒ–€
  0
INSERT
  5
D7
  8
ŒœŒ–€
 62
   250
 66
     1
  2
BL2
 10
2268414.3644701321609318
 20
411187.8098955749883316
 30
0.0
 50
12.0022726872269594
  0
ATTRIB
  5
D9
  8
0
 10
2268415.2910078880377114
 20
411190.6649836273281835
 30
0.0
 40
2.0
  1
13/1
 50
12.0022726872269594
  2
ÕŒÃ≈–
 70
     0
  0
SEQEND
  5
D8
  8
ŒœŒ–€
  0
INSERT
  5
DA
  8
ŒœŒ–€
 62
   250
 66
     1
  2
BL2
 10
2268413.7170706097967923
 20
411213.4066888968809508
 30
0.0
 50
271.4488281153704747
  0
ATTRIB
  5
DC
  8
0
 10
2268416.354165593162179
 20
411211.9729071666952223
 30
0.0
 40
2.0
  1
13/1/1
 50
271.4488281153704747
  2
ÕŒÃ≈–
 70
     0
  0
SEQEND
  5
DB
  8
ŒœŒ–€
  0
INSERT
  5
DD
  8
ŒœŒ–€
 62
   250
 66
     1
  2
BL2
 10
2268388.2073280801996589
 20
411182.2489389654947445
 30
0.0
 50
20.0508250752999899
  0
ATTRIB
  5
DF
  8
0
 10
2268388.7249920652247965
 20
411185.2056303592980839
 30
0.0
 40
2.0
  1
13/2
 50
20.0508250752999899
  2
ÕŒÃ≈–
 70
     0
  0
SEQEND
  5
DE
  8
ŒœŒ–€
  0
INSERT
  5
E0
  8
ŒœŒ–€
 62
   250
 66
     1
  2
BL2
 10
2268448.2953077629208565
 20
411144.0920791830867529
 30
0.0
 50
318.6197047845042221
  0
ATTRIB
  5
E2
  8
0
 10
2268451.1395554700866342
 20
411145.0513783976784907
 30
0.0
 40
2.0
  1
14
 50
318.6197047845042221
  2
ÕŒÃ≈–
 70
     0
  0
SEQEND
  5
E1
  8
ŒœŒ–€
  0
INSERT
  5
E3
  8
ŒœŒ–€
 62
   250
 66
     1
  2
BL2
 10
2268444.3443080359138548
 20
411140.6989521597861312
 30
0.0
 50
3.2077367480916852
  0
ATTRIB
  5
E5
  8
0
 10
2268438.8621737412177026
 20
411143.0474197246949188
 30
0.0
 40
2.0
  1
14/1
 50
3.2077367480916852
  2
ÕŒÃ≈–
 70
     0
  0
SEQEND
  5
E4
  8
ŒœŒ–€
  0
INSERT
  5
E6
  8
ŒœŒ–€
 62
   250
 66
     1
  2
BL2
 10
2268408.4219800061546266
 20
411138.6857163711101748
 30
0.0
 50
2.2734597387547359
  0
ATTRIB
  5
E8
  8
0
 10
2268409.8176600621081889
 20
411141.343173272383865
 30
0.0
 40
2.0
  1
14/2
 50
2.2734597387547359
  2
ÕŒÃ≈–
 70
     0
  0
SEQEND
  5
E7
  8
ŒœŒ–€
  0
INSERT
  5
E9
  8
ŒœŒ–€
 62
   250
 66
     1
  2
BL2
 10
2268375.2123811859637499
 20
411137.3672888093278743
 30
0.0
 50
3.588182522362318
  0
ATTRIB
  5
EB
  8
0
 10
2268376.5467205280438066
 20
411140.0560689271078445
 30
0.0
 40
2.0
  1
14/3
 50
3.588182522362318
  2
ÕŒÃ≈–
 70
     0
  0
SEQEND
  5
EA
  8
ŒœŒ–€
  0
INSERT
  5
EC
  8
ŒœŒ–€
 62
   250
 66
     1
  2
BL2
 10
2268346.6551025612279773
 20
411135.5765304145752452
 30
0.0
 50
281.1260163995976882
  0
ATTRIB
  5
EE
  8
0
 10
2268349.4956872221082449
 20
411134.6064382609911263
 30
0.0
 40
2.0
  1
14/4
 50
281.1260163995976882
  2
ÕŒÃ≈–
 70
     0
  0
SEQEND
  5
ED
  8
ŒœŒ–€
  0
INSERT
  5
EF
  8
ŒœŒ–€
 62
   250
 66
     1
  2
BL2
 10
2268339.6898626489564776
 20
411170.9935222967178561
 30
0.0
 50
282.1934603888121842
  0
ATTRIB
  5
F1
  8
0
 10
2268342.5480265221558511
 20
411170.0765166957280599
 30
0.0
 40
2.0
  1
14/5
 50
282.1934603888122979
  2
ÕŒÃ≈–
 70
     0
  0
SEQEND
  5
F0
  8
ŒœŒ–€
  0
INSERT
  5
F2
  8
ŒœŒ–€
 62
   250
 66
     1
  2
BL2
 10
2268330.8284174399450421
 20
411212.0019897595047951
 30
0.0
 50
278.1474656499876801
  0
ATTRIB
  5
F4
  8
0
 10
2268333.6147566018626094
 20
411210.8856053848285228
 30
0.0
 40
2.0
  1
14/6
 50
278.1474656499876801
  2
ÕŒÃ≈–
 70
     0
  0
SEQEND
  5
F3
  8
ŒœŒ–€
  0
INSERT
  5
F5
  8
ŒœŒ–€
 62
   250
 66
     1
  2
BL2
 10
2268370.8550283322110772
 20
411175.9157809839234687
 30
0.0
 50
20.0508250752999899
  0
ATTRIB
  5
F7
  8
0
 10
2268371.3726923167705536
 20
411178.8724723777268082
 30
0.0
 40
2.0
  1
13/3
 50
20.0508250752999899
  2
ÕŒÃ≈–
 70
     0
  0
SEQEND
  5
F6
  8
ŒœŒ–€
  0
INSERT
  5
F8
  8
ŒœŒ–€
 62
   250
 66
     1
  2
BL2
 10
2268327.325014912057668
 20
411236.472835092805326
 30
0.0
 50
277.9000616265167878
  0
ATTRIB
  5
FA
  8
0
 10
2268330.1065075490623713
 20
411235.3444297093083151
 30
0.0
 40
2.0
  1
14/7
 50
277.9000616265167878
  2
ÕŒÃ≈–
 70
     0
  0
SEQEND
  5
F9
  8
ŒœŒ–€
  0
INSERT
  5
FB
  8
ŒœŒ–€
 62
   250
 66
     1
  2
BL2
 10
2268323.7153649372048676
 20
411262.4859750475734472
 30
0.0
 50
277.9000616265167878
  0
ATTRIB
  5
FD
  8
0
 10
2268326.4968575751408935
 20
411261.3575696640764363
 30
0.0
 40
2.0
  1
14/8
 50
277.9000616265167878
  2
ÕŒÃ≈–
 70
     0
  0
SEQEND
  5
FC
  8
ŒœŒ–€
  0
INSERT
  5
FE
  8
ŒœŒ–€
 62
   250
 66
     1
  2
BL2
 10
2268426.6592965722084045
 20
411103.3967184470966458
 30
0.0
 50
54.1506608437451291
  0
ATTRIB
  5
100
  8
0
 10
2268425.4303249442018569
 20
411106.1352634510258213
 30
0.0
 40
2.0
  1
15/2
 50
54.1506608437451291
  2
ÕŒÃ≈–
 70
     0
  0
SEQEND
  5
FF
  8
ŒœŒ–€
  0
INSERT
  5
101
  8
ŒœŒ–€
 62
   250
 66
     1
  2
BL2
 10
2268449.5708626611158252
 20
411135.1067969956784509
 30
0.0
 50
40.5957318855366367
  0
ATTRIB
  5
103
  8
0
 10
2268443.5967034311033785
 20
411132.6989982568193227
 30
0.0
 40
2.0
  1
15/1
 50
40.5957318855366367
  2
ÕŒÃ≈–
 70
     0
  0
SEQEND
  5
102
  8
ŒœŒ–€
  0
INSERT
  5
104
  8
ŒœŒ–€
 62
   250
 66
     1
  2
BL2
 10
2268454.0942171257920563
 20
411138.9831962108728476
 30
0.0
 50
331.5634292026288108
  0
ATTRIB
  5
106
  8
0
 10
2268456.6513168402016163
 20
411140.5552143595996313
 30
0.0
 40
2.0
  1
15
 50
331.5634292026288108
  2
ÕŒÃ≈–
 70
     0
  0
SEQEND
  5
105
  8
ŒœŒ–€
  0
INSERT
  5
107
  8
ŒœŒ–€
 62
   250
 66
     1
  2
BL2
 10
2268492.8021194729954004
 20
411118.0219708923250437
 30
0.0
 50
331.7637619690232782
  0
ATTRIB
  5
109
  8
0
 10
2268495.3537070578895509
 20
411119.602920226578135
 30
0.0
 40
2.0
  1
16
 50
331.7637619690232782
  2
ÕŒÃ≈–
 70
     0
  0
SEQEND
  5
108
  8
ŒœŒ–€
  0
INSERT
  5
10A
  8
ŒœŒ–€
 62
   250
 66
     1
  2
BL2
 10
2268524.435653492808342
 20
411101.0344504527747631
 30
0.0
 50
331.6266782923764822
  0
ATTRIB
  5
10C
  8
0
 10
2268523.4043338177725673
 20
411104.2999215860036202
 30
0.0
 40
2.0
  1
17
 50
331.6266782923764822
  2
ÕŒÃ≈–
 70
     0
  0
SEQEND
  5
10B
  8
ŒœŒ–€
  0
INSERT
  5
10D
  8
ŒœŒ–€
 62
   250
 66
     1
  2
BL2
 10
2268553.8325047818943858
 20
411125.1682082749903202
 30
0.0
 50
39.2288374479308573
  0
ATTRIB
  5
10F
  8
0
 10
2268553.3501541358418763
 20
411128.1308655036264099
 30
0.0
 40
2.0
  1
17/1
 50
39.2288374479308573
  2
ÕŒÃ≈–
 70
     0
  0
SEQEND
  5
10E
  8
ŒœŒ–€
  0
INSERT
  5
110
  8
ŒœŒ–€
 62
   250
 66
     1
  2
BL2
 10
2268578.5339666600339115
 20
411145.3349396577104926
 30
0.0
 50
26.7928445650967006
  0
ATTRIB
  5
112
  8
0
 10
2268578.7009380687959492
 20
411148.3319582677213475
 30
0.0
 40
2.0
  1
17/2
 50
26.7928445650967113
  2
ÕŒÃ≈–
 70
     0
  0
SEQEND
  5
111
  8
ŒœŒ–€
  0
INSERT
  5
113
  8
ŒœŒ–€
 62
   250
 66
     1
  2
BL2
 10
2268605.3092182320542634
 20
411158.8558956431224942
 30
0.0
 50
26.7928445650967006
  0
ATTRIB
  5
115
  8
0
 10
2268605.4761896408163011
 20
411161.8529142530751415
 30
0.0
 40
2.0
  1
17/3
 50
26.7928445650967113
  2
ÕŒÃ≈–
 70
     0
  0
SEQEND
  5
114
  8
ŒœŒ–€
  0
INSERT
  5
116
  8
ŒœŒ–€
 62
   250
 66
     1
  2
BL2
 10
2268559.9520733407698572
 20
411081.8521605508285575
 30
0.0
 50
331.9370613976802815
  0
ATTRIB
  5
118
  8
0
 10
2268562.4988674498163164
 20
411083.4408202897175215
 30
0.0
 40
2.0
  1
18
 50
331.9370613976802815
  2
ÕŒÃ≈–
 70
     0
  0
SEQEND
  5
117
  8
ŒœŒ–€
  0
INSERT
  5
119
  8
ŒœŒ–€
 62
   250
 66
     1
  2
BL2
 10
2268592.2490831301547587
 20
411064.6340013043954968
 30
0.0
 50
331.9447863253794822
  0
ATTRIB
  5
11B
  8
0
 10
2268594.7956630238331854
 20
411066.223004401603248
 30
0.0
 40
2.0
  1
19
 50
331.9447863253794822
  2
ÕŒÃ≈–
 70
     0
  0
SEQEND
  5
11A
  8
ŒœŒ–€
  0
INSERT
  5
11C
  8
ŒœŒ–€
 62
   250
 66
     1
  2
BL2
 10
2268634.2735651941038668
 20
411042.2372146546840668
 30
0.0
 50
331.9447863253794822
  0
ATTRIB
  5
11E
  8
0
 10
2268636.8201450877822936
 20
411043.8262177518918179
 30
0.0
 40
2.0
  1
20
 50
331.9447863253794822
  2
ÕŒÃ≈–
 70
     0
  0
SEQEND
  5
11D
  8
ŒœŒ–€
  0
INSERT
  5
123
  8
” Œ—€
 62
   250
 66
     1
  2
BL2
 10
2268560.0805941987782717
 20
411298.7410205631167628
 30
0.0
 50
12.5552967249215399
  0
ATTRIB
  5
125
  8
0
 10
2268560.9795316560193896
 20
411301.6049185096053407
 30
0.0
 40
2.0
  1

 50
12.5552967249215399
  2
ÕŒÃ≈–
 70
     0
  0
SEQEND
  5
124
  8
” Œ—€
  0
INSERT
  5
126
  8
” Œ—€
 62
   250
 66
     1
  2
BL2
 10
2268438.6461457069963217
 20
411190.1615403732284904
 30
0.0
 50
283.4486150086877956
  0
ATTRIB
  5
128
  8
0
 10
2268441.5237106448039412
 20
411189.3073623878881335
 30
0.0
 40
2.0
  1

 50
283.4486150086877956
  2
ÕŒÃ≈–
 70
     0
  0
SEQEND
  5
127
  8
” Œ—€
  0
INSERT
  5
129
  8
” Œ—€
 62
   250
 66
     1
  2
BL2
 10
2268391.5504926219582558
 20
411182.9190826778067276
 30
0.0
 50
11.3348268837859898
  0
ATTRIB
  5
12B
  8
0
 10
2268392.5102260438725352
 20
411185.7631838999222964
 30
0.0
 40
2.0
  1

 50
11.3348268837859898
  2
ÕŒÃ≈–
 70
     0
  0
SEQEND
  5
12A
  8
” Œ—€
  0
INSERT
  5
12C
  8
” Œ—€
 62
   250
 66
     1
  2
BL2
 10
2268447.6910221208818257
 20
411147.352329887507949
 30
0.0
 50
280.5005758005552821
  0
ATTRIB
  5
12E
  8
0
 10
2268450.5208482290618122
 20
411146.3512883309158497
 30
0.0
 40
2.0
  1

 50
280.5005758005552821
  2
ÕŒÃ≈–
 70
     0
  0
SEQEND
  5
12D
  8
” Œ—€
  0
INSERT
  5
12F
  8
” Œ—€
 62
   250
 66
     1
  2
BL2
 10
2268440.9441015911288559
 20
411140.3693388411775231
 30
0.0
 50
5.5369068895826228
  0
ATTRIB
  5
131
  8
0
 10
2268442.1862369938753545
 20
411143.1019382699741982
 30
0.0
 40
2.0
  1

 50
5.5369068895826237
  2
ÕŒÃ≈–
 70
     0
  0
SEQEND
  5
130
  8
” Œ—€
  0
INSERT
  5
132
  8
” Œ—€
 62
   250
 66
     1
  2
BL2
 10
2268349.5827150251716375
 20
411136.0864009875804186
 30
0.0
 50
9.8794946903834013
  0
ATTRIB
  5
134
  8
0
 10
2268350.6143722292035818
 20
411138.9052098516840488
 30
0.0
 40
2.0
  1

 50
9.8794946903834013
  2
ÕŒÃ≈–
 70
     0
  0
SEQEND
  5
133
  8
” Œ—€
  0
INSERT
  5
135
  8
” Œ—€
 62
   250
 66
     1
  2
BL2
 10
2268330.2269864319823682
 20
411214.3379160118056461
 30
0.0
 50
284.4383548419818908
  0
ATTRIB
  5
137
  8
0
 10
2268333.1188765740953386
 20
411213.5335706805926748
 30
0.0
 40
2.0
  1

 50
284.4383548419818908
  2
ÕŒÃ≈–
 70
     0
  0
SEQEND
  5
136
  8
” Œ—€
  0
INSERT
  5
138
  8
” Œ—€
 62
   250
 66
     1
  2
BL2
 10
2268450.6811407739296556
 20
411130.5095649334252812
 30
0.0
 50
283.5775169169111223
  0
ATTRIB
  5
13A
  8
0
 10
2268453.5606201258487999
 20
411129.6618629426811822
 30
0.0
 40
2.0
  1

 50
283.5775169169111223
  2
ÕŒÃ≈–
 70
     0
  0
SEQEND
  5
139
  8
” Œ—€
  0
INSERT
  5
13B
  8
” Œ—€
 62
   250
 66
     1
  2
BL2
 10
2268457.1980492430739105
 20
411137.2755527357803658
 30
0.0
 50
331.1816130215863154
  0
ATTRIB
  5
13D
  8
0
 10
2268459.7655679490417242
 20
411138.8304957217187621
 30
0.0
 40
2.0
  1

 50
331.1816130215863154
  2
ÕŒÃ≈–
 70
     0
  0
SEQEND
  5
13C
  8
” Œ—€
  0
INSERT
  5
13E
  8
” Œ—€
 62
   250
 66
     1
  2
BL2
 10
2268631.2970460779033601
 20
411043.9680092139169574
 30
0.0
 50
329.8227369210650863
  0
ATTRIB
  5
140
  8
0
 10
2268633.9007176291197538
 20
411045.4616271224222146
 30
0.0
 40
2.0
  1

 50
329.8227369210650863
  2
ÕŒÃ≈–
 70
     0
  0
SEQEND
  5
13F
  8
” Œ—€
  0
POLYLINE
  5
145
  8
¬À-0_4 ¬_Œ“_ “œ_463_‘_27_œ
 62
     5
 66
     1
 10
0.0
 20
0.0
 30
0.0
  0
VERTEX
  5
7F2
  8
¬À-0_4 ¬_Œ“_ “œ_463_‘_27_œ
 62
     5
 10
2268508.7590356338769197
 20
411156.497934325481765
 30
0.0
  0
VERTEX
  5
7F3
  8
¬À-0_4 ¬_Œ“_ “œ_463_‘_27_œ
 62
     5
 10
2268498.3878237158060074
 20
411198.2825270323082805
 30
0.0
  0
VERTEX
  5
7F4
  8
¬À-0_4 ¬_Œ“_ “œ_463_‘_27_œ
 62
     5
 10
2268495.0585783678106964
 20
411236.7089744425029494
 30
0.0
  0
VERTEX
  5
7F5
  8
¬À-0_4 ¬_Œ“_ “œ_463_‘_27_œ
 62
     5
 10
2268491.6563525698147714
 20
411272.1069872676744126
 30
0.0
  0
VERTEX
  5
7F6
  8
¬À-0_4 ¬_Œ“_ “œ_463_‘_27_œ
 62
     5
 10
2268511.7707268018275499
 20
411276.1092101539834403
 30
0.0
  0
VERTEX
  5
7F7
  8
¬À-0_4 ¬_Œ“_ “œ_463_‘_27_œ
 62
     5
 10
2268541.6840115361846983
 20
411281.94633958209306
 30
0.0
  0
VERTEX
  5
7F8
  8
¬À-0_4 ¬_Œ“_ “œ_463_‘_27_œ
 62
     5
 10
2268563.8347309487871826
 20
411299.5770946852280758
 30
0.0
  0
VERTEX
  5
7F9
  8
¬À-0_4 ¬_Œ“_ “œ_463_‘_27_œ
 62
     5
 10
2268569.8870105328969657
 20
411319.9638684261008166
 30
0.0
  0
VERTEX
  5
7FA
  8
¬À-0_4 ¬_Œ“_ “œ_463_‘_27_œ
 62
     5
 10
2268558.8941534222103655
 20
411352.7880419819266535
 30
0.0
  0
VERTEX
  5
7FB
  8
¬À-0_4 ¬_Œ“_ “œ_463_‘_27_œ
 62
     5
 10
2268544.2446497650817037
 20
411393.2287675859988667
 30
0.0
  0
VERTEX
  5
7FC
  8
¬À-0_4 ¬_Œ“_ “œ_463_‘_27_œ
 62
     5
 10
2268530.1094010728411376
 20
411433.0166812996030785
 30
0.0
  0
VERTEX
  5
7FD
  8
¬À-0_4 ¬_Œ“_ “œ_463_‘_27_œ
 62
     5
 10
2268516.3932219068519771
 20
411473.0453001270070672
 30
0.0
  0
VERTEX
  5
7FE
  8
¬À-0_4 ¬_Œ“_ “œ_463_‘_27_œ
 62
     5
 10
2268505.180845411028713
 20
411481.0398459057905711
 30
0.0
  0
SEQEND
  5
7FF
  8
¬À-0_4 ¬_Œ“_ “œ_463_‘_27_œ
 62
     5
  0
POLYLINE
  5
151
  8
¬À-0_4 ¬_Œ“_ “œ_463_‘_27_œ
 62
     5
 66
     1
 10
0.0
 20
0.0
 30
0.0
  0
VERTEX
  5
800
  8
¬À-0_4 ¬_Œ“_ “œ_463_‘_27_œ
 62
     5
 10
2268413.7170706097967923
 20
411213.4066888968809508
 30
0.0
  0
VERTEX
  5
801
  8
¬À-0_4 ¬_Œ“_ “œ_463_‘_27_œ
 62
     5
 10
2268414.3644701321609318
 20
411187.8098955749883316
 30
0.0
  0
VERTEX
  5
802
  8
¬À-0_4 ¬_Œ“_ “œ_463_‘_27_œ
 62
     5
 10
2268438.0908359820023179
 20
411192.4837446872843429
 30
0.0
  0
VERTEX
  5
803
  8
¬À-0_4 ¬_Œ“_ “œ_463_‘_27_œ
 62
     5
 10
2268465.3516009049490094
 20
411195.1884815189987421
 30
0.0
  0
VERTEX
  5
804
  8
¬À-0_4 ¬_Œ“_ “œ_463_‘_27_œ
 62
     5
 10
2268498.3878237158060074
 20
411198.2825270323082805
 30
0.0
  0
SEQEND
  5
805
  8
¬À-0_4 ¬_Œ“_ “œ_463_‘_27_œ
 62
     5
  0
POLYLINE
  5
155
  8
¬À-0_4 ¬_Œ“_ “œ_463_‘_27_œ
 62
     5
 66
     1
 10
0.0
 20
0.0
 30
0.0
  0
VERTEX
  5
806
  8
¬À-0_4 ¬_Œ“_ “œ_463_‘_27_œ
 62
     5
 10
2268370.8550283322110772
 20
411175.9157809839234687
 30
0.0
  0
VERTEX
  5
807
  8
¬À-0_4 ¬_Œ“_ “œ_463_‘_27_œ
 62
     5
 10
2268388.2073280801996589
 20
411182.2489389654947445
 30
0.0
  0
VERTEX
  5
808
  8
¬À-0_4 ¬_Œ“_ “œ_463_‘_27_œ
 62
     5
 10
2268414.3644701321609318
 20
411187.8098955749883316
 30
0.0
  0
SEQEND
  5
809
  8
¬À-0_4 ¬_Œ“_ “œ_463_‘_27_œ
 62
     5
  0
POLYLINE
  5
156
  8
¬À-0_4 ¬_Œ“_ “œ_463_‘_27_œ
 62
     5
 66
     1
 10
0.0
 20
0.0
 30
0.0
  0
VERTEX
  5
80A
  8
¬À-0_4 ¬_Œ“_ “œ_463_‘_27_œ
 62
     5
 10
2268323.7153649372048676
 20
411262.4859750475734472
 30
0.0
  0
VERTEX
  5
80B
  8
¬À-0_4 ¬_Œ“_ “œ_463_‘_27_œ
 62
     5
 10
2268327.325014912057668
 20
411236.472835092805326
 30
0.0
  0
VERTEX
  5
80C
  8
¬À-0_4 ¬_Œ“_ “œ_463_‘_27_œ
 62
     5
 10
2268330.8284174399450421
 20
411212.0019897595047951
 30
0.0
  0
VERTEX
  5
80D
  8
¬À-0_4 ¬_Œ“_ “œ_463_‘_27_œ
 62
     5
 10
2268339.6898626489564776
 20
411170.9935222967178561
 30
0.0
  0
VERTEX
  5
80E
  8
¬À-0_4 ¬_Œ“_ “œ_463_‘_27_œ
 62
     5
 10
2268346.6551025612279773
 20
411135.5765304145752452
 30
0.0
  0
VERTEX
  5
80F
  8
¬À-0_4 ¬_Œ“_ “œ_463_‘_27_œ
 62
     5
 10
2268375.2123811859637499
 20
411137.3672888093278743
 30
0.0
  0
VERTEX
  5
810
  8
¬À-0_4 ¬_Œ“_ “œ_463_‘_27_œ
 62
     5
 10
2268408.4219800061546266
 20
411138.6857163711101748
 30
0.0
  0
VERTEX
  5
811
  8
¬À-0_4 ¬_Œ“_ “œ_463_‘_27_œ
 62
     5
 10
2268444.3443080359138548
 20
411140.6989521597861312
 30
0.0
  0
VERTEX
  5
812
  8
¬À-0_4 ¬_Œ“_ “œ_463_‘_27_œ
 62
     5
 10
2268448.2953077629208565
 20
411144.0920791830867529
 30
0.0
  0
VERTEX
  5
813
  8
¬À-0_4 ¬_Œ“_ “œ_463_‘_27_œ
 62
     5
 10
2268438.0908359820023179
 20
411192.4837446872843429
 30
0.0
  0
SEQEND
  5
814
  8
¬À-0_4 ¬_Œ“_ “œ_463_‘_27_œ
 62
     5
  0
POLYLINE
  5
15F
  8
¬À-0_4 ¬_Œ“_ “œ_463_‘_27_œ
 62
     5
 66
     1
 10
0.0
 20
0.0
 30
0.0
  0
VERTEX
  5
815
  8
¬À-0_4 ¬_Œ“_ “œ_463_‘_27_œ
 62
     5
 10
2268448.2953077629208565
 20
411144.0920791830867529
 30
0.0
  0
VERTEX
  5
816
  8
¬À-0_4 ¬_Œ“_ “œ_463_‘_27_œ
 62
     5
 10
2268454.0942171257920563
 20
411138.9831962108728476
 30
0.0
  0
VERTEX
  5
817
  8
¬À-0_4 ¬_Œ“_ “œ_463_‘_27_œ
 62
     5
 10
2268449.5708626611158252
 20
411135.1067969956784509
 30
0.0
  0
VERTEX
  5
818
  8
¬À-0_4 ¬_Œ“_ “œ_463_‘_27_œ
 62
     5
 10
2268426.6592965722084045
 20
411103.3967184470966458
 30
0.0
  0
SEQEND
  5
819
  8
¬À-0_4 ¬_Œ“_ “œ_463_‘_27_œ
 62
     5
  0
POLYLINE
  5
162
  8
¬À-0_4 ¬_Œ“_ “œ_463_‘_27_œ
 62
     5
 66
     1
 10
0.0
 20
0.0
 30
0.0
  0
VERTEX
  5
81A
  8
¬À-0_4 ¬_Œ“_ “œ_463_‘_27_œ
 62
     5
 10
2268605.3092182320542634
 20
411158.8558956431224942
 30
0.0
  0
VERTEX
  5
81B
  8
¬À-0_4 ¬_Œ“_ “œ_463_‘_27_œ
 62
     5
 10
2268578.5339666600339115
 20
411145.3349396577104926
 30
0.0
  0
VERTEX
  5
81C
  8
¬À-0_4 ¬_Œ“_ “œ_463_‘_27_œ
 62
     5
 10
2268553.8325047818943858
 20
411125.1682082749903202
 30
0.0
  0
VERTEX
  5
81D
  8
¬À-0_4 ¬_Œ“_ “œ_463_‘_27_œ
 62
     5
 10
2268524.435653492808342
 20
411101.0344504527747631
 30
0.0
  0
VERTEX
  5
81E
  8
¬À-0_4 ¬_Œ“_ “œ_463_‘_27_œ
 62
     5
 10
2268492.8021194729954004
 20
411118.0219708923250437
 30
0.0
  0
VERTEX
  5
81F
  8
¬À-0_4 ¬_Œ“_ “œ_463_‘_27_œ
 62
     5
 10
2268454.0942171257920563
 20
411138.9831962108728476
 30
0.0
  0
SEQEND
  5
820
  8
¬À-0_4 ¬_Œ“_ “œ_463_‘_27_œ
 62
     5
  0
POLYLINE
  5
167
  8
¬À-0_4 ¬_Œ“_ “œ_463_‘_27_œ
 62
     5
 66
     1
 10
0.0
 20
0.0
 30
0.0
  0
VERTEX
  5
821
  8
¬À-0_4 ¬_Œ“_ “œ_463_‘_27_œ
 62
     5
 10
2268634.2735651941038668
 20
411042.2372146546840668
 30
0.0
  0
VERTEX
  5
822
  8
¬À-0_4 ¬_Œ“_ “œ_463_‘_27_œ
 62
     5
 10
2268592.2490831301547587
 20
411064.6340013043954968
 30
0.0
  0
VERTEX
  5
823
  8
¬À-0_4 ¬_Œ“_ “œ_463_‘_27_œ
 62
     5
 10
2268559.9520733407698572
 20
411081.8521605508285575
 30
0.0
  0
VERTEX
  5
824
  8
¬À-0_4 ¬_Œ“_ “œ_463_‘_27_œ
 62
     5
 10
2268524.435653492808342
 20
411101.0344504527747631
 30
0.0
  0
SEQEND
  5
825
  8
¬À-0_4 ¬_Œ“_ “œ_463_‘_27_œ
 62
     5
  0
TEXT
  5
253
  8
œŒƒœ»—»
  6
CONTINUOUS
 10
2268492.6964587378315628
 20
411486.0497370642260648
 30
0.0
 40
2.0
  1
 “œ 463/160
  0
TEXT
  5
319
  8
œŒƒœ»—»
  6
CONTINUOUS
 10
2268513.6632051151245832
 20
411449.0844587830943055
 30
0.0
 40
2.0
  1
À-1
  0
POLYLINE
  5
471
  8
0
 66
     1
 10
0.0
 20
0.0
 30
0.0
  0
VERTEX
  5
82F
  8
0
 10
2268516.3932219068519771
 20
411473.0453001270070672
 30
0.0
  0
VERTEX
  5
830
  8
0
 10
2268530.1094010728411376
 20
411433.0166812996030785
 30
0.0
  0
VERTEX
  5
831
  8
0
 10
2268544.2446497650817037
 20
411393.2287675859988667
 30
0.0
  0
VERTEX
  5
832
  8
0
 10
2268558.8941534222103655
 20
411352.7880419819266535
 30
0.0
  0
VERTEX
  5
833
  8
0
 10
2268569.8870105328969657
 20
411319.9638684261008166
 30
0.0
  0
VERTEX
  5
834
  8
0
 10
2268563.8347309487871826
 20
411299.5770946852280758
 30
0.0
  0
VERTEX
  5
835
  8
0
 10
2268560.0805941987782717
 20
411298.7410205631167628
 30
0.0
  0
VERTEX
  5
836
  8
0
 10
2268541.6840115361846983
 20
411281.94633958209306
 30
0.0
  0
VERTEX
  5
837
  8
0
 10
2268511.7707268018275499
 20
411276.1092101539834403
 30
0.0
  0
VERTEX
  5
838
  8
0
 10
2268491.6563525698147714
 20
411272.1069872676744126
 30
0.0
  0
VERTEX
  5
839
  8
0
 10
2268495.0585783678106964
 20
411236.7089744425029494
 30
0.0
  0
VERTEX
  5
83A
  8
0
 10
2268498.3878237158060074
 20
411198.2825270323082805
 30
0.0
  0
VERTEX
  5
83B
  8
0
 10
2268508.7590356338769197
 20
411156.497934325481765
 30
0.0
  0
VERTEX
  5
83C
  8
0
 10
2268465.3516009049490094
 20
411195.1884815189987421
 30
0.0
  0
VERTEX
  5
83D
  8
0
 10
2268438.0908359820023179
 20
411192.4837446872843429
 30
0.0
  0
VERTEX
  5
83E
  8
0
 10
2268438.6461457069963217
 20
411190.1615403732284904
 30
0.0
  0
VERTEX
  5
83F
  8
0
 10
2268414.3644701321609318
 20
411187.8098955749883316
 30
0.0
  0
VERTEX
  5
840
  8
0
 10
2268413.7170706097967923
 20
411213.4066888968809508
 30
0.0
  0
VERTEX
  5
841
  8
0
 10
2268388.2073280801996589
 20
411182.2489389654947445
 30
0.0
  0
VERTEX
  5
842
  8
0
 10
2268391.5504926219582558
 20
411182.9190826778067276
 30
0.0
  0
VERTEX
  5
843
  8
0
 10
2268370.8550283322110772
 20
411175.9157809839234687
 30
0.0
  0
VERTEX
  5
844
  8
0
 10
2268448.2953077629208565
 20
411144.0920791830867529
 30
0.0
  0
VERTEX
  5
845
  8
0
 10
2268447.6910221208818257
 20
411147.352329887507949
 30
0.0
  0
VERTEX
  5
846
  8
0
 10
2268444.3443080359138548
 20
411140.6989521597861312
 30
0.0
  0
VERTEX
  5
847
  8
0
 10
2268440.9441015911288559
 20
411140.3693388411775231
 30
0.0
  0
VERTEX
  5
848
  8
0
 10
2268408.4219800061546266
 20
411138.6857163711101748
 30
0.0
  0
VERTEX
  5
849
  8
0
 10
2268375.2123811859637499
 20
411137.3672888093278743
 30
0.0
  0
VERTEX
  5
84A
  8
0
 10
2268346.6551025612279773
 20
411135.5765304145752452
 30
0.0
  0
VERTEX
  5
84B
  8
0
 10
2268349.5827150251716375
 20
411136.0864009875804186
 30
0.0
  0
VERTEX
  5
84C
  8
0
 10
2268339.6898626489564776
 20
411170.9935222967178561
 30
0.0
  0
VERTEX
  5
84D
  8
0
 10
2268330.8284174399450421
 20
411212.0019897595047951
 30
0.0
  0
VERTEX
  5
84E
  8
0
 10
2268330.2269864319823682
 20
411214.3379160118056461
 30
0.0
  0
VERTEX
  5
84F
  8
0
 10
2268327.325014912057668
 20
411236.472835092805326
 30
0.0
  0
VERTEX
  5
850
  8
0
 10
2268323.7153649372048676
 20
411262.4859750475734472
 30
0.0
  0
VERTEX
  5
851
  8
0
 10
2268454.0942171257920563
 20
411138.9831962108728476
 30
0.0
  0
VERTEX
  5
852
  8
0
 10
2268457.1980492430739105
 20
411137.2755527357803658
 30
0.0
  0
VERTEX
  5
853
  8
0
 10
2268449.5708626611158252
 20
411135.1067969956784509
 30
0.0
  0
VERTEX
  5
854
  8
0
 10
2268450.6811407739296556
 20
411130.5095649334252812
 30
0.0
  0
VERTEX
  5
855
  8
0
 10
2268426.6592965722084045
 20
411103.3967184470966458
 30
0.0
  0
VERTEX
  5
856
  8
0
 10
2268492.8021194729954004
 20
411118.0219708923250437
 30
0.0
  0
VERTEX
  5
857
  8
0
 10
2268524.435653492808342
 20
411101.0344504527747631
 30
0.0
  0
VERTEX
  5
858
  8
0
 10
2268553.8325047818943858
 20
411125.1682082749903202
 30
0.0
  0
VERTEX
  5
859
  8
0
 10
2268578.5339666600339115
 20
411145.3349396577104926
 30
0.0
  0
VERTEX
  5
85A
  8
0
 10
2268605.3092182320542634
 20
411158.8558956431224942
 30
0.0
  0
VERTEX
  5
85B
  8
0
 10
2268559.9520733407698572
 20
411081.8521605508285575
 30
0.0
  0
VERTEX
  5
85C
  8
0
 10
2268592.2490831301547587
 20
411064.6340013043954968
 30
0.0
  0
VERTEX
  5
85D
  8
0
 10
2268634.2735651941038668
 20
411042.2372146546840668
 30
0.0
  0
VERTEX
  5
85E
  8
0
 10
2268631.2970460779033601
 20
411043.9680092139169574
 30
0.0
  0
SEQEND
  5
85F
  8
0
  0
ENDSEC
  0
EOF
